
<svg xmlns="http://www.w3.org/2000/svg" version="1.1" xmlns:xlink="http://www.w3.org/1999/xlink" preserveAspectRatio="none" x="0px" y="0px" width="300px" height="300px" viewBox="0 0 300 300">
<defs>
<linearGradient id="Gradient_1" gradientUnits="userSpaceOnUse" x1="215.8375" y1="177.425" x2="165.4625" y2="38.974999999999994" spreadMethod="pad">
<stop  offset="45.88235294117647%" stop-color="#735938"/>

<stop  offset="60.78431372549019%" stop-color="#83643F"/>

<stop  offset="83.92156862745098%" stop-color="#957248"/>

<stop  offset="100%" stop-color="#9B774B"/>
</linearGradient>

<linearGradient id="Gradient_2" gradientUnits="userSpaceOnUse" x1="353.775" y1="178.325" x2="405.025" y2="44.77499999999999" spreadMethod="pad">
<stop  offset="45.88235294117647%" stop-color="#735938"/>

<stop  offset="60.78431372549019%" stop-color="#83643F"/>

<stop  offset="83.92156862745098%" stop-color="#957248"/>

<stop  offset="100%" stop-color="#9B774B"/>
</linearGradient>

<g id="Layer1_0_FILL">
<path fill="#CFAFAF" stroke="none" d="
M -28.95 351.05
L -28.95 51.05 -328.95 51.05 -328.95 351.05 -28.95 351.05 Z"/>
</g>

<g id="Layer1_1_MEMBER_0_FILL">
<path fill="#FFFFFF" stroke="none" d="
M 192.45 85.25
L 192.45 38.95 119.15 38.95 119.15 63.8 78.85 63.8 78.85 131.95 149.6 131.95 149.6 85.25 192.45 85.25 Z"/>
</g>

<g id="Layer1_1_MEMBER_0_MEMBER_0_MEMBER_0_FILL">
<path fill="#FFFFFF" stroke="none" d="
M 193.85 75.6
Q 179.05 75.6 168.6 86 158.3 96.45 158.3 111.15 158.3 125.9 168.6 136.25 179.05 146.7 193.85 146.7 208.55 146.7 218.95 136.25 229.35 125.9 229.35 111.15 229.35 96.45 218.95 86 208.55 75.6 193.85 75.6 Z"/>
</g>

<g id="Layer1_1_MEMBER_0_MEMBER_1_FILL">
<path fill="#FF6600" stroke="none" d="
M 245.85 174.6
Q 265.1 155.5 265.15 128.1 265.2 100.85 245.95 81.55 226.7 62.25 199.5 62.3 172.3 62.35 153.15 81.55 134 100.7 134 127.95 134 155.15 153.05 174.4 172.1 193.65 199.05 193.7 226.6 193.7 245.85 174.6
M 176.25 93.55
Q 176.85 92.85 178.55 92.65 185.05 91.95 222.45 87.6
L 233.9 86.35 233.9 144.9
Q 233.9 151.05 230.95 154.45 228.05 157.85 221.95 158.8 213.2 160.15 207.5 154.4 204.5 151.4 204.5 147.5 204.5 143.6 207.45 140.55 213.25 134.7 223.2 136.3
L 225.05 136.65 225.5 136.5 225.5 104.3 183.85 109.15 183.85 151.25
Q 183.85 157.1 181.2 160.4 178.5 163.75 172.85 164.85 163.65 166.6 157.8 160.8 154.35 157.45 154.6 153.1 154.8 148.7 158.6 145.7 165.5 140.2 175.55 143.05
L 175.7 139.9
Q 175.8 110.6 175.7 95.95 175.65 94.25 176.25 93.55 Z"/>
</g>

<g id="Layer1_1_MEMBER_0_MEMBER_2_FILL">
<path fill="#FF6600" stroke="none" d="
M 122.05 95.85
L 97.95 95.85 97.5 99.45 24.6 99.45
Q 24.3 98.15 24.3 97.75 24.3 60.2 24.25 52.7 24.25 51.3 24.95 50.8 25.5 50.4 26.9 50.4
L 57.45 50.45 57.45 42.55 0 42.55 0 164.9 122.05 164.9 122.05 95.85
M 15.95 50.5
Q 17.8 50.6 18.95 51.75 20.15 52.9 20.05 54.55 19.8 58.3 16.25 58.55 11.8 58.9 8.25 58.75 6.1 58.65 4.8 57.35 3.5 56.1 3.6 54.3 3.75 52.55 5.05 51.55 6.4 50.5 8.5 50.45
L 11.95 50.45
Q 15.5 50.45 15.95 50.5
M 4.65 68.15
Q 5.6 67.05 7.25 66.95 11.9 66.6 16.55 66.95 18.15 67.1 19.1 68.2 20.05 69.3 20 71 19.9 74.55 16.45 74.95 15.5 75.05 14.05 75.05 12.45 75 11.65 75 7.85 75 7.4 74.95 5.75 74.8 4.65 73.6 3.55 72.45 3.65 70.9 3.75 69.2 4.65 68.15
M 16.2 83.35
Q 17.9 83.45 19 84.6 20.05 85.7 20.05 87.3 20.05 88.85 19 90.05 17.9 91.25 16.3 91.4 15.8 91.45 11.75 91.45
L 7.5 91.45
Q 5.9 91.3 4.75 90.1 3.65 88.9 3.6 87.4 3.6 85.8 4.65 84.65 5.75 83.4 7.45 83.35 11.2 83.1 16.2 83.35
M 15.9 107.85
L 11.65 107.85
Q 8.1 107.85 7.65 107.8 5.9 107.65 4.85 106.7 3.75 105.65 3.7 103.95 3.65 102.15 4.55 101.05 5.5 99.85 7.25 99.75 12.15 99.4 16.3 99.7 18.1 99.85 19.15 101.15 20.25 102.4 20 104.05 19.65 107.55 15.9 107.85
M 4.4 117.55
Q 5.3 116.35 6.9 116.2 11.65 115.7 16.95 116.25 18.55 116.45 19.4 117.65 20.2 118.85 20 120.55 19.5 124 16.05 124.15
L 7.8 124.15
Q 6 124.1 4.95 123.15 3.85 122.2 3.7 120.45 3.55 118.75 4.4 117.55
M 16.5 132.5
Q 18.1 132.6 19.15 133.95 20.2 135.25 20 136.8 19.6 140.25 16.2 140.55 15.3 140.65 13.95 140.6
L 11.7 140.55
Q 9 140.65 7.7 140.55 6 140.5 4.85 139.4 3.75 138.3 3.65 136.75 3.55 135.2 4.6 133.9 5.65 132.55 7.2 132.45 12.1 132.2 16.5 132.5
M 15.95 157
Q 15.3 157.05 11.95 157.05 8.4 157.05 7.7 157 6 156.9 4.8 155.7 3.6 154.5 3.65 152.9 3.65 151.25 4.8 150.1 5.95 148.95 7.75 148.85 11.9 148.7 16 148.85 17.75 148.95 18.9 150.1 20.05 151.3 20.05 152.95 20.05 154.55 18.9 155.7 17.7 156.9 15.95 157
M 24.55 156.85
L 24.55 108.05 97.55 108.05 97.55 156.85 24.55 156.85
M 118.3 103.95
Q 118.15 107.45 114.35 107.8 113.9 107.85 110.1 107.85 108.65 107.9 107.95 107.9 106.7 107.9 105.85 107.8 102.1 107.3 102 103.75 102 102.05 102.9 101 103.85 99.9 105.5 99.75 110.65 99.4 114.75 99.75 116.5 99.85 117.45 101 118.4 102.15 118.3 103.95
M 102.65 117.65
Q 103.5 116.45 105.1 116.25 110 115.65 115.15 116.2 116.8 116.35 117.65 117.65 118.5 118.85 118.25 120.7 117.8 124 114.2 124.15
L 106 124.15
Q 102.45 124 102.05 120.55 101.8 118.9 102.65 117.65
M 114.7 132.45
Q 116.3 132.55 117.35 133.8 118.4 135 118.35 136.6 118.3 138.2 117.2 139.35 116.1 140.45 114.45 140.55
L 110.2 140.55
Q 107.35 140.65 105.9 140.55 104.25 140.45 103.15 139.35 102.05 138.25 102 136.65 101.95 135.05 102.95 133.8 104.05 132.55 105.65 132.45 110.2 132.25 114.7 132.45
M 117.3 155.7
Q 116.25 156.9 114.6 157 110.25 157.25 105.85 157 104.25 156.95 103.1 155.7 102 154.5 102 152.95 101.95 151.3 103.1 150.15 104.2 148.95 106 148.85
L 110.5 148.85
Q 113.2 148.75 114.5 148.85 116.2 149 117.25 150.1 118.3 151.2 118.3 152.85 118.35 154.5 117.3 155.7 Z"/>
</g>

<g id="Layer1_1_MEMBER_0_MEMBER_3_FILL">
<path fill="#FF6600" stroke="none" d="
M 186.05 8.4
Q 186.6 9 186.6 10.65 186.55 17.8 186.55 53.55
L 186.7 56.85 194.55 55.95 194.55 0 63.6 0 63.6 84.35
Q 63.6 88.4 64.3 89.1 64.95 89.75 69.05 89.75
L 135.95 89.75
Q 138.35 89.75 138.85 89.15 140 87.8 141.4 85.75 142.25 84.5 144.05 81.85
L 74.65 81.9
Q 72.9 81.9 72.3 81.4 71.55 80.85 71.55 79.05 71.7 48.55 71.6 10.55 71.55 8.9 72.25 8.3 72.85 7.75 74.5 7.75 129.15 7.85 183.8 7.75 185.45 7.75 186.05 8.4 Z"/>
</g>

<g id="Layer1_1_MEMBER_0_MEMBER_4_FILL">
<path fill="#FF6600" stroke="none" d="
M 115.15 49.3
Q 113.8 48.55 112.9 48.7 111.95 48.8 110.85 49.9 105.4 55.5 90.15 70.65
L 88.6 72.5 89.7 72.65 151.85 72.65
Q 153.4 72.55 154.05 72.05 154.3 71.85 165.05 64.3
L 145.55 31.75 129.15 56.3 115.15 49.3 Z"/>
</g>

<g id="Layer1_1_MEMBER_0_MEMBER_5_FILL">
<path fill="#FF6600" stroke="none" d="
M 109 38.1
Q 112.6 34.55 112.65 29.5 112.65 24.25 109.2 20.7 105.7 17.2 100.5 17.15 95.35 17.15 91.85 20.65 88.3 24.1 88.25 29.2 88.2 34.4 91.7 37.95 95.25 41.55 100.4 41.6 105.4 41.7 109 38.1 Z"/>
</g>

<g id="Layer1_2_FILL">
<path fill="#000000" fill-opacity="0.35294117647058826" stroke="none" d="
M 274 260.9
Q 274.0015625 260.846875 274.05 260.75 274.0015625 260.7015625 274 260.65
L 274 260.9 Z"/>

<path fill="#000000" fill-opacity="0.26666666666666666" stroke="none" d="
M 275.05 260.75
L 275 260.65 275 260.95
Q 275.003125 260.84375 275.05 260.75
M 62.9 286.4
L 62.75 286.35 62.85 286.4 62.9 286.4 Z"/>

<path fill="#000000" fill-opacity="0.12941176470588237" stroke="none" d="
M 62.35 287.75
Q 62.4 287.8 62.5 287.8 62.95 287.9 63.3 287.9
L 62.35 287.75
M 22.2 260.7
Q 22.2 260.85 22.25 261
L 22.2 260.55
Q 22.2 260.65 22.2 260.7 Z"/>

<path fill="#000000" fill-opacity="0.08627450980392157" stroke="none" d="
M 21.7 260.75
Q 21.7 260.9 21.8 261
L 21.8 260.55
Q 21.7 260.65 21.7 260.75 Z"/>
</g>

<g id="Layer1_2_MEMBER_0_MEMBER_0_FILL">
<path fill="url(#Gradient_1)" stroke="none" d="
M 285.45 152.1
L 283.35 0.85 89 66.75 95.25 208.1 285.45 152.1 Z"/>
</g>

<g id="Layer1_2_MEMBER_0_MEMBER_1_FILL">
<path fill="url(#Gradient_2)" stroke="none" d="
M 480.85 208.25
L 476.85 72.35 283.35 0.85 285.45 152.1 480.85 208.25 Z"/>
</g>

<g id="Layer1_2_MEMBER_0_MEMBER_2_FILL">
<path fill="#B88D59" stroke="none" d="
M 563.7 59.6
L 378.2 2.05 283.35 0.85 476.85 72.35 563.7 59.6 Z"/>
</g>

<g id="Layer1_2_MEMBER_0_MEMBER_3_FILL">
<path fill="#D3A365" stroke="none" d="
M 283.35 0.85
L 176.9 0 0 60.5 89 66.75 283.35 0.85 Z"/>
</g>

<g id="Layer1_2_MEMBER_1_FILL">
<path fill="#D3A365" stroke="none" d="
M 145.95 184.6
L 53.6 150.1 55.95 224.05 56.3 224.05 56.65 234.95 145.55 266.3 145.75 224.05 145.75 224.05 145.95 184.6 Z"/>
</g>

<g id="Layer1_2_MEMBER_2_FILL">
<path fill="#B88D59" stroke="none" d="
M 145.85 208.05
L 145.8 208.05 145.55 266.3 246.65 235 245.85 208.05 245.55 208.05 243.9 152.85 145.95 184.6 145.85 208.05 Z"/>
</g>

<g id="Layer1_2_MEMBER_3_FILL">
<path fill="#C1945D" stroke="none" d="
M 59.1 147.85
L 29.15 183 112.8 217.9 144.9 179.9 59.1 147.85 Z"/>
</g>

<g id="Layer1_2_MEMBER_4_FILL">
<path fill="#DBA869" stroke="none" d="
M 262.9 -59.55
L 190.7 -123 -9 -58.25 54.1 24.95 262.9 -59.55 Z"/>
</g>

<g id="Layer1_3_MEMBER_0_FILL">
<path fill="#33FFCC" stroke="none" d="
M 214.95 49.8
Q 214.95 41.8 206.95 41.8
L 99.2 41.8
Q 91.2 41.8 91.2 49.8
L 91.2 119.95
Q 91.2 127.95 99.2 127.95
L 206.95 127.95
Q 214.95 127.95 214.95 119.95
L 214.95 49.8 Z"/>
</g>

<g id="Layer1_3_MEMBER_1_MEMBER_0_MEMBER_0_FILL">
<path fill="#FFFF00" stroke="none" d="
M 10.8 227.2
L 10.8 233.25 238.25 233.25 238.25 227.2 10.8 227.2 Z"/>
</g>

<g id="Layer1_3_MEMBER_1_MEMBER_0_MEMBER_1_FILL">
<path fill="#FFFF00" stroke="none" d="
M 70.6 230.05
Q 70.6 222.4 65.2 217 59.75 211.6 52.1 211.6 44.45 211.6 39.05 217 33.65 222.4 33.65 230.05 33.65 237.7 39.05 243.15 44.45 248.55 52.1 248.55 59.75 248.55 65.2 243.15 70.6 237.7 70.6 230.05 Z"/>
</g>

<g id="Layer1_3_MEMBER_1_MEMBER_0_MEMBER_2_MEMBER_0_FILL">
<path fill="#5D6167" stroke="none" d="
M 168 161.7
Q 185.15 144.55 185.15 120.35 185.15 96.15 168 79 150.85 61.85 126.65 61.85 102.45 61.85 85.25 79 68.1 96.15 68.1 120.35 68.1 144.55 85.25 161.7 102.45 178.85 126.65 178.85 150.85 178.85 168 161.7
M 126.65 71.15
Q 147 71.15 161.4 85.55 175.85 100 175.85 120.35 175.85 140.7 161.4 155.15 147 169.55 126.65 169.55 106.3 169.55 91.85 155.15 77.4 140.7 77.4 120.35 77.4 100 91.85 85.55 106.3 71.15 126.65 71.15 Z"/>
</g>

<g id="Layer1_3_MEMBER_1_MEMBER_0_MEMBER_3_MEMBER_0_FILL">
<path fill="#5D6167" stroke="none" d="
M 107.7 82.25
L 107.7 157.65 164.4 119.95 107.7 82.25
M 117 140.3
L 117 99.55 147.6 119.95 117 140.3 Z"/>
</g>

<g id="Layer1_3_MEMBER_1_MEMBER_1_MEMBER_0_FILL">
<path fill="#5D6167" stroke="none" d="
M 253.1 47.5
Q 253.1 40.95 248.45 36.35 243.8 31.7 237.25 31.7
L 15.8 31.7
Q 9.3 31.7 4.65 36.35 0 41 0 47.5
L 0 192.35
Q 0 198.9 4.65 203.5 9.3 208.15 15.8 208.15
L 237.25 208.15
Q 243.8 208.15 248.45 203.5 253.1 198.9 253.1 192.35
L 253.1 47.5
M 237.25 41
Q 239.95 41 241.9 42.9 243.8 44.8 243.8 47.5
L 243.8 192.35
Q 243.8 195.05 241.9 196.95 239.95 198.85 237.25 198.85
L 15.8 198.85
Q 13.1 198.85 11.2 196.95 9.3 195.05 9.3 192.35
L 9.3 47.5
Q 9.3 44.8 11.2 42.9 13.1 41 15.8 41
L 237.25 41 Z"/>
</g>

<g id="Layer1_3_MEMBER_2_MEMBER_0_FILL">
<path fill="#5D6167" stroke="none" d="
M 219.1 23.15
Q 220.65 24.7 220.65 26.85
L 228.1 26.85
Q 228.1 21.6 224.4 17.9 220.7 14.15 215.45 14.15
L 37.8 14.15
Q 32.6 14.15 28.85 17.9 25.15 21.6 25.15 26.85
L 32.6 26.85
Q 32.6 24.7 34.15 23.15 35.65 21.6 37.8 21.6
L 215.45 21.6
Q 217.6 21.6 219.1 23.15 Z"/>
</g>

<g id="Layer1_3_MEMBER_3_MEMBER_0_FILL">
<path fill="#5D6167" stroke="none" d="
M 194.35 6.6
Q 195.5 7.75 195.5 9.3
L 200.95 9.3
Q 200.95 5.45 198.25 2.75 195.5 0 191.65 0
L 61.6 0
Q 57.75 0 55 2.75 52.3 5.45 52.3 9.3
L 57.75 9.3
Q 57.75 7.75 58.9 6.6 60 5.5 61.6 5.5
L 191.65 5.5
Q 193.25 5.5 194.35 6.6 Z"/>
</g>

<g id="Layer1_4_FILL">
<path fill="#D44040" stroke="none" d="
M 206.15 82.55
Q 210.15 71.15 207 56.15 202.8 36.05 183.05 27.65 171.1 22.55 156.4 22.55 146.9 22.55 139 24.6 130.25 26.85 122.5 32.85 114.8 38.85 110.2 46.95 106.75 53 105.8 59.2 104.85 65.4 106.5 70.9 107.6 74.6 105.45 77.95
L 102.15 82.7
Q 94.85 92.8 93.55 96.4 93.5 96.65 93.6 96.85 93.7 97.1 93.95 97.15 94.1 97.2 97.45 98.4
L 99.15 99.05
Q 103.55 100.45 104.85 107.05 105.6 111.05 105.45 121.25
L 105.45 125.7
Q 105.45 128.55 106.7 130 108.4 131.95 112.8 131.95 115.25 131.95 117.35 131.45 119.55 130.95 121.85 130.95 127.35 130.95 130.45 134.2 133.55 137.5 133.55 143.3
L 133.65 146.5
Q 133.85 148.05 135.2 148.55 139.05 150.05 144.65 151 151.3 152.15 158.45 152.15 174.4 152.15 190.15 146.55 187.15 140.6 186.05 135.45 184 126.3 186.4 116.9 187.55 112.6 190.3 108 192.05 105.15 195.95 99.9 203.8 89.35 206.15 82.55 Z"/>
</g>

<g id="Layer1_4_MEMBER_0_MEMBER_0_FILL">
<path fill="#FFFFFF" stroke="none" d="
M 766.05 686.7
L 768.4 688.3
Q 768.05 691.15 768.55 694.65
L 766.3 696.4
Q 764.8 697.6 765.35 698.85
L 768.4 705.7
Q 768.9 706.85 770.85 706.75
L 773.65 706.25
Q 775.95 708.95 778.25 710.65
L 777.9 713.45
Q 777.7 715.4 778.95 715.9
L 786.05 718.55
Q 786.55 718.85 787.2 718.55 787.8 718.25 788.45 717.5
L 790.15 715.25
Q 793.4 715.55 796.5 715.05
L 798.2 717.2
Q 799.5 718.8 800.65 718.25
L 807.5 715.25
Q 808.65 714.75 808.55 712.65
L 808.1 709.95
Q 810.6 707.8 812.5 705.35
L 815.25 705.65
Q 816.4 705.65 816.8 705.45 817.4 705.15 817.7 704.55
L 820.4 697.55
Q 820.9 696.3 819.3 695.15
L 816.95 693.55
Q 817.4 690.5 816.9 687.1
L 819.05 685.4
Q 820.55 684 820.05 682.85
L 817 676
Q 816.7 675.35 815.95 675.1 815.25 674.95 814.5 675.1
L 811.8 675.5
Q 809.65 673 807.1 671.15
L 807.45 668.35
Q 807.55 666.4 806.4 665.95
L 799.35 663.1
Q 798.8 663.05 798.15 663.25 797.35 663.65 796.95 664.2
L 795.3 666.55
Q 792.15 666.25 788.95 666.7
L 787.2 664.45
Q 785.8 663.05 784.65 663.55
L 777.8 666.6
Q 776.5 667.15 776.9 669.05
L 777.35 671.85
Q 775 673.8 772.95 676.45
L 770.15 676.05
Q 769.4 676 768.65 676.35 767.95 676.6 767.7 677.1
L 764.95 684.25
Q 764.55 685.2 766.05 686.7
M 797.35 668.05
L 799 665.8 804.95 668.1 804.85 668.15 804.5 670.8
Q 804.35 672.25 805.6 673.2 807.7 674.65 809.75 677.2 810.65 678.45 812.15 678.1
L 814.85 677.6 817.4 683.4 815.25 685.1
Q 814.05 686 814.3 687.5 814.8 690.3 814.45 693.25 814.3 694.7 815.45 695.55
L 817.85 697.2 815.55 703.1 815.4 703.15 812.7 702.7
Q 812.2 702.65 811.4 702.9 810.7 703.25 810.4 703.75 808.8 706.05 806.45 707.9 805.2 708.9 805.5 710.35
L 805.95 713.05 805.95 713.15 800.15 715.7 798.4 713.45
Q 797.55 712.3 796.1 712.45 793 713 790.35 712.6 789.5 712.6 789.05 712.8 788.35 713.15 787.95 713.7
L 786.45 716 780.5 713.7 780.8 710.9
Q 780.95 709.5 779.75 708.6 777.75 707.05 775.6 704.65 774.7 703.45 773.2 703.7
L 770.45 704.15 767.9 698.35 770.1 696.75
Q 771.3 695.8 771.05 694.3 770.65 691.1 770.9 688.55 771.05 687.1 769.8 686.15
L 767.6 684.6 769.9 678.65 772.6 679
Q 773.45 679 774 678.75 774.6 678.45 775 677.9 776.3 676.1 778.95 673.75 780.05 672.9 779.8 671.4
L 779.35 668.7 785.15 666.1 786.9 668.25
Q 787.8 669.45 789.3 669.2 792.6 668.85 795.05 669.05 795.65 669.2 796.35 668.85 797.05 668.6 797.35 668.05
M 787.5 679.1
Q 782.6 681.25 780.7 686.2 778.75 691.2 780.9 696.1 783.05 700.95 788 702.85 793 704.75 797.9 702.6 802.75 700.45 804.65 695.5 806.55 690.55 804.45 685.7 802.3 680.8 797.3 678.9 792.35 676.95 787.5 679.1
M 783.15 687.2
Q 784.7 683.25 788.55 681.5 792.45 679.8 796.4 681.3 800.4 682.85 802.1 686.75 803.85 690.6 802.3 694.6 800.75 698.55 796.9 700.25 793 701.95 789.05 700.45 785.1 698.9 783.35 695.05 781.65 691.15 783.15 687.2 Z"/>
</g>

<g id="Layer1_4_MEMBER_0_MEMBER_1_FILL">
<path fill="#FFFFFF" stroke="none" d="
M 768.25 675.45
Q 767.15 675.95 766.8 676.75
L 764.05 683.9
Q 763.45 685.45 765.35 687.35
L 767.35 688.75
Q 767.2 691.45 767.5 694.25
L 765.7 695.65
Q 764.75 696.4 764.4 697.35 764.05 698.3 764.45 699.2
L 767.5 706.1
Q 768.25 707.8 770.9 707.7
L 773.3 707.3
Q 775.15 709.45 777.25 711.05
L 776.9 713.35
Q 776.8 714.45 777.15 715.35 777.6 716.4 778.6 716.8
L 785.65 719.4
Q 785.95 719.65 786.6 719.65 787.15 719.65 787.6 719.45 788.45 719.05 789.25 718.05
L 790.6 716.25
Q 793.35 716.5 796.05 716.1
L 797.45 717.8
Q 799.15 719.95 801.05 719.15
L 807.9 716.1
Q 809.65 715.35 809.5 712.6
L 809.15 710.3
Q 811.3 708.45 812.9 706.35
L 815.2 706.6
Q 816.4 706.65 817.2 706.35 818.25 705.85 818.6 704.9
L 821.3 697.9
Q 821.7 696.9 821.2 695.85 820.75 695 819.85 694.35
L 818 693.05
Q 818.3 690.3 817.95 687.55
L 819.65 686.2 819.75 686.1
Q 821.7 684.15 820.95 682.45
L 817.9 675.6
Q 817 673.7 814.3 674.15
L 812.15 674.5
Q 810.35 672.3 808.1 670.7
L 808.4 668.5 808.45 668.4
Q 808.55 665.75 806.75 665.05
L 799.7 662.2 799.5 662.15
Q 798.65 662 797.75 662.4 796.8 662.75 796.2 663.6
L 794.85 665.55
Q 792.25 665.35 789.4 665.65
L 788 663.85 787.9 663.75
Q 785.95 661.9 784.3 662.7
L 777.45 665.7
Q 775.5 666.55 775.9 669.2
L 776.3 671.45
Q 774.15 673.3 772.55 675.4
L 770.3 675.1 770.2 675.05
Q 769.2 675.05 768.25 675.45
M 768.6 677.5
L 769 677.2
Q 769.45 677 770.05 677
L 773.4 677.45 773.75 677
Q 775.7 674.45 778 672.6
L 778.4 672.25 777.85 668.85
Q 777.65 667.75 778.2 667.45
L 785.05 664.45
Q 785.65 664.25 786.5 665.1
L 788.55 667.75 789.1 667.65
Q 792.2 667.2 795.25 667.5
L 795.8 667.55 797.7 664.75
Q 798.1 664.35 798.55 664.15
L 799.1 664.05 806.05 666.85
Q 806.4 667 806.5 667.65
L 798.7 664.6 796.6 667.45 796.55 667.5
Q 796.45 667.7 795.95 668 795.5 668.2 795.2 668.1
L 795.1 668.1
Q 792.35 667.9 789.15 668.25 788.2 668.4 787.65 667.65
L 785.45 664.95 778.3 668.1 778.85 671.55
Q 779 672.45 778.35 673.05 775.9 675.15 774.25 677.3 773.95 677.7 773.6 677.85 773.25 678.05 772.65 678.05
L 769.3 677.6 766.45 684.95 769.25 686.9
Q 770.05 687.5 769.95 688.45 769.65 690.95 770.1 694.45 770.25 695.4 769.55 695.95
L 766.7 698 769.9 705.2 773.35 704.65
Q 774.3 704.5 774.9 705.25 776.9 707.55 779.2 709.4 779.95 709.9 779.8 710.8
L 779.45 714.35 786.8 717.15 788.7 714.25
Q 789.1 713.85 789.45 713.7 789.85 713.55 790.25 713.55 793.05 714 796.25 713.4 797.1 713.3 797.65 714.05
L 799.9 716.9 807.25 713.65 806.85 712.75 806.45 710.15
Q 806.3 709.2 807 708.65 809.35 706.85 811.2 704.25 811.4 703.95 811.8 703.8
L 812.55 703.65 815.55 704.15 816.3 703.85 819 696.8 816.05 694.8
Q 815.3 694.3 815.4 693.35 815.75 690.4 815.25 687.35 815.1 686.4 815.85 685.85
L 818.6 683.65 815.4 676.5 812 677.15
Q 811.05 677.3 810.5 676.6 808.25 673.75 806.15 672.45 805.35 671.85 805.45 670.9
L 805.75 668.8 806.5 668.45 806.05 671.65 806.55 671.95
Q 809.1 673.8 811.05 676.15
L 811.4 676.55 814.65 676.05
Q 814.8 675.95 815.35 676 816 676.05 816.15 676.35
L 819.15 683.2
Q 819.4 683.7 818.4 684.7
L 815.85 686.7 815.95 687.25
Q 816.4 690.7 816 693.4
L 815.95 694 818.75 695.9
Q 819.75 696.65 819.5 697.2
L 816.8 704.2
Q 816.7 704.45 816.4 704.55 816.15 704.7 815.35 704.65
L 812.05 704.35 811.7 704.75
Q 809.95 707.2 807.45 709.2
L 807.05 709.55 807.55 712.75
Q 807.65 714.1 807.15 714.35
L 800.3 717.35
Q 799.9 717.55 798.95 716.6
L 796.9 714.05 796.35 714.1
Q 793.25 714.55 790.25 714.25
L 789.7 714.2 787.75 716.85
Q 787.15 717.55 786.8 717.65
L 786.55 717.75 779.3 715
Q 778.75 714.8 778.85 713.6
L 779.3 710.2 778.85 709.85
Q 776.4 708 774.4 705.65
L 774.05 705.2 770.75 705.75
Q 769.6 705.85 769.25 705.3
L 766.25 698.45
Q 766 697.9 766.9 697.15
L 769.6 695.05 769.5 694.5
Q 769.05 691.4 769.35 688.4
L 769.4 687.8 766.65 685.95
Q 765.7 685 765.85 684.6
L 768.6 677.5
M 786.1 668.85
Q 787.4 670.5 789.4 670.15 792.35 669.85 794.95 670 795.8 670.15 796.75 669.75 797.65 669.4 798.15 668.6
L 799.35 666.95 803.8 668.65 803.55 670.7
Q 803.3 672.7 805.05 674.05 807.05 675.3 808.95 677.75 810.25 679.45 812.35 679.05
L 814.25 678.7 816.2 683.1 814.65 684.3
Q 813.05 685.6 813.35 687.7 813.8 690.45 813.5 693.15 813.25 695.2 814.95 696.35
L 816.65 697.55 814.9 702.1 812.9 701.75
Q 812 701.6 811 702.05 810.1 702.4 809.6 703.2 808.05 705.4 805.85 707.15 804.15 708.45 804.55 710.5
L 804.85 712.55 800.45 714.5 799.2 712.85
Q 797.9 711.25 795.95 711.5 792.95 712.05 790.5 711.65
L 790.4 711.65
Q 789.45 711.55 788.65 711.9 787.8 712.3 787.2 713.05
L 786.05 714.8 781.55 713.05 781.75 711
Q 782 709.05 780.35 707.85 778.25 706.2 776.35 704.05 775.05 702.35 773 702.75
L 771.05 703.05 769.1 698.65 770.7 697.5
Q 772.35 696.25 772 694.2 771.65 690.95 771.85 688.65 771.95 687.7 771.55 686.8 771.15 685.9 770.4 685.35
L 768.8 684.25 770.55 679.7 772.45 679.95 772.55 679.95
Q 773.55 680.05 774.4 679.65 775.05 679.3 775.8 678.5 777.1 676.7 779.6 674.5 780.3 673.95 780.65 673.05 780.95 672.15 780.75 671.25
L 780.45 669.25 784.9 667.3 786.1 668.85
M 787.1 678.2
Q 781.85 680.55 779.8 685.9 777.75 691.25 780.05 696.5 781.7 700.25 785.2 702.5 788.6 704.65 792.65 704.65 795.7 704.65 798.3 703.45 803.45 701.2 805.55 695.85 807.65 690.5 805.3 685.3 802.9 680 797.65 678 792.25 675.9 787.1 678.2
M 781.6 686.55
Q 783.35 681.95 787.9 679.95 790.2 678.95 792.65 678.95 794.7 678.95 796.95 679.75 801.55 681.6 803.55 686.1 805.55 690.55 803.75 695.15 802 699.7 797.5 701.7 793 703.7 788.4 701.95 783.8 700.2 781.8 695.7 779.8 691.2 781.6 686.55
M 788.2 680.6
Q 783.95 682.45 782.25 686.85 780.55 691.15 782.45 695.45 784.3 699.6 788.7 701.35 790.65 702.1 792.75 702.1 795.15 702.1 797.25 701.15 801.5 699.3 803.2 694.95 804.85 690.55 803 686.35 801.1 682.1 796.8 680.4 792.45 678.75 788.2 680.6
M 784.05 687.55
Q 785.45 683.95 788.95 682.4 790.75 681.6 792.7 681.6 795.45 681.6 797.75 683.05 800.1 684.55 801.25 687.15 802.8 690.6 801.4 694.25 800 697.85 796.5 699.4 792.95 700.95 789.4 699.55 785.85 698.2 784.2 694.65 782.65 691.15 784.05 687.55 Z"/>
</g>

<g id="Layer1_4_MEMBER_1_MEMBER_0_FILL">
<path fill="#FFFFFF" stroke="none" d="
M 766.05 686.7
L 768.4 688.3
Q 768.05 691.15 768.55 694.65
L 766.3 696.4
Q 764.8 697.6 765.35 698.85
L 768.4 705.7
Q 768.9 706.85 770.85 706.75
L 773.65 706.25
Q 775.95 708.95 778.25 710.65
L 777.9 713.45
Q 777.7 715.4 778.95 715.9
L 786.05 718.55
Q 786.55 718.85 787.2 718.55 787.8 718.25 788.45 717.5
L 790.15 715.25
Q 793.4 715.55 796.5 715.05
L 798.2 717.2
Q 799.5 718.8 800.65 718.25
L 807.5 715.25
Q 808.65 714.75 808.55 712.65
L 808.1 709.95
Q 810.6 707.8 812.5 705.35
L 815.25 705.65
Q 816.4 705.65 816.8 705.45 817.4 705.15 817.7 704.55
L 820.4 697.55
Q 820.9 696.3 819.3 695.15
L 816.95 693.55
Q 817.4 690.5 816.9 687.1
L 819.05 685.4
Q 820.55 684 820.05 682.85
L 817 676
Q 816.7 675.35 815.95 675.1 815.25 674.95 814.5 675.1
L 811.8 675.5
Q 809.65 673 807.1 671.15
L 807.45 668.35
Q 807.55 666.4 806.4 665.95
L 799.35 663.1
Q 798.8 663.05 798.15 663.25 797.35 663.65 796.95 664.2
L 795.3 666.55
Q 792.15 666.25 788.95 666.7
L 787.2 664.45
Q 785.8 663.05 784.65 663.55
L 777.8 666.6
Q 776.5 667.15 776.9 669.05
L 777.35 671.85
Q 775 673.8 772.95 676.45
L 770.15 676.05
Q 769.4 676 768.65 676.35 767.95 676.6 767.7 677.1
L 764.95 684.25
Q 764.55 685.2 766.05 686.7
M 804.95 668.1
L 804.85 668.15 804.5 670.8
Q 804.35 672.25 805.6 673.2 807.7 674.65 809.75 677.2 810.65 678.45 812.15 678.1
L 814.85 677.6 817.4 683.4 815.25 685.1
Q 814.05 686 814.3 687.5 814.8 690.3 814.45 693.25 814.3 694.7 815.45 695.55
L 817.85 697.2 815.55 703.1 815.4 703.15 812.7 702.7
Q 812.2 702.65 811.4 702.9 810.7 703.25 810.4 703.75 808.8 706.05 806.45 707.9 805.2 708.9 805.5 710.35
L 805.95 713.05 805.95 713.15 800.15 715.7 798.4 713.45
Q 797.55 712.3 796.1 712.45 793 713 790.35 712.6 789.5 712.6 789.05 712.8 788.35 713.15 787.95 713.7
L 786.45 716 780.5 713.7 780.8 710.9
Q 780.95 709.5 779.75 708.6 777.75 707.05 775.6 704.65 774.7 703.45 773.2 703.7
L 770.45 704.15 767.9 698.35 770.1 696.75
Q 771.3 695.8 771.05 694.3 770.65 691.1 770.9 688.55 771.05 687.1 769.8 686.15
L 767.6 684.6 769.9 678.65 772.6 679
Q 773.45 679 774 678.75 774.6 678.45 775 677.9 776.3 676.1 778.95 673.75 780.05 672.9 779.8 671.4
L 779.35 668.7 785.15 666.1 786.9 668.25
Q 787.8 669.45 789.3 669.2 792.6 668.85 795.05 669.05 795.65 669.2 796.35 668.85 797.05 668.6 797.35 668.05
L 799 665.8 804.95 668.1
M 787.5 679.1
Q 782.6 681.25 780.7 686.2 778.75 691.2 780.9 696.1 783.05 700.95 788 702.85 793 704.75 797.9 702.6 802.75 700.45 804.65 695.5 806.55 690.55 804.45 685.7 802.3 680.8 797.3 678.9 792.35 676.95 787.5 679.1
M 783.15 687.2
Q 784.7 683.25 788.55 681.5 792.45 679.8 796.4 681.3 800.4 682.85 802.1 686.75 803.85 690.6 802.3 694.6 800.75 698.55 796.9 700.25 793 701.95 789.05 700.45 785.1 698.9 783.35 695.05 781.65 691.15 783.15 687.2 Z"/>
</g>

<g id="Layer1_4_MEMBER_1_MEMBER_1_FILL">
<path fill="#FFFFFF" stroke="none" d="
M 768.25 675.45
Q 767.15 675.95 766.8 676.75
L 764.05 683.9
Q 763.45 685.45 765.35 687.35
L 767.35 688.75
Q 767.2 691.45 767.5 694.25
L 765.7 695.65
Q 764.75 696.4 764.4 697.35 764.05 698.3 764.45 699.2
L 767.5 706.1
Q 768.25 707.8 770.9 707.7
L 773.3 707.3
Q 775.15 709.45 777.25 711.05
L 776.9 713.35
Q 776.8 714.45 777.15 715.35 777.6 716.4 778.6 716.8
L 785.65 719.4
Q 785.95 719.65 786.6 719.65 787.15 719.65 787.6 719.45 788.45 719.05 789.25 718.05
L 790.6 716.25
Q 793.35 716.5 796.05 716.1
L 797.45 717.8
Q 799.15 719.95 801.05 719.15
L 807.9 716.1
Q 809.65 715.35 809.5 712.6
L 809.15 710.3
Q 811.3 708.45 812.9 706.35
L 815.2 706.6
Q 816.4 706.65 817.2 706.35 818.25 705.85 818.6 704.9
L 821.3 697.9
Q 821.7 696.9 821.2 695.85 820.75 695 819.85 694.35
L 818 693.05
Q 818.3 690.3 817.95 687.55
L 819.65 686.2 819.75 686.1
Q 821.7 684.15 820.95 682.45
L 817.9 675.6
Q 817 673.7 814.3 674.15
L 812.15 674.5
Q 810.35 672.3 808.1 670.7
L 808.4 668.5 808.45 668.4
Q 808.55 665.75 806.75 665.05
L 799.7 662.2 799.5 662.15
Q 798.65 662 797.75 662.4 796.8 662.75 796.2 663.6
L 794.85 665.55
Q 792.25 665.35 789.4 665.65
L 788 663.85 787.9 663.75
Q 785.95 661.9 784.3 662.7
L 777.45 665.7
Q 775.5 666.55 775.9 669.2
L 776.3 671.45
Q 774.15 673.3 772.55 675.4
L 770.3 675.1 770.2 675.05
Q 769.2 675.05 768.25 675.45
M 768.6 677.5
L 769 677.2
Q 769.45 677 770.05 677
L 773.4 677.45 773.75 677
Q 775.7 674.45 778 672.6
L 778.4 672.25 777.85 668.85
Q 777.65 667.75 778.2 667.45
L 785.05 664.45
Q 785.65 664.25 786.5 665.1
L 788.55 667.75 789.1 667.65
Q 792.2 667.2 795.25 667.5
L 795.8 667.55 797.7 664.75
Q 798.1 664.35 798.55 664.15
L 799.1 664.05 806.05 666.85
Q 806.4 667 806.5 667.65
L 798.7 664.6 796.6 667.45 796.55 667.5
Q 796.45 667.7 795.95 668 795.5 668.2 795.2 668.1
L 795.1 668.1
Q 792.35 667.9 789.15 668.25 788.2 668.4 787.65 667.65
L 785.45 664.95 778.3 668.1 778.85 671.55
Q 779 672.45 778.35 673.05 775.9 675.15 774.25 677.3 773.95 677.7 773.6 677.85 773.25 678.05 772.65 678.05
L 769.3 677.6 766.45 684.95 769.25 686.9
Q 770.05 687.5 769.95 688.45 769.65 690.95 770.1 694.45 770.25 695.4 769.55 695.95
L 766.7 698 769.9 705.2 773.35 704.65
Q 774.3 704.5 774.9 705.25 776.9 707.55 779.2 709.4 779.95 709.9 779.8 710.8
L 779.45 714.35 786.8 717.15 788.7 714.25
Q 789.1 713.85 789.45 713.7 789.85 713.55 790.25 713.55 793.05 714 796.25 713.4 797.1 713.3 797.65 714.05
L 799.9 716.9 807.25 713.65 806.85 712.75 806.45 710.15
Q 806.3 709.2 807 708.65 809.35 706.85 811.2 704.25 811.4 703.95 811.8 703.8
L 812.55 703.65 815.55 704.15 816.3 703.85 819 696.8 816.05 694.8
Q 815.3 694.3 815.4 693.35 815.75 690.4 815.25 687.35 815.1 686.4 815.85 685.85
L 818.6 683.65 815.4 676.5 812 677.15
Q 811.05 677.3 810.5 676.6 808.25 673.75 806.15 672.45 805.35 671.85 805.45 670.9
L 805.75 668.8 806.5 668.45 806.05 671.65 806.55 671.95
Q 809.1 673.8 811.05 676.15
L 811.4 676.55 814.65 676.05
Q 814.8 675.95 815.35 676 816 676.05 816.15 676.35
L 819.15 683.2
Q 819.4 683.7 818.4 684.7
L 815.85 686.7 815.95 687.25
Q 816.4 690.7 816 693.4
L 815.95 694 818.75 695.9
Q 819.75 696.65 819.5 697.2
L 816.8 704.2
Q 816.7 704.45 816.4 704.55 816.15 704.7 815.35 704.65
L 812.05 704.35 811.7 704.75
Q 809.95 707.2 807.45 709.2
L 807.05 709.55 807.55 712.75
Q 807.65 714.1 807.15 714.35
L 800.3 717.35
Q 799.9 717.55 798.95 716.6
L 796.9 714.05 796.35 714.1
Q 793.25 714.55 790.25 714.25
L 789.7 714.2 787.75 716.85
Q 787.15 717.55 786.8 717.65
L 786.55 717.75 779.3 715
Q 778.75 714.8 778.85 713.6
L 779.3 710.2 778.85 709.85
Q 776.4 708 774.4 705.65
L 774.05 705.2 770.75 705.75
Q 769.6 705.85 769.25 705.3
L 766.25 698.45
Q 766 697.9 766.9 697.15
L 769.6 695.05 769.5 694.5
Q 769.05 691.4 769.35 688.4
L 769.4 687.8 766.65 685.95
Q 765.7 685 765.85 684.6
L 768.6 677.5
M 780.65 673.05
Q 780.95 672.15 780.75 671.25
L 780.45 669.25 784.9 667.3 786.1 668.85
Q 787.4 670.5 789.4 670.15 792.35 669.85 794.95 670 795.8 670.15 796.75 669.75 797.65 669.4 798.15 668.6
L 799.35 666.95 803.8 668.65 803.55 670.7
Q 803.3 672.7 805.05 674.05 807.05 675.3 808.95 677.75 810.25 679.45 812.35 679.05
L 814.25 678.7 816.2 683.1 814.65 684.3
Q 813.05 685.6 813.35 687.7 813.8 690.45 813.5 693.15 813.25 695.2 814.95 696.35
L 816.65 697.55 814.9 702.1 812.9 701.75
Q 812 701.6 811 702.05 810.1 702.4 809.6 703.2 808.05 705.4 805.85 707.15 804.15 708.45 804.55 710.5
L 804.85 712.55 800.45 714.5 799.2 712.85
Q 797.9 711.25 795.95 711.5 792.95 712.05 790.5 711.65
L 790.4 711.65
Q 789.45 711.55 788.65 711.9 787.8 712.3 787.2 713.05
L 786.05 714.8 781.55 713.05 781.75 711
Q 782 709.05 780.35 707.85 778.25 706.2 776.35 704.05 775.05 702.35 773 702.75
L 771.05 703.05 769.1 698.65 770.7 697.5
Q 772.35 696.25 772 694.2 771.65 690.95 771.85 688.65 771.95 687.7 771.55 686.8 771.15 685.9 770.4 685.35
L 768.8 684.25 770.55 679.7 772.45 679.95 772.55 679.95
Q 773.55 680.05 774.4 679.65 775.05 679.3 775.8 678.5 777.1 676.7 779.6 674.5 780.3 673.95 780.65 673.05
M 787.1 678.2
Q 781.85 680.55 779.8 685.9 777.75 691.25 780.05 696.5 781.7 700.25 785.2 702.5 788.6 704.65 792.65 704.65 795.7 704.65 798.3 703.45 803.45 701.2 805.55 695.85 807.65 690.5 805.3 685.3 802.9 680 797.65 678 792.25 675.9 787.1 678.2
M 781.6 686.55
Q 783.35 681.95 787.9 679.95 790.2 678.95 792.65 678.95 794.7 678.95 796.95 679.75 801.55 681.6 803.55 686.1 805.55 690.55 803.75 695.15 802 699.7 797.5 701.7 793 703.7 788.4 701.95 783.8 700.2 781.8 695.7 779.8 691.2 781.6 686.55
M 788.2 680.6
Q 783.95 682.45 782.25 686.85 780.55 691.15 782.45 695.45 784.3 699.6 788.7 701.35 790.65 702.1 792.75 702.1 795.15 702.1 797.25 701.15 801.5 699.3 803.2 694.95 804.85 690.55 803 686.35 801.1 682.1 796.8 680.4 792.45 678.75 788.2 680.6
M 784.05 687.55
Q 785.45 683.95 788.95 682.4 790.75 681.6 792.7 681.6 795.45 681.6 797.75 683.05 800.1 684.55 801.25 687.15 802.8 690.6 801.4 694.25 800 697.85 796.5 699.4 792.95 700.95 789.4 699.55 785.85 698.2 784.2 694.65 782.65 691.15 784.05 687.55 Z"/>
</g>

<path id="Layer1_3_MEMBER_0_1_STROKES" stroke="#FFFFFF" stroke-width="1" stroke-linejoin="round" stroke-linecap="round" fill="none" d="
M 99.2 41.8
L 206.95 41.8
Q 214.95 41.8 214.95 49.8
L 214.95 119.95
Q 214.95 127.95 206.95 127.95
L 99.2 127.95
Q 91.2 127.95 91.2 119.95
L 91.2 49.8
Q 91.2 41.8 99.2 41.8 Z"/>
</defs>

<g transform="matrix( 1, 0, 0, 1, 328.95,-51.05) ">
<use xlink:href="#Layer1_0_FILL"/>
</g>

<g transform="matrix( 1, 0, 0, 1, -348.95,-36.85) ">
<use xlink:href="#Layer1_1_MEMBER_0_FILL"/>
</g>

<g transform="matrix( 1, 0, 0, 1, -348.05,-35.95) ">
<use xlink:href="#Layer1_1_MEMBER_0_MEMBER_0_MEMBER_0_FILL"/>
</g>

<g transform="matrix( 0.595733642578125, 0, 0, 0.595733642578125, -271.45,0) ">
<use xlink:href="#Layer1_1_MEMBER_0_MEMBER_1_FILL"/>
</g>

<g transform="matrix( 0.595733642578125, 0, 0, 0.595733642578125, -271.45,0) ">
<use xlink:href="#Layer1_1_MEMBER_0_MEMBER_2_FILL"/>
</g>

<g transform="matrix( 0.595733642578125, 0, 0, 0.595733642578125, -271.45,0) ">
<use xlink:href="#Layer1_1_MEMBER_0_MEMBER_3_FILL"/>
</g>

<g transform="matrix( 0.595733642578125, 0, 0, 0.595733642578125, -271.45,0) ">
<use xlink:href="#Layer1_1_MEMBER_0_MEMBER_4_FILL"/>
</g>

<g transform="matrix( 0.595733642578125, 0, 0, 0.595733642578125, -271.45,0) ">
<use xlink:href="#Layer1_1_MEMBER_0_MEMBER_5_FILL"/>
</g>

<g transform="matrix( 1, 0, 0, 1, 0,0) ">
<use xlink:href="#Layer1_2_FILL"/>
</g>

<g transform="matrix( 0.490509033203125, 0, 0, 0.490509033203125, 11.3,126.15) ">
<use xlink:href="#Layer1_2_MEMBER_0_MEMBER_0_FILL"/>
</g>

<g transform="matrix( 0.490509033203125, 0, 0, 0.490509033203125, 10.05,126.15) ">
<use xlink:href="#Layer1_2_MEMBER_0_MEMBER_1_FILL"/>
</g>

<g transform="matrix( 0.490509033203125, 0, 0, 0.490509033203125, 9.3,126.15) ">
<use xlink:href="#Layer1_2_MEMBER_0_MEMBER_2_FILL"/>
</g>

<g transform="matrix( 0.490509033203125, 0, 0, 0.490509033203125, 11.3,126.15) ">
<use xlink:href="#Layer1_2_MEMBER_0_MEMBER_3_FILL"/>
</g>

<g transform="matrix( 1, 0, 0, 1, 1,10) ">
<use xlink:href="#Layer1_2_MEMBER_1_FILL"/>
</g>

<g transform="matrix( 1, 0, 0, 1, 1,10) ">
<use xlink:href="#Layer1_2_MEMBER_2_FILL"/>
</g>

<g transform="matrix( 1.07635498046875, 0, 0, 1.07635498046875, -8.9,1.05) ">
<use xlink:href="#Layer1_2_MEMBER_3_FILL"/>
</g>

<g transform="matrix( 0.4907379150390625, 0, 0, 0.4907379150390625, 151.4,223.2) ">
<use xlink:href="#Layer1_2_MEMBER_4_FILL"/>
</g>

<g transform="matrix( 1, 0, 0, 1, 360.2,166.3) ">
<use xlink:href="#Layer1_3_MEMBER_0_FILL"/>

<use xlink:href="#Layer1_3_MEMBER_0_1_STROKES"/>
</g>

<g transform="matrix( 0.5199737548828125, 0, 0, 0.5199737548828125, 447.8,188.75) ">
<use xlink:href="#Layer1_3_MEMBER_1_MEMBER_0_MEMBER_0_FILL"/>
</g>

<g transform="matrix( 0.5199737548828125, 0, 0, 0.5199737548828125, 447.8,188.75) ">
<use xlink:href="#Layer1_3_MEMBER_1_MEMBER_0_MEMBER_1_FILL"/>
</g>

<g transform="matrix( 0.5199737548828125, 0, 0, 0.5199737548828125, 447.8,188.75) ">
<use xlink:href="#Layer1_3_MEMBER_1_MEMBER_0_MEMBER_2_MEMBER_0_FILL"/>
</g>

<g transform="matrix( 0.5199737548828125, 0, 0, 0.5199737548828125, 447.8,188.75) ">
<use xlink:href="#Layer1_3_MEMBER_1_MEMBER_0_MEMBER_3_MEMBER_0_FILL"/>
</g>

<g transform="matrix( 0.5199737548828125, 0, 0, 0.5199737548828125, 447.8,188.75) ">
<use xlink:href="#Layer1_3_MEMBER_1_MEMBER_1_MEMBER_0_FILL"/>
</g>

<g transform="matrix( 0.5199737548828125, 0, 0, 0.5199737548828125, 447.8,188.75) ">
<use xlink:href="#Layer1_3_MEMBER_2_MEMBER_0_FILL"/>
</g>

<g transform="matrix( 0.5199737548828125, 0, 0, 0.5199737548828125, 447.8,188.75) ">
<use xlink:href="#Layer1_3_MEMBER_3_MEMBER_0_FILL"/>
</g>

<g transform="matrix( 1, 0, 0, 1, 0,0) ">
<use xlink:href="#Layer1_4_FILL"/>
</g>

<g transform="matrix( 0.8001556396484375, 0, 0, 0.8001556396484375, -485.35,-496.2) ">
<use xlink:href="#Layer1_4_MEMBER_0_MEMBER_0_FILL"/>
</g>

<g transform="matrix( 0.8001556396484375, 0, 0, 0.8001556396484375, -485.35,-496.2) ">
<use xlink:href="#Layer1_4_MEMBER_0_MEMBER_1_FILL"/>
</g>

<g transform="matrix( 0.4598236083984375, 0, 0, 0.4598236083984375, -188.75,-233.7) ">
<use xlink:href="#Layer1_4_MEMBER_1_MEMBER_0_FILL"/>
</g>

<g transform="matrix( 0.4598236083984375, 0, 0, 0.4598236083984375, -188.75,-233.7) ">
<use xlink:href="#Layer1_4_MEMBER_1_MEMBER_1_FILL"/>
</g>
</svg>
