<?xml version="1.0" encoding="utf-8"?>
<!-- Generator: Adobe Illustrator 21.0.0, SVG Export Plug-In . SVG Version: 6.00 Build 0)  -->
<svg version="1.1" xmlns="http://www.w3.org/2000/svg" xmlns:xlink="http://www.w3.org/1999/xlink" x="0px" y="0px"
	 viewBox="0 0 396.9 233.1" style="enable-background:new 0 0 396.9 233.1;" xml:space="preserve">
<style type="text/css">
	.st0{fill:#69C2D4;}
	.st1{fill:#60AEDC;}
	.st2{fill:#848DEA;}
	.st3{fill:#F0EBE6;}
	.st4{fill:#72B2A2;}
	.st5{opacity:0.5;fill:#72B2A2;}
	.st6{fill:#FE6B80;}
	.st7{opacity:0.5;fill:#FE6B80;}
	.st8{fill:#F3B989;}
	.st9{fill:#F3AF77;}
	.st10{fill:#F7B690;}
	.st11{fill-rule:evenodd;clip-rule:evenodd;fill:#0A3C5F;}
	.st12{fill:#F4A086;}
	.st13{fill:#255880;}
	.st14{fill:#2D6C9C;}
	.st15{fill-rule:evenodd;clip-rule:evenodd;fill:#5AA3E7;}
	.st16{fill-rule:evenodd;clip-rule:evenodd;fill:#5FADDD;}
	.st17{fill:#3C79A6;}
	.st18{fill:#A2D1EB;}
</style>
<g id="Layer_1">
	<g>
		<path class="st0" d="M324.6,138.8c0.6-2.7,2-5.1,2.7-7.7c0.8-2.6,0.9-5.7-0.8-7.8c-3-4-9.7-2.6-13.7-5.8c-2.8-2.2-3.5-6.2-3-9.7
			c0.5-3.5,2.1-6.7,3.2-10.1c2.7-8.3,2.4-17.5-0.8-25.6c3.6,1.9,7.3,3.8,10.4,6.6c3,2.7,5.5,6.4,5.8,10.5c0.2,2.5-0.3,5.1,1,7.3
			c1.9,3.3,6.9,3.5,9.4,6.4c2.3,2.6,8.5,29.9,7.7,32.2c-0.9,2.5-3.9,3.6-5.2,5.9c-1.3,2.1,3.1,6.5,3.7,8.9c1.7,6.8-3.6,12-11.5,6.9
			C327.6,152.8,322.9,146.2,324.6,138.8z"/>
		<path class="st1" d="M335.3,139.7c-1.1-3.8-1.5-8,0.1-11.7c1.7-3.7,5.3-6.5,6.2-10.5c1.7-7.8-7.8-14.5-6.7-22.3
			c0.5-3.8,3.5-6.8,5.1-10.4c1.6-3.7,1.6-7.9,0.8-11.9c-0.7-4-2.2-7.8-3.3-11.6c-0.9-2.9-1.5-6-0.7-8.9c0.9-2.9,3.8-5.4,6.8-4.7
			c-0.8,5.4,2.5,10.5,5.6,15c3.1,4.5,6.2,9.9,4.6,15.2c-1.1,3.9-4.6,7.1-4.4,11.1c0.2,3.6,3.4,6.2,6.2,8.4c2.8,2.2,5.9,5,5.9,8.6
			c0,4.8-5.5,8.2-5.8,12.9c-0.3,4.4,4,7.9,4.7,12.3c0.7,4.3-2.2,8.3-5.1,11.7s-6,7-5.9,11.4c0,2,0.7,4.5-0.9,5.8
			c-4.2,3.6-5.6-4.3-6.4-6.4C340.4,148.8,336.8,145,335.3,139.7z"/>
		<path class="st2" d="M349.3,139.4c2.3-1.8,4.3-18.6,3.1-22.9c-0.7-2.5,0.5-5.2,2.1-7.3c1.7-2,3.8-3.7,5.5-5.7
			c4.8-5.7,3.6-16.8,10.6-22.9c-0.1,5.2,2.4,13,3.8,15.6c1.4,2.6,1.9,6,0.1,8.3c-1.9,2.4-5.6,2.7-7.7,4.9c-1.9,2-2.2,5.1-1.5,7.8
			c0.6,2.7,2,5.1,3,7.7c3.3,9,1.1,19.8-5.6,26.7c-1.4,1.4-3,2.8-4.1,4.5c-1.3,2.2-0.6,3.5-2.8,4.5c-2.5,1.1-6.9,0.9-9.1-0.8
			C340.3,155,344.3,143.3,349.3,139.4z"/>
		<polygon class="st3" points="358.5,198.7 330.7,198.7 325,161 364.2,161 		"/>
		<path class="st3" d="M365.8,161h-42.5c-1.7,0-3.1-1.4-3.1-3.1l0,0c0-1.7,1.4-3.1,3.1-3.1h42.5c1.7,0,3.1,1.4,3.1,3.1l0,0
			C368.9,159.6,367.5,161,365.8,161z"/>
	</g>
	<g>
		<path class="st4" d="M173.7,83.4c-17.9-9.1-39.3-9.1-55.8,3.2s-26.9,53.9-24.4,77c0.4,3.8,7.2,35,28.7,35h62.1
			C253.6,198.7,208.5,101,173.7,83.4z"/>
		<path class="st5" d="M170.4,89.2c-11.3-4.8-24.7-4.8-35,1.7c-10.4,6.5-16.9,28.5-15.3,40.7c0.3,2,4.5,18.5,18,18.5h39
			C220.5,150.1,192.2,98.5,170.4,89.2z"/>
	</g>
	<g>
		<path class="st6" d="M156.9,183.3c2.9-6.8,1.1-15.6-5.3-19.9c-4.6-3-10.4-3.4-15.8-4.6c-19.8-4.6-33.7-21.6-52.2-29.6
			c-16-6.9-35.7-6.4-50.7,2.3c-15,8.7-24.4,25.8-22.1,42.3c0.5,3.6,3.2,8.7,5.9,13.5c4,7.1,11.8,11.5,20.2,11.5h97.4
			c6.9,0,13.5-3,17.9-8.1C154.1,188.2,155.7,185.9,156.9,183.3z"/>
		<path class="st7" d="M36.1,138.6c-5,3.7-9.3,9.3-8,15.1c0.9,3.7,4,6.7,7.4,8.7c5.6,3.3,12.4,4.6,19,5.2s13.3,0.4,19.9,1.2
			c10.3,1.2,20.2,4.4,30.2,6.9c10,2.5,20.6,4.2,30.8,2.3c1.4-0.3,2.8-0.6,3.6-1.7c1.6-2-0.2-4.8-2.1-6.5c-5.5-4.7-13-6.5-20-8.8
			c-11.6-3.7-22.7-9-32.7-15.7c-5.1-3.3-9.9-7-14.4-11c-1.8-1.6-3.5-3.9-5.9-4.4c-2.5-0.5-6.1,0.2-8.6,0.6
			C48.3,131.7,41.6,134.4,36.1,138.6z"/>
	</g>
	<g>
		<path class="st8" d="M143.6,181.6c-3.2-7.6-1.2-17.3,5.9-22c5-3.3,11.5-3.7,17.5-5.1c21.9-5.1,37.2-23.9,57.7-32.8
			c17.7-7.7,39.5-7.1,56,2.5c16.6,9.7,27,28.6,24.5,46.8c-0.5,4-3.5,9.6-6.5,14.9c-4.4,7.8-13,12.7-22.4,12.7H168.7
			c-7.7,0-15-3.3-19.7-8.9C146.7,187.1,144.8,184.5,143.6,181.6z"/>
		<path class="st9" d="M277.1,132.2c5.5,4.1,10.3,10.3,8.8,16.7c-1,4.1-4.4,7.4-8.2,9.6c-6.2,3.7-13.7,5.1-21,5.8
			c-7.3,0.6-14.7,0.5-22,1.3c-11.4,1.3-22.3,4.9-33.4,7.6c-11.1,2.7-22.7,4.6-34,2.5c-1.5-0.3-3.1-0.7-4-1.9
			c-1.7-2.2,0.2-5.3,2.3-7.1c6.1-5.2,14.4-7.2,22.1-9.7c12.8-4.1,25-10,36.2-17.3c5.6-3.7,10.9-7.7,15.9-12.1c2-1.8,3.8-4.3,6.5-4.8
			c2.8-0.6,6.7,0.2,9.5,0.6C263.6,124.7,270.9,127.7,277.1,132.2z"/>
	</g>
	<g>
		<path class="st10" d="M116.6,190.8c-0.2,0.6-0.3,1.2-0.8,1.6c-0.6,0.5-1.4,0.4-2.2,0.4c-1.7-0.1-3.4-0.3-5.1-0.4
			c-0.5,0-1.1-0.1-1.4-0.6c-0.2-0.4-0.1-0.9,0.1-1.4c0.6-1.4,1.1-2.8,1.7-4.2c0.5-1.2,1-2.5,2.1-3.4c1.5-1.2,5.7-1.8,6.9,0.2
			C119,184.9,117,189,116.6,190.8z"/>
		<path class="st11" d="M89.4,197.4c-0.1-1.4,1.2-2.5,2.5-2.8c1.3-0.3,2.7-0.1,4.1-0.1c3.9,0,7.6-2.4,9.4-5.8c0.2-0.5,0.5-1,0.9-1.3
			c0.6-0.3,1.4-0.1,2,0.4c0.5,0.5,0.9,1.1,1.4,1.6c0.9,0.9,2.2,1.4,3.4,1.4c1.1,0,2.3-0.8,3.3-0.3c0.9,0.5,1.1,1.7,1.4,2.6
			c0.4,1.5,0.8,3.1,1.1,4.6c0.1,0.3,0.2,0.7,0.2,1h-7.4c-0.3-0.5-0.6-1.9-0.8-2.5c0,0.6-0.3,2-0.6,2.5H90
			C89.7,198.3,89.4,197.9,89.4,197.4z"/>
		<path class="st11" d="M106.7,177.8c-1.4-0.8-2.5-2.1-3.9-3c-2.6-1.8-6-2-8.9-3.5c-3-1.6-5.3-4.7-5.8-8c-0.1-0.7-0.1-1.6,0.4-2.1
			c0.5-0.5,1.3-0.5,2-0.4c5.3,0.7,6.2,3,11.3,4.5c1.4,0.4,7.3,0.8,10,2.5c2.9,1.9,2.3,3.2,2.1,4.4c-0.2,1.3-1.3,5.3-2.6,5.9
			C110,179,108,178.6,106.7,177.8z"/>
		<path class="st12" d="M114.8,167.6c0.3-0.6,0.5-1.2,0.4-1.8c-0.2-0.7-0.8-1.2-1.4-1.6c-1.4-1-2.8-1.9-4.2-2.9
			c-0.4-0.3-1-0.6-1.5-0.4c-0.4,0.2-0.6,0.7-0.8,1.1c-0.4,1.5-0.9,2.9-1.3,4.4c-0.4,1.3-0.8,2.6-0.5,3.9c0.4,1.9,3.3,4.9,5.5,4.2
			C112.9,173.7,114,169.3,114.8,167.6z"/>
		<path class="st13" d="M122.6,122.7c1.2-2.3,2.5-4.7,4.4-6.4l9.6,19.6c-3.3,0.3-5.9,3-8.5,8c-9.6,18.2-13,25-14.8,26.6
			c-1.3,1.2-7.9-1.2-8.1-3.1C104.6,162.1,116.8,134.2,122.6,122.7z"/>
		<path class="st14" d="M198.7,164.4c-3.9,1.6-21.8-2-25.8-3.2c-6-1.9-11.9-3.7-17.9-5.6c-2.8-0.9-9.4-5-12.2-3.8
			c-3.7,1.6-20.5,31.3-24.2,34.7c-1.2,1.1-9.1,0.1-9.4-2.5c-0.3-2.6,9.8-26.9,13.9-36.6c1.6-3.7,3.1-7.5,5.4-10.8
			c2.3-3.3,5.3-6.3,9.1-7.7c5.3-2,49.2,10.1,51.1,11.7C191.3,142.9,202.8,162.6,198.7,164.4z"/>
		<path class="st13" d="M212.1,134.7c2.4,1.7,4,4.3,4.9,7.1c2.5,7.4-0.2,16.3-6.4,21.1c-6.2,4.8-22.6,4.5-31.8-2.9
			c-6.1-4.9-0.2-9,1.6-16.6c0.9-3.8,3.3-7.5,7-8.9c4.6-1.8,9.3,0.7,14,0.1C205.5,134,207.9,131.7,212.1,134.7z"/>
		<path class="st13" d="M129.6,114.6c10.3-4.4,57.8,12.6,65.1,27.4c2.4,4.9,0,10.4-2.7,14.6c-4.4,6.6-11.5,4.6-17.4,1.3
			c-9.4-5.2-18.5-11-27.2-17.4c-4.5-3.4-13.4-10.4-16.8-6.7l-3.7-17.5C127.8,115.7,128.7,115,129.6,114.6z"/>
		<path class="st15" d="M253.8,120.5c-0.5-4.4-1.7-8.7-1.7-13c0-2.7,0.6-5.4,2.1-7.5c1.1-1.6,4.1-4.1,6.3-3.4c2.3,0.7,3.5,5,4.4,7
			c2.5,5.8,4.2,12,5,18.3c0.1,0.8,0.2,1.6,0.2,2.4l-16.3-0.6C254,122.5,253.9,121.5,253.8,120.5z"/>
		<path class="st12" d="M224.1,140.8c4.2-2.3,9.2-2.3,14-2.7c4.8-0.4,9.9-1.4,13-5.1c2.2-2.6,2.9-6,2.9-9.4l16.3,0.6
			c0.4,5,0,10.1-2.3,14.5c-3.6,6.8-11.2,10.6-18.7,11.6c-7.6,1-15.2-0.4-22.7-1.8c-2.3-0.4-5-1.3-5.3-3.6
			C221,143.2,222.5,141.7,224.1,140.8z"/>
		<path class="st16" d="M261,96.7c1.6,2.2,2.2,5,2.4,7.7c0.8,12.2-4.8,24.3-12.8,33.5c-8.1,9.2-18.5,16.1-28.9,22.6
			c-2,1.3-4.3,2.6-6.7,2.1c-3.4-0.7-5-4.4-6-7.7c-1.5-4.6-2.9-9.1-4.4-13.7c-0.8-2.4-1.5-5-0.9-7.4c1-3.8,4.9-5.8,8.4-7.7
			c9.5-5.1,18-12,25-20.3c2.4-2.8,4.6-5.8,7.4-8.2C249,93.8,256.8,90.9,261,96.7z"/>
		<g>
			<path class="st12" d="M259.4,93.8c0.2,0.8,0.5,1.5,0.5,2.3c0,0.8-0.4,1.6-1.1,1.9c-0.5,0.2-1.1,0.1-1.6,0c-3-0.5-6-0.9-9.1-1.4
				c0.8-3.5,0.2-7.3-1.5-10.5c-0.4-0.8-1-1.7-0.8-2.7c0.2-1,1.2-1.6,2.1-2c2-0.9,4.1-1.6,6.3-2c2.5-0.5,3.8-1.2,3.9,1.4
				C258.2,85.4,257.9,89.4,259.4,93.8z"/>
			<path class="st10" d="M263.3,71.2c1.6,2.7,1.8,6.5-0.4,8.8c-1.3,1.3-3.1,1.9-4.9,2.4c-3.2,0.9-6.3,1.9-9.5,2.8
				c-1.9,0.6-6.7-0.2-8.3-1.4c-1.6-1.2,0-2.4,0-4.4c0-3.3,3-7.8,4.1-10.8c1.1-3.1,1.3-4.5,4.4-5.6C254.1,61,260.7,66.8,263.3,71.2z"
				/>
			<path class="st11" d="M266.4,82.1c-0.9,1.6-1.7,3.1-3.1,4.3c-1.4,1.1-3.4,1.7-4.9,0.9c-2-1-2.5-3.6-2.8-5.9
				c-0.3-2.7-2.5-1.2-2.8-3.9c-0.1-1.2,1.5-6.5,1.1-7.6c-1.1-2.6-3.7-4.3-4.8-6.9c-1.3-3.2,0.3-7.2,3.4-8.6c3.1-1.4,7.2,0.1,8.7,3.2
				c1.1,2.3,0.7,5,1.9,7.2c1.1,1.8,2.7,1.7,4.2,2.8C272.1,71,268.6,78.2,266.4,82.1z"/>
			<path class="st10" d="M260.1,78.7c0.4-1.8-1.1-3.8-2.9-4.1c-1.9-0.3-4.4,5.9-3.8,6.6C256.6,81.9,259.3,80.8,260.1,78.7z"/>
		</g>
		<path class="st10" d="M198.9,79.4c2.1,6.4,6.1,16,11,20.6c4.9,4.7,12.1,7.4,18.6,5.6c3-0.8,5.7-2.5,8.3-4.4l5.3,16.7
			c-3,1.2-6,2.2-9.1,2.8c-8.6,1.8-18.1,0.7-25.1-4.6c-4.5-3.4-7.7-8.4-9.9-13.6c-2.1-5.3-4.1-15.6-5.2-21.1
			C192.5,79.8,198.4,77.9,198.9,79.4z"/>
		<path class="st16" d="M239.8,99c3.6-2.6,7.5-5,11.9-5.1c10-0.2,11,10.8,4.8,16.5c-2.4,2.2-5.9,3.4-8.7,4.9c-1.9,1-3.8,1.9-5.8,2.7
			l-8-15.9C235,101.3,238.8,99.7,239.8,99z"/>
		<g>
			<path class="st17" d="M199.2,72.9H191c-0.5,0-1-0.4-1.1-0.9l-5-17.4c-0.1-0.5,0.1-0.9,0.6-0.9h8.2c0.5,0,1,0.4,1.1,0.9l5,17.4
				C200,72.5,199.7,72.9,199.2,72.9z"/>
			<path class="st18" d="M200,72.9h-8.2c-0.5,0-1-0.4-1.1-0.9l-5-17.4c-0.1-0.5,0.1-0.9,0.6-0.9h8.2c0.5,0,1,0.4,1.1,0.9l5,17.4
				C200.8,72.5,200.5,72.9,200,72.9z"/>
			<path class="st17" d="M199.4,72H192c-0.4,0-0.9-0.4-1-0.8l-4.5-15.7c-0.1-0.4,0.1-0.8,0.6-0.8h7.4c0.4,0,0.9,0.4,1,0.8l4.5,15.7
				C200,71.6,199.8,72,199.4,72z"/>
		</g>
		<path class="st10" d="M197.9,70.7c-0.3-1-2.2-3.8-3.2-6.5c-1.8-0.6-0.9,4.7-0.2,5.3c-2.2-0.4-6.2-2.8-7.1-6.7
			c-0.4,0.3-1.6,2-1.6,2.5c-0.1,1.9,1.1,3.6,1,5.5c-0.1,1.4-0.7,2.2-0.3,3.5c0.7,2.2,2.5,3.7,4.3,5.1c0.9,0.7,1.9,1.4,3.1,1.7
			C200,83.1,198.9,73.9,197.9,70.7z"/>
	</g>
</g>
<g id="Layer_2">
</g>
</svg>
