<?xml version="1.0" encoding="utf-8"?>
<!-- Generator: Adobe Illustrator 21.0.0, SVG Export Plug-In . SVG Version: 6.00 Build 0)  -->
<svg version="1.1" id="_Layer_" xmlns="http://www.w3.org/2000/svg" xmlns:xlink="http://www.w3.org/1999/xlink" x="0px" y="0px"
	 viewBox="0 0 891.5 1161.8" style="enable-background:new 0 0 891.5 1161.8;" xml:space="preserve">
<style type="text/css">
	.st0{fill:#82B378;}
	.st1{fill:#A8D29F;}
	.st2{fill:#F1A34F;}
	.st3{fill:#FFB973;}
	.st4{fill:#D86713;}
	.st5{fill:#FFB27D;}
	.st6{fill:#2B478B;}
	.st7{fill:#233862;}
	.st8{fill:#F99746;}
	.st9{fill:#ED7D2B;}
	.st10{fill:#ED975D;}
</style>
<title>5222</title>
<path class="st0" d="M644.7,933.1c0,0-36.7-42.8-2.3-70c0,0,25.1-15.2,45.6-14c0,0-29.1,48.7-19.7,53.6c9.4,4.8,28.5-56.6,28.5-56.6
	s57.2-5.5,75.6,3.3c0,0-48.9,40-38.6,42.4c10.3,2.4,63.1-36.9,63.1-36.9s53.3,9.1,50.4,41.5c-2.8,32.5-21.2,42.5-29.3,41.7
	c-8.1-0.9-55.2-18.9-56.3-12.3c-1,6.6,27.4,28.2,47.3,29.2c0,0-37.5,41.4-62.5,29.5s-27.1-30.9-42.6-38c-15.6-7.1-28.9-7.1-22.4,0.2
	c6.5,7.2,34.6,14.3,43.5,30c8.9,15.7,16.9,26.4-8.9,22.5c-25.8-3.9-67.8-22.8-69.6-44.4L644.7,933.1z"/>
<path class="st0" d="M821.3,897.3c0,0-144.6-5.6-176.6,35.8c0,0-7.1,21.2-28.8,40.4l-3.4,9.2c0,0,25.1-26.4,34-28
	C646.6,954.8,632.5,903.5,821.3,897.3z"/>
<path class="st0" d="M615.9,973.6c0,0-31,23-33.2,64l5.6,0.5c0,0,9.9-42.4,27.8-59C634.1,962.4,615.9,973.6,615.9,973.6z"/>
<path class="st1" d="M516.4,879.3c0,0,58.4-32.7,31.1-77c0,0-21.8-27.2-45.1-34.2c0,0,12.5,66.1,0,67.7c-12.5,1.6-8.6-74.7-8.6-74.7
	s-61.5-29.6-85.6-27.2c0,0,38.1,64.6,25.7,63.1c-12.4-1.5-55.2-67-55.2-67s-63.1-11.7-73.1,25.7s6.2,56,15.6,58.4
	c9.3,2.3,69.3,1.6,67.7,9.3c-1.6,7.8-42,20.2-64.6,13.2c0,0,25,61.5,57.6,58.4s42.8-23.3,63.1-25c20.3-1.6,35,3.9,25,9.3
	c-10,5.4-44.3,1.8-60.7,15.7c-16.3,13.9-29.6,22.4,0.8,28.7c30.3,6.2,84.8,2.3,95.7-21L516.4,879.3z"/>
<path class="st0" d="M334.4,767.3c0,0,163.4,52.9,182.1,112c0,0-0.8,26.5,15.6,56.8v11.7c0,0-17.1-39.7-26.5-45.1
	C505.5,902.7,542.1,851.3,334.4,767.3z"/>
<path class="st0" d="M532,936.1c0,0,25.2,38.3,10.8,84.8l-6.5-1.7c0,0,6.3-51.3-6.9-77.1C516.3,916.3,532,936.1,532,936.1z"/>
<path class="st1" d="M609.3,834.3c0,0-76.9-43.1-41-101.5c0,0,28.7-35.9,59.5-45.1c0,0-16.4,87.2,0,89.2c16.4,2,11.3-98.5,11.3-98.5
	s81-39,112.8-35.9c0,0-50.3,85.1-33.9,83.1c16.4-2.1,72.8-88.2,72.8-88.2s83.1-15.4,96.4,33.9c13.3,49.2-8.2,73.9-20.5,76.9
	c-12.3,3.1-91.3,2-89.2,12.3c2,10.3,55.4,26.7,85.1,17.4c0,0-32.8,81-75.9,76.9c-43.1-4.1-56.4-30.8-83.1-32.8
	c-26.7-2.1-46.2,5.1-32.8,12.3s58.5,2.4,80,20.7c21.5,18.3,39,29.6-1,37.8c-40,8.2-111.8,3.1-126.1-27.7L609.3,834.3z"/>
<path class="st0" d="M849.3,686.6c0,0-215.4,69.7-240,147.7c0,0,1,34.9-20.5,74.9v15.4c0,0,22.6-52.3,34.9-59.5
	C623.6,865,575.4,797.3,849.3,686.6z"/>
<path class="st0" d="M588.8,909.1c0,0-33.2,50.4-14.3,111.8l8.6-2.3c0,0-8.3-67.6,9.1-101.6S588.8,909.1,588.8,909.1z"/>
<path class="st2" d="M606.7,1154.1c83.2,0,150.7-67.5,150.7-150.7H456C456,1086.7,523.5,1154.1,606.7,1154.1z"/>
<path class="st3" d="M643.8,1153c-82.6,10.3-158-48.3-168.3-131c-0.8-6.2-1.2-12.4-1.2-18.6h37.4
	C511.8,1079.4,568.4,1143.5,643.8,1153z"/>
<path class="st2" d="M759.5,1161.8H453.9c0-10.3,8.3-18.6,18.6-18.6h0h268.3C751.1,1143.2,759.4,1151.5,759.5,1161.8L759.5,1161.8
	L759.5,1161.8z"/>
<rect x="451" y="1003.4" class="st4" width="309.7" height="4.6"/>
<g id="man">
	<path class="st5" d="M620.7,260.6c-4.9,13.2-13.4,28.5-22.3,32.3c-10.1,4.3-14.3,10.4-14.3,10.4l-8.2-4.7l-9.8-5.7
		c0,0,0.2-1.1,0.7-2.8s1.2-4.2,2.2-6.9c1.8-2.5,2.2-5.8,1.2-8.7c-1.8-4.8-1.5-12.3,1.7-16.8s6.1-15.7,8-15.4
		c4.6,0.8-2.2,16.2-0.3,19c1.8,2.6,4,1.7,4.4,1.5h0.1c12.8-5.6,28.3-35.9,35.2-31.8C621.8,232.3,622.8,255,620.7,260.6z"/>
	<path class="st6" d="M576.5,278.9l16,11.3c1.1,0.8,2.7,0.5,3.5-0.6l41-58.4c0.8-1.1,0.5-2.7-0.6-3.5l-16-11.3
		c-1.1-0.8-2.7-0.5-3.5,0.6l-41,58.4C575.1,276.6,575.3,278.1,576.5,278.9z"/>
	<path class="st7" d="M591.1,289.2l9.4,6.6c0.9,0.6,2,0.4,2.6-0.5l41.7-59.3c0.6-0.9,0.4-2-0.5-2.7l-9.4-6.6
		c-0.9-0.6-2.1-0.4-2.7,0.5l-41.7,59.3C590,287.4,590.2,288.6,591.1,289.2C591.1,289.2,591.1,289.2,591.1,289.2z"/>
	<path class="st7" d="M346.8,195.2c0,0,81.5,142.1,111,168.3l108.4-80.8c0,0,15.7,4.8,22.6,20.6c0,0-65.8,134.1-130.6,139.8
		S302.4,282.3,302.4,282.3L346.8,195.2z"/>
	<path class="st7" d="M162.4,1161.7h-47.1c-5.9-3.2-11.2-10.6-12.9-21.6c-2.3-15.2-19.3-23.4-23-35.8s15.2-29.9,15.2-29.9l3.1-4.1
		l3.3-4.2l31.3,7.4c0,0,0.8,7.4,1.2,16.9c0.4,7.2,0.5,14.4,0.1,21.7c-0.9,16.5,4.6,34.3,19.3,37.6
		C163.9,1152.1,163.4,1158.5,162.4,1161.7z"/>
	<path class="st7" d="M435.6,1161.7H327.9c-5.2-6.3-3.3-29.6-2.5-37.3c0.2-1.5,0.3-2.4,0.3-2.4s36.8-29.4,41.8-6.9
		c0.2,0.7,0.3,1.4,0.5,2.1c6.4,21.1,34.9,30.6,51.4,33.3C430.1,1152.3,434.1,1157.9,435.6,1161.7z"/>
	<path class="st8" d="M415.1,560.8c0,0-5.6,69.7-12.1,153.4C394,827.9,383.3,967.6,382.2,994c-1.8,46-9.2,119.5-9.2,119.5
		s-17.5,17.5-52.4,10.1c0,0-31.1-104.9-40-216l-0.4-5.5c-8.3-113-21.1-351-21.1-351L415.1,560.8z"/>
	<path class="st9" d="M415.1,560.8c0,0-5.6,69.7-12.1,153.4L280.6,907.7l-0.4-5.5c-8.3-113-21.1-351-21.1-351L415.1,560.8z"/>
	<path class="st8" d="M389.6,569.1c0,0-100.6,252.3-166.8,370.8S136,1091.5,136,1091.5S98,1076.3,94.6,1066
		c0,0,25.3-228.8,69.6-284.6c25-31.5,54.5-126.1,55.8-159.2c1.4-33.1,9-98.6,9-98.6L389.6,569.1z"/>
	<path class="st5" d="M364.5,201.3c-39.3,12.4-107.4-21.1-107.4-21.1s36.3-27.2,34.3-83.8l30.4,24.5l20.7,16.6c-0.3,9-1.1,18-2.3,27
		c-0.6,4.5-1.3,9.6-2.3,15.1C348,185.2,357.1,192.6,364.5,201.3z"/>
	<path class="st10" d="M342.6,137.6c-0.3,9-1.1,18-2.3,27c-22.9-3.9-48.8-40.9-48.8-40.9c11.7-3.4,21.8-4,30.5-2.7L342.6,137.6z"/>
	<path class="st5" d="M354.6,136.7c0,0-65,10.8-71-29.8S265,40.5,306.1,31.9s51.6,5.7,56.9,18.7S371.3,132.8,354.6,136.7z"/>
	<path class="st6" d="M419.4,566.6c-1.1,1-2.6,1.6-4.1,1.6c-14.8-0.2-57.8,8-94.3,4.3c-30.7-3-57.9-12-87.1-25.1
		c-3.9-1.7-12.8-6.5-12.6-10.8c0.1-4.7,0.6-11.6,1.2-20.3c2.1-30.1,5.7-82,2.2-141.8c-0.6-11.1-1-22.2-1-33
		c-0.3-81,15.8-152.3,48.1-176.4c2.8-2,19.7,6.3,35.3,14c14.4,7.1,28.8,7.9,42.3,5.1l13.6,12c16.5,15.4,34.7,36.2,42.5,67.9
		c6.7,27,10.6,75.6,12.8,126c1,22.8,1.8,45.9,2,67.7v0.8c0.2,2.2,0.2,4.5,0.2,6.7C421.1,521.3,420.4,565.8,419.4,566.6z"/>
	<path class="st7" d="M222.5,516.2c2.1-30.1,5.7-82,2.2-141.8c-0.6-11.1-1-22.2-1-33c13.5-32.6,24.5-56.3,24.5-56.3H282
		C282,285.1,306.9,454.9,222.5,516.2z"/>
	<path class="st7" d="M212.1,598.1L67.5,577.5c-18.9-2.6-36.3,10.5-39.1,29.3l-8.9,62.7c-2.6,18.9,10.5,36.3,29.3,39.1l144.6,20.6
		c18.9,2.6,36.3-10.5,39.1-29.3l8.9-62.7C244.1,618.3,231,600.8,212.1,598.1z"/>
	<path class="st6" d="M220.3,616.8L220.3,616.8c-4.2-10.4-13.1-18.2-24-20.9l0,0c-1.1-0.3-2.2-0.5-3.3-0.7l-28.8-4.1l2-13.5
		c0.9-6.3-3.5-12-9.7-12.9l-7.5-1.1l-30.2-4.3l-5.5-0.8c-6.3-0.9-12,3.5-12.9,9.7l-1.9,13.5l-49.7-7.1c-19-2.6-36.5,10.5-39.2,29.5
		l-9,63.4c-2.6,19,10.5,36.5,29.5,39.2l144.3,20.6c2.5,0.4,5,0.4,7.5,0.2l0,0c3.9-0.3,7.7-1.3,11.3-2.8c11-4.8,18.7-15,20.4-26.8
		l9-63.4C223.2,628.5,222.5,622.4,220.3,616.8z M107.3,569.2c0.3-2.3,2.5-4,4.8-3.6l6.4,0.9l23.8,3.4l13,1.8c2.3,0.3,4,2.5,3.6,4.8
		l-1.9,13.5l-51.6-7.4L107.3,569.2z"/>
	<path class="st5" d="M150.8,538.5c0-0.8,0.1-1.6,0.1-2.4c0.3-4,7.9-14.2,7.9-14.2l-19-9.9l-7.5,12.5c-11.4,9.1-11.6,9.2-9.5,26.6
		c1.8,15-8,15.2-7.8,26s14.1,5.5,14.1,5.5c21.4-10.1,23.2-15.1,22.6-25.3c2,2.9,4.3,4.6,6.2,3.3c1.7-1.1-1.7-5.5-3.2-15.7
		C154.4,543.3,152.6,540.8,150.8,538.5z"/>
	<path class="st6" d="M139.5,529.8c8.4,1.4,16.9,1.9,25.4,1.4c0,0,36.3-112,40.9-122.2s107.7-131.3,107.7-131.3l-42.9-107.3
		c0,0-111.4,186-122.7,212.2c-18.7,43.2-25.2,140.1-25.2,140.1C127.8,526.1,133.5,528.5,139.5,529.8z"/>
	<path class="st6" d="M283.5,103c0,0,6.6-1.1,5.6-10.3s-1.1-21.2,6.4-18.9s7.8,8.2,10.9,4.7s3.1-18.2,25.3-19.2s31.2,6.7,41.6,2.2
		s10.8-20.2,10.8-20.2s-2.9,5.6-7.4,7.4c0,0,17.2-23.6-2.7-39.7s-40.3-5.6-51.8-4.9c-25.4,1.5-41.9,3.1-50.2,19.8
		S267.1,86.9,283.5,103z"/>
</g>
</svg>
