<?xml version="1.0" encoding="utf-8"?>
<!-- Generator: Adobe Illustrator 21.0.0, SVG Export Plug-In . SVG Version: 6.00 Build 0)  -->
<svg version="1.1" xmlns="http://www.w3.org/2000/svg" xmlns:xlink="http://www.w3.org/1999/xlink" x="0px" y="0px"
	 viewBox="0 0 286.2 183.9" style="enable-background:new 0 0 286.2 183.9;" xml:space="preserve">
<style type="text/css">
	.st0{fill:#695F5F;}
	.st1{fill:#121212;}
	.st2{fill:#E0C28D;}
	.st3{fill:#AB9C7A;}
	.st4{fill:#3E3F3F;}
	.st5{fill:#DDD9D8;}
	.st6{fill:#494949;}
	.st7{fill:#676767;}
	.st8{fill:#D02729;}
	.st9{fill:#CAD9DC;}
	.st10{opacity:0.24;}
	.st11{fill:#2F484F;}
	.st12{fill:#DEEBEE;}
	.st13{fill:#FFFFFF;}
	.st14{fill:#E6EBF0;}
	.st15{fill:#9D9D9D;}
	.st16{fill:#5D6576;}
	.st17{fill:#475059;}
	.st18{opacity:0.7;}
	.st19{fill:#B1DFDC;}
	.st20{opacity:0.4;}
	.st21{fill:#08181F;}
	.st22{fill:#999EA1;}
	.st23{fill:#ECECEC;}
	.st24{fill:#E1E1E1;}
	.st25{fill:#A1A1A1;}
	.st26{fill:#C6C5C5;}
	.st27{fill:#4D4C4D;}
	.st28{fill:#D2D2D2;}
	.st29{fill:#B2B2B2;}
	.st30{opacity:0.29;}
	.st31{fill:#818282;}
	.st32{opacity:0.59;}
	.st33{fill:#D0D1D3;}
	.st34{fill:#888888;}
	.st35{fill:#5A5C5C;}
	.st36{fill:#596872;}
	.st37{opacity:0.12;}
	.st38{fill:#575C60;}
	.st39{fill:#7C7C7C;}
	.st40{fill:#383736;}
	.st41{fill:#CDE7EE;}
	.st42{fill:#FDDFCB;}
	.st43{fill:#C2DDE4;}
	.st44{fill:#565656;}
	.st45{fill:#B5904D;}
</style>
<g id="bg">
</g>
<g id="Layer_3">
	<g>
		<path class="st0" d="M114.5,38.9c-0.1-10.6,58.7-12.1,58.8-1.5l0.2,45.8c0.1,10.6-5.8,19.3-13.2,19.4l-32,0.3
			c-7.4,0.1-13.5-8.5-13.5-19.2L114.5,38.9z"/>
	</g>
	<g>
		
			<rect x="119.7" y="73.3" transform="matrix(1 -7.976638e-03 7.976638e-03 1 -0.6864 1.1536)" class="st1" width="49.1" height="26.6"/>
	</g>
	<g>
		<rect y="91.3" class="st2" width="286.2" height="92.6"/>
	</g>
	<g>
		<g>
			<path class="st3" d="M87.1,125.4L87.1,125.4l0.7-1.5l-0.1,0c0,0,0,0-0.1,0.1L87.1,125.4C87.1,125.3,87.1,125.3,87.1,125.4z"/>
		</g>
		<g>
			<path class="st3" d="M86.3,127.2L86.3,127.2l0.7-1.5l-0.1,0c0,0,0,0-0.1,0.1L86.3,127.2C86.3,127.1,86.3,127.2,86.3,127.2z"/>
		</g>
		<g>
			<path class="st3" d="M97.5,132.1L97.5,132.1l0.6-1.5l0,0.1c0,0,0,0.1,0,0.1L97.5,132.1C97.5,132.1,97.5,132.1,97.5,132.1z"/>
		</g>
		<g>
			<path class="st3" d="M85.6,128.8L85.6,128.8L86,128l-0.1,0c0,0,0,0-0.1,0.1L85.6,128.8C85.6,128.7,85.6,128.8,85.6,128.8z"/>
		</g>
		<g>
			<g>
				<g>
					<path class="st4" d="M96.2,109.8l7.6,3.4c1,0.4,1.4,1.6,1,2.5l-8.4,19c-0.4,1-1.6,1.4-2.5,1l-7.6-3.4c-1-0.4-1.4-1.6-1-2.5
						l8.4-19C94.1,109.8,95.2,109.4,96.2,109.8z M93.9,135.3c0.8,0.3,1.6,0,2-0.8l8.4-19c0.3-0.8,0-1.6-0.8-2l-7.6-3.4
						c-0.8-0.3-1.6,0-2,0.8l-8.4,19c-0.3,0.8,0,1.6,0.8,2L93.9,135.3z"/>
				</g>
				<g>
					<path class="st1" d="M93.9,110.9c0.4-0.9,1.4-1.2,2.2-0.9l7.6,3.4c0.9,0.4,1.2,1.4,0.9,2.2l-8.4,19c-0.4,0.9-1.4,1.2-2.2,0.9
						l-7.6-3.4c-0.9-0.4-1.2-1.4-0.9-2.2L93.9,110.9z"/>
				</g>
			</g>
			<g>
				<path class="st5" d="M93.9,112c0,0,0.1-0.1,0.1,0l9.6,4.3c0,0,0.1,0.1,0,0.1l-7.6,17.2c0,0-0.1,0.1-0.1,0l-9.6-4.3
					c0,0-0.1-0.1,0-0.1L93.9,112z"/>
			</g>
		</g>
		<g>
			<g>
				<path class="st1" d="M99.7,112.1c0.4,0.2,0.6,0.7,0.4,1.1c-0.2,0.4-0.7,0.6-1.1,0.4c-0.4-0.2-0.6-0.7-0.4-1.1
					C98.8,112.1,99.3,111.9,99.7,112.1z M99.1,113.5c0.3,0.2,0.7,0,0.9-0.3c0.2-0.3,0-0.7-0.3-0.9c-0.3-0.1-0.7,0-0.9,0.3
					C98.6,113,98.7,113.3,99.1,113.5z"/>
			</g>
			<g>
				
					<ellipse transform="matrix(0.406 -0.9139 0.9139 0.406 -44.1497 157.8486)" class="st6" cx="99.4" cy="112.9" rx="0.7" ry="0.7"/>
			</g>
		</g>
		<g>
			<path class="st7" d="M89.1,132c0.1,0,0.2,0,0.2-0.1c0-0.1,0-0.2-0.1-0.2c-0.1,0-0.2,0-0.2,0.1C88.9,131.8,89,131.9,89.1,132z"/>
		</g>
		<g>
			<g>
				<g>
					<path class="st7" d="M90.3,133.2c0.1,0,0.1,0,0.1-0.1c0-0.1,0-0.1-0.1-0.1c-0.1,0-0.1,0-0.1,0.1
						C90.2,133.1,90.2,133.2,90.3,133.2z"/>
				</g>
			</g>
			<g>
				<g>
					<path class="st8" d="M91.3,132.9C91.4,132.9,91.4,132.9,91.3,132.9l0.1-0.1c0,0,0,0,0-0.1l-1.4-0.6c0,0,0,0-0.1,0l0,0.1
						c0,0,0,0,0,0.1L91.3,132.9z"/>
				</g>
				<g>
					<path class="st7" d="M89.9,132.1c0,0,0.1-0.1,0.1,0l1.4,0.6c0,0,0.1,0.1,0,0.1l0,0.1c0,0-0.1,0.1-0.1,0l-1.4-0.6
						c0,0-0.1-0.1,0-0.1L89.9,132.1z"/>
				</g>
			</g>
		</g>
	</g>
	<g>
		<g>
			<polygon class="st9" points="176.6,157.4 197.2,147.2 182,115.8 161.2,125.9 			"/>
		</g>
		<g class="st10">
			<polygon class="st11" points="196.7,146.2 186.1,124.3 181.2,116.2 169.3,122 161.5,126.7 165.8,135.3 178.6,156.4 186.2,152.6 
							"/>
		</g>
		<g>
			<polygon class="st12" points="180.1,157.4 199.7,145.4 181.5,115.5 161.8,127.5 			"/>
		</g>
		<g class="st10">
			<polygon class="st11" points="181.8,116 179.4,118.1 165.7,130.1 183.8,150.7 183.8,150.7 183.8,150.7 190.4,151.1 199.7,145.4 
							"/>
		</g>
		<g>
			<g>
				<polygon class="st13" points="196.1,151 203.9,144.1 207.6,140.8 184.5,114.6 180.8,117.9 167.2,129.9 185.2,150.3 				"/>
			</g>
			<g>
				<polygon class="st14" points="196.1,151 196.1,151 191,145.2 185.2,150.3 				"/>
			</g>
			<g>
				<path class="st15" d="M185.6,147.2c-0.1-0.1-0.1-0.2,0-0.3l12.7-11.2c0.1-0.1,0.2-0.1,0.3,0l0,0c0.1,0.1,0.1,0.2,0,0.3
					l-12.7,11.2C185.8,147.3,185.6,147.3,185.6,147.2L185.6,147.2z"/>
			</g>
			<g>
				<path class="st15" d="M184.9,146.4c-0.1-0.1-0.1-0.2,0-0.3l12.7-11.2c0.1-0.1,0.2-0.1,0.3,0l0,0c0.1,0.1,0.1,0.2,0,0.3
					l-12.7,11.2C185.1,146.5,184.9,146.5,184.9,146.4L184.9,146.4z"/>
			</g>
			<g>
				<path class="st15" d="M184.2,145.7c-0.1-0.1-0.1-0.2,0-0.3l12.7-11.2c0.1-0.1,0.2-0.1,0.3,0l0,0c0.1,0.1,0.1,0.2,0,0.3
					l-12.7,11.2C184.4,145.8,184.2,145.7,184.2,145.7L184.2,145.7z"/>
			</g>
			<g>
				<path class="st15" d="M183.5,144.9c-0.1-0.1-0.1-0.2,0-0.3l12.7-11.2c0.1-0.1,0.2-0.1,0.3,0l0,0c0.1,0.1,0.1,0.2,0,0.3
					l-12.7,11.2C183.7,145,183.6,145,183.5,144.9L183.5,144.9z"/>
			</g>
			<g>
				<path class="st15" d="M182.7,143.9c-0.1-0.1-0.1-0.2,0-0.3l12.7-11.2c0.1-0.1,0.2-0.1,0.3,0l0,0c0.1,0.1,0.1,0.2,0,0.3L183,144
					C182.9,144,182.7,144,182.7,143.9L182.7,143.9z"/>
			</g>
			<g>
				<path class="st15" d="M182,143.1c-0.1-0.1-0.1-0.2,0-0.3l12.7-11.2c0.1-0.1,0.2-0.1,0.3,0l0,0c0.1,0.1,0.1,0.2,0,0.3l-12.7,11.2
					C182.2,143.2,182,143.2,182,143.1L182,143.1z"/>
			</g>
			<g>
				<path class="st15" d="M181.3,142.4c-0.1-0.1-0.1-0.2,0-0.3l12.7-11.2c0.1-0.1,0.2-0.1,0.3,0l0,0c0.1,0.1,0.1,0.2,0,0.3
					l-12.7,11.2C181.5,142.5,181.3,142.4,181.3,142.4L181.3,142.4z"/>
			</g>
			<g>
				<path class="st15" d="M180.6,141.6c-0.1-0.1-0.1-0.2,0-0.3l12.7-11.2c0.1-0.1,0.2-0.1,0.3,0l0,0c0.1,0.1,0.1,0.2,0,0.3
					l-12.7,11.2C180.8,141.7,180.6,141.7,180.6,141.6L180.6,141.6z"/>
			</g>
			<g>
				<path class="st15" d="M179.8,140.7c-0.1-0.1-0.1-0.2,0-0.3l12.7-11.2c0.1-0.1,0.2-0.1,0.3,0l0,0c0.1,0.1,0.1,0.2,0,0.3
					l-12.7,11.2C180,140.8,179.9,140.8,179.8,140.7L179.8,140.7z"/>
			</g>
			<g>
				<path class="st15" d="M179.1,139.9c-0.1-0.1-0.1-0.2,0-0.3l12.7-11.2c0.1-0.1,0.2-0.1,0.3,0l0,0c0.1,0.1,0.1,0.2,0,0.3
					l-12.7,11.2C179.3,140,179.2,140,179.1,139.9L179.1,139.9z"/>
			</g>
			<g>
				<path class="st15" d="M178.4,139.1c-0.1-0.1-0.1-0.2,0-0.3l12.7-11.2c0.1-0.1,0.2-0.1,0.3,0l0,0c0.1,0.1,0.1,0.2,0,0.3
					l-12.7,11.2C178.6,139.2,178.5,139.2,178.4,139.1L178.4,139.1z"/>
			</g>
			<g>
				<path class="st15" d="M177.7,138.3c-0.1-0.1-0.1-0.2,0-0.3l12.7-11.2c0.1-0.1,0.2-0.1,0.3,0l0,0c0.1,0.1,0.1,0.2,0,0.3
					L178,138.3C177.9,138.4,177.8,138.4,177.7,138.3L177.7,138.3z"/>
			</g>
			<g>
				<path class="st15" d="M176.9,137.4c-0.1-0.1-0.1-0.2,0-0.3l12.7-11.2c0.1-0.1,0.2-0.1,0.3,0l0,0c0.1,0.1,0.1,0.2,0,0.3
					l-12.7,11.2C177.1,137.5,177,137.5,176.9,137.4L176.9,137.4z"/>
			</g>
			<g>
				<path class="st15" d="M176.2,136.6c-0.1-0.1-0.1-0.2,0-0.3l12.7-11.2c0.1-0.1,0.2-0.1,0.3,0l0,0c0.1,0.1,0.1,0.2,0,0.3
					l-12.7,11.2C176.4,136.7,176.3,136.7,176.2,136.6L176.2,136.6z"/>
			</g>
			<g>
				<path class="st15" d="M175.5,135.8c-0.1-0.1-0.1-0.2,0-0.3l12.7-11.2c0.1-0.1,0.2-0.1,0.3,0l0,0c0.1,0.1,0.1,0.2,0,0.3
					l-12.7,11.2C175.7,135.9,175.6,135.9,175.5,135.8L175.5,135.8z"/>
			</g>
			<g>
				<path class="st15" d="M174.8,135c-0.1-0.1-0.1-0.2,0-0.3l12.7-11.2c0.1-0.1,0.2-0.1,0.3,0l0,0c0.1,0.1,0.1,0.2,0,0.3l-12.7,11.2
					C175,135.1,174.9,135.1,174.8,135L174.8,135z"/>
			</g>
			<g>
				<path class="st15" d="M183.1,123.1c-0.1-0.1-0.1-0.2,0-0.3l2.1-1.9c0.1-0.1,0.2-0.1,0.3,0l0,0c0.1,0.1,0.1,0.2,0,0.3l-2.1,1.9
					C183.3,123.2,183.1,123.2,183.1,123.1L183.1,123.1z"/>
			</g>
			<g>
				<path class="st15" d="M182.4,122.4c-0.1-0.1-0.1-0.2,0-0.3l2.1-1.9c0.1-0.1,0.2-0.1,0.3,0l0,0c0.1,0.1,0.1,0.2,0,0.3l-2.1,1.9
					C182.6,122.5,182.5,122.5,182.4,122.4L182.4,122.4z"/>
			</g>
			<g>
				<path class="st15" d="M172.6,132.3c-0.1-0.1-0.1-0.2,0-0.3l2.1-1.9c0.1-0.1,0.2-0.1,0.3,0l0,0c0.1,0.1,0.1,0.2,0,0.3l-2.1,1.9
					C172.9,132.4,172.7,132.4,172.6,132.3L172.6,132.3z"/>
			</g>
		</g>
		<g>
			<g>
				<path class="st16" d="M215.1,117.1c0.2-0.1,0.4,0,0.4,0.2l-0.5,4.5c-0.1,0.9-0.6,1.8-1.3,2.3l-10.5,8.5c0,0-0.1,0-0.2,0
					l-0.5-0.7c0,0,0-0.1,0-0.2l10.7-8.7c0.4-0.3,0.6-0.7,0.6-1.2l0.4-3.7c0-0.4,0.2-0.7,0.5-0.9L215.1,117.1z"/>
			</g>
			<g>
				<path class="st16" d="M201.1,128.4c-0.2,0.1-0.1,0.4,0.1,0.4l4.5,0.5c0.9,0.1,1.8-0.2,2.5-0.8l10.5-8.5c0,0,0.1-0.1,0-0.2
					l-0.5-0.7c0,0-0.1-0.1-0.2,0l-10.7,8.7c-0.4,0.3-0.8,0.4-1.3,0.4l-3.7-0.4c-0.3,0-0.7,0.1-1,0.3L201.1,128.4z"/>
			</g>
			<g>
				<path class="st17" d="M219,120l-0.7-0.8c-1.3-1.6-3.6-1.7-5-0.5l-1.8,1.5c-1,0.8-1.3,2.1-0.7,3.6l0.3,0.8
					c0.2,0.4,0.1,0.8-0.3,1.1l-0.3,0.3c-0.3,0.3-0.8,0.3-1.1,0l-0.7-0.4c-1.4-0.8-2.7-0.9-3.7-0.1l-1.8,1.5c-1.4,1.1-1.8,3.4-0.5,5
					l0.7,0.8c0.8,1,2.4,1.2,3.4,0.4l3.6-2.9c0.8-0.6,1.1-1.7,0.8-2.6l1.4-1.1c0.8,0.5,1.9,0.4,2.7-0.3l3.6-2.9
					C219.7,122.6,219.8,121.1,219,120z M210.2,127.9c0.4,0.8,0,1.7-0.7,2.2l-3,2.5c-0.9,0.7-2.2,0.6-2.9-0.3l-0.6-0.7
					c-1.1-1.4-0.7-3.3,0.5-4.3l1.6-1.3c0.9-0.7,2-0.7,3.2,0c0,0,0.5,0.3,0.8,0.6C210,127.4,210.2,127.9,210.2,127.9z M218.4,120.3
					c0.7,0.9,0.6,2.2-0.3,2.9l-3,2.5c-0.7,0.5-1.6,0.8-2.3,0.2c-0.9-0.7-1.4-2.3-1.4-2.3c-0.5-1.3-0.2-2.4,0.7-3.1l1.6-1.3
					c1.2-1,3.1-0.9,4.3,0.4L218.4,120.3z"/>
			</g>
			<g class="st18">
				<path class="st19" d="M212.7,125.9c0.7,0.6,1.6,0.3,2.3-0.2l3-2.5c0.9-0.7,1-2,0.3-2.9l-0.6-0.7c-1.1-1.3-3.1-1.4-4.3-0.4
					l-1.6,1.3c-0.9,0.7-1.1,1.8-0.7,3.1C211.3,123.6,211.9,125.2,212.7,125.9z"/>
			</g>
			<g class="st18">
				<path class="st19" d="M210.2,127.9c0.4,0.8,0,1.7-0.7,2.2l-3,2.5c-0.9,0.7-2.2,0.6-2.9-0.3l-0.6-0.7c-1.1-1.4-0.7-3.3,0.5-4.3
					l1.6-1.3c0.9-0.7,2-0.7,3.2,0c0,0,0.5,0.3,0.8,0.6C210,127.4,210.2,127.9,210.2,127.9z"/>
			</g>
			<g>
				<path class="st16" d="M218.7,118.8c-0.1-0.1-0.3-0.1-0.4,0c-0.1,0.1-0.1,0.3,0,0.4l0.7,0.8c0.1,0.1,0.3,0.1,0.4,0
					c0.1-0.1,0.1-0.3,0-0.4L218.7,118.8z"/>
			</g>
			<g>
				<path class="st16" d="M202.5,132c-0.1-0.1-0.3-0.1-0.4,0c-0.1,0.1-0.1,0.3,0,0.4l0.7,0.8c0.1,0.1,0.3,0.1,0.4,0
					c0.1-0.1,0.1-0.3,0-0.4L202.5,132z"/>
			</g>
		</g>
	</g>
	<g>
		<g>
			<g class="st20">
				<g>
					<g>
						<path class="st21" d="M147.6,100.7l-6.8-1.1c-0.3,0-0.5-0.2-0.7-0.4l-0.1-0.1c-0.1-0.1-0.2-0.1-0.3-0.2l-17.9-3
							c-0.8-0.1-1.5,0.4-1.7,1.2l-4.6,27.5c-0.1,0.8,0.4,1.5,1.2,1.7l45.2,7.5c0.8,0.1,1.5-0.4,1.7-1.2l4.6-27.5
							c0.1-0.8-0.4-1.5-1.2-1.7l-18.1-3c-0.1,0-0.3,0-0.4,0l-0.1,0C148.1,100.8,147.9,100.8,147.6,100.7z"/>
					</g>
				</g>
			</g>
			<g>
				<g>
					<path class="st22" d="M113.6,129c0.6-0.9,1.1-1.7,2.1-1.5l46.5,7.8c1,0.2,1.3,1.3,1.5,2.1l3.5,10.9c0.4,1.1,0.5,2-2.1,1.5
						l-57.2-9.6c-2.3-0.4-1.6-1.2-1.1-2L113.6,129z"/>
				</g>
			</g>
			<g>
				<g>
					<path class="st23" d="M119.7,97.2c0.2-1,1.1-1.7,2.1-1.5l17.9,3c0.2,0,0.4,0.1,0.5,0.3l0.1,0.1c0.1,0.1,0.3,0.2,0.5,0.3
						l6.8,1.1c0.2,0,0.4,0,0.6-0.1l0.1,0c0.2-0.1,0.4-0.1,0.6-0.1l18.1,3c1,0.2,1.7,1.1,1.5,2.1l-4.6,27.5c-0.2,1-1.1,1.7-2.1,1.5
						l-45.2-7.5c-1-0.2-1.7-1.1-1.5-2.1L119.7,97.2z"/>
				</g>
			</g>
			<g>
				<g>
					<g>
						<g>
							<path class="st24" d="M159,130.3c0-0.1,0.1-0.2,0.3-0.2l2.2,0.4c0.1,0,0.2,0.1,0.2,0.3l-0.2,1.1c0,0.1-0.1,0.2-0.3,0.2
								l-2.2-0.4c-0.1,0-0.2-0.1-0.2-0.3L159,130.3z"/>
						</g>
					</g>
					<g>
						<g>
							<path class="st25" d="M159.2,130l2.2,0.4c0.1,0,0.2,0.2,0.2,0.3l-0.2,1.1c0,0.1-0.2,0.2-0.3,0.2l-2.2-0.4
								c-0.1,0-0.2-0.2-0.2-0.3l0.2-1.1C159,130.1,159.1,130,159.2,130z M161.2,131.9c0.1,0,0.2-0.1,0.2-0.2l0.2-1.1
								c0-0.1-0.1-0.2-0.2-0.2l-2.2-0.4c-0.1,0-0.2,0.1-0.2,0.2l-0.2,1.1c0,0.1,0.1,0.2,0.2,0.2L161.2,131.9z"/>
						</g>
					</g>
				</g>
				<g>
					<g>
						<g>
							<path class="st24" d="M155.8,129.7c0-0.1,0.1-0.2,0.3-0.2l2.2,0.4c0.1,0,0.2,0.1,0.2,0.3l-0.2,1.1c0,0.1-0.1,0.2-0.3,0.2
								l-2.2-0.4c-0.1,0-0.2-0.1-0.2-0.3L155.8,129.7z"/>
						</g>
					</g>
					<g>
						<g>
							<path class="st25" d="M156.1,129.5l2.2,0.4c0.1,0,0.2,0.2,0.2,0.3l-0.2,1.1c0,0.1-0.2,0.2-0.3,0.2l-2.2-0.4
								c-0.1,0-0.2-0.2-0.2-0.3l0.2-1.1C155.8,129.6,155.9,129.5,156.1,129.5z M158,131.4c0.1,0,0.2-0.1,0.2-0.2l0.2-1.1
								c0-0.1-0.1-0.2-0.2-0.2l-2.2-0.4c-0.1,0-0.2,0.1-0.2,0.2l-0.2,1.1c0,0.1,0.1,0.2,0.2,0.2L158,131.4z"/>
						</g>
					</g>
				</g>
				<g>
					<g>
						<g>
							<path class="st24" d="M152.7,129.2c0-0.1,0.1-0.2,0.3-0.2l2.2,0.4c0.1,0,0.2,0.1,0.2,0.3l-0.2,1.1c0,0.1-0.1,0.2-0.3,0.2
								l-2.2-0.4c-0.1,0-0.2-0.1-0.2-0.3L152.7,129.2z"/>
						</g>
					</g>
					<g>
						<g>
							<path class="st25" d="M153,129l2.2,0.4c0.1,0,0.2,0.2,0.2,0.3l-0.2,1.1c0,0.1-0.2,0.2-0.3,0.2l-2.2-0.4
								c-0.1,0-0.2-0.2-0.2-0.3l0.2-1.1C152.7,129.1,152.8,129,153,129z M154.9,130.9c0.1,0,0.2-0.1,0.2-0.2l0.2-1.1
								c0-0.1-0.1-0.2-0.2-0.2l-2.2-0.4c-0.1,0-0.2,0.1-0.2,0.2l-0.2,1.1c0,0.1,0.1,0.2,0.2,0.2L154.9,130.9z"/>
						</g>
					</g>
				</g>
				<g>
					<g>
						<g>
							<path class="st24" d="M149.5,128.7c0-0.1,0.1-0.2,0.3-0.2l2.2,0.4c0.1,0,0.2,0.1,0.2,0.3l-0.2,1.1c0,0.1-0.1,0.2-0.3,0.2
								l-2.2-0.4c-0.1,0-0.2-0.1-0.2-0.3L149.5,128.7z"/>
						</g>
					</g>
					<g>
						<g>
							<path class="st25" d="M149.8,128.5l2.2,0.4c0.1,0,0.2,0.2,0.2,0.3l-0.2,1.1c0,0.1-0.2,0.2-0.3,0.2l-2.2-0.4
								c-0.1,0-0.2-0.2-0.2-0.3l0.2-1.1C149.5,128.5,149.6,128.4,149.8,128.5z M151.7,130.3c0.1,0,0.2-0.1,0.2-0.2l0.2-1.1
								c0-0.1-0.1-0.2-0.2-0.2l-2.2-0.4c-0.1,0-0.2,0.1-0.2,0.2l-0.2,1.1c0,0.1,0,0.2,0.2,0.2L151.7,130.3z"/>
						</g>
					</g>
				</g>
				<g>
					<g>
						<g>
							<path class="st24" d="M146.4,128.2c0-0.1,0.1-0.2,0.3-0.2l2.2,0.4c0.1,0,0.2,0.1,0.2,0.3l-0.2,1.1c0,0.1-0.1,0.2-0.3,0.2
								l-2.2-0.4c-0.1,0-0.2-0.1-0.2-0.3L146.4,128.2z"/>
						</g>
					</g>
					<g>
						<g>
							<path class="st25" d="M146.7,127.9l2.2,0.4c0.1,0,0.2,0.2,0.2,0.3l-0.2,1.1c0,0.1-0.2,0.2-0.3,0.2l-2.2-0.4
								c-0.1,0-0.2-0.2-0.2-0.3l0.2-1.1C146.4,128,146.5,127.9,146.7,127.9z M148.6,129.8c0.1,0,0.2-0.1,0.2-0.2l0.2-1.1
								c0-0.1-0.1-0.2-0.2-0.2l-2.2-0.4c-0.1,0-0.2,0.1-0.2,0.2l-0.2,1.1c0,0.1,0.1,0.2,0.2,0.2L148.6,129.8z"/>
						</g>
					</g>
				</g>
				<g>
					<g>
						<g>
							<path class="st24" d="M143.2,127.6c0-0.1,0.1-0.2,0.3-0.2l2.2,0.4c0.1,0,0.2,0.1,0.2,0.3l-0.2,1.1c0,0.1-0.1,0.2-0.3,0.2
								l-2.2-0.4c-0.1,0-0.2-0.1-0.2-0.3L143.2,127.6z"/>
						</g>
					</g>
					<g>
						<g>
							<path class="st25" d="M143.5,127.4l2.2,0.4c0.1,0,0.2,0.2,0.2,0.3l-0.2,1.1c0,0.1-0.2,0.2-0.3,0.2l-2.2-0.4
								c-0.1,0-0.2-0.2-0.2-0.3l0.2-1.1C143.2,127.5,143.3,127.4,143.5,127.4z M145.4,129.3c0.1,0,0.2-0.1,0.2-0.2l0.2-1.1
								c0-0.1-0.1-0.2-0.2-0.2l-2.2-0.4c-0.1,0-0.2,0.1-0.2,0.2l-0.2,1.1c0,0.1,0.1,0.2,0.2,0.2L145.4,129.3z"/>
						</g>
					</g>
				</g>
				<g>
					<g>
						<g>
							<path class="st24" d="M140.1,127.1c0-0.1,0.1-0.2,0.3-0.2l2.2,0.4c0.1,0,0.2,0.1,0.2,0.3l-0.2,1.1c0,0.1-0.1,0.2-0.3,0.2
								l-2.2-0.4c-0.1,0-0.2-0.1-0.2-0.3L140.1,127.1z"/>
						</g>
					</g>
					<g>
						<g>
							<path class="st25" d="M140.4,126.9l2.2,0.4c0.1,0,0.2,0.2,0.2,0.3l-0.2,1.1c0,0.1-0.2,0.2-0.3,0.2l-2.2-0.4
								c-0.1,0-0.2-0.2-0.2-0.3l0.2-1.1C140.1,127,140.2,126.9,140.4,126.9z M142.3,128.8c0.1,0,0.2-0.1,0.2-0.2l0.2-1.1
								c0-0.1-0.1-0.2-0.2-0.2l-2.2-0.4c-0.1,0-0.2,0.1-0.2,0.2l-0.2,1.1c0,0.1,0.1,0.2,0.2,0.2L142.3,128.8z"/>
						</g>
					</g>
				</g>
				<g>
					<g>
						<g>
							<path class="st24" d="M136.9,126.6c0-0.1,0.1-0.2,0.3-0.2l2.2,0.4c0.1,0,0.2,0.1,0.2,0.3l-0.2,1.1c0,0.1-0.1,0.2-0.3,0.2
								l-2.2-0.4c-0.1,0-0.2-0.1-0.2-0.3L136.9,126.6z"/>
						</g>
					</g>
					<g>
						<g>
							<path class="st25" d="M137.2,126.4l2.2,0.4c0.1,0,0.2,0.2,0.2,0.3l-0.2,1.1c0,0.1-0.2,0.2-0.3,0.2l-2.2-0.4
								c-0.1,0-0.2-0.2-0.2-0.3l0.2-1.1C136.9,126.4,137,126.3,137.2,126.4z M139.1,128.2c0.1,0,0.2-0.1,0.2-0.2l0.2-1.1
								c0-0.1-0.1-0.2-0.2-0.2l-2.2-0.4c-0.1,0-0.2,0.1-0.2,0.2l-0.2,1.1c0,0.1,0.1,0.2,0.2,0.2L139.1,128.2z"/>
						</g>
					</g>
				</g>
				<g>
					<g>
						<g>
							<path class="st24" d="M133.8,126.1c0-0.1,0.1-0.2,0.3-0.2l2.2,0.4c0.1,0,0.2,0.1,0.2,0.3l-0.2,1.1c0,0.1-0.1,0.2-0.3,0.2
								l-2.2-0.4c-0.1,0-0.2-0.1-0.2-0.3L133.8,126.1z"/>
						</g>
					</g>
					<g>
						<g>
							<path class="st25" d="M134.1,125.9l2.2,0.4c0.1,0,0.2,0.2,0.2,0.3l-0.2,1.1c0,0.1-0.2,0.2-0.3,0.2l-2.2-0.4
								c-0.1,0-0.2-0.2-0.2-0.3l0.2-1.1C133.8,125.9,133.9,125.8,134.1,125.9z M136,127.7c0.1,0,0.2-0.1,0.2-0.2l0.2-1.1
								c0-0.1-0.1-0.2-0.2-0.2l-2.2-0.4c-0.1,0-0.2,0.1-0.2,0.2l-0.2,1.1c0,0.1,0.1,0.2,0.2,0.2L136,127.7z"/>
						</g>
					</g>
				</g>
				<g>
					<g>
						<g>
							<path class="st24" d="M130.6,125.6c0-0.1,0.1-0.2,0.3-0.2l2.2,0.4c0.1,0,0.2,0.1,0.2,0.3l-0.2,1.1c0,0.1-0.1,0.2-0.3,0.2
								l-2.2-0.4c-0.1,0-0.2-0.1-0.2-0.3L130.6,125.6z"/>
						</g>
					</g>
					<g>
						<g>
							<path class="st25" d="M130.9,125.3l2.2,0.4c0.1,0,0.2,0.2,0.2,0.3l-0.2,1.1c0,0.1-0.2,0.2-0.3,0.2l-2.2-0.4
								c-0.1,0-0.2-0.2-0.2-0.3l0.2-1.1C130.6,125.4,130.7,125.3,130.9,125.3z M132.8,127.2c0.1,0,0.2-0.1,0.2-0.2l0.2-1.1
								c0-0.1-0.1-0.2-0.2-0.2l-2.2-0.4c-0.1,0-0.2,0-0.2,0.2l-0.2,1.1c0,0.1,0.1,0.2,0.2,0.2L132.8,127.2z"/>
						</g>
					</g>
				</g>
				<g>
					<g>
						<g>
							<path class="st24" d="M127.5,125c0-0.1,0.1-0.2,0.3-0.2l2.2,0.4c0.1,0,0.2,0.1,0.2,0.3l-0.2,1.1c0,0.1-0.1,0.2-0.3,0.2
								l-2.2-0.4c-0.1,0-0.2-0.1-0.2-0.3L127.5,125z"/>
						</g>
					</g>
					<g>
						<g>
							<path class="st25" d="M127.8,124.8l2.2,0.4c0.1,0,0.2,0.2,0.2,0.3l-0.2,1.1c0,0.1-0.2,0.2-0.3,0.2l-2.2-0.4
								c-0.1,0-0.2-0.2-0.2-0.3l0.2-1.1C127.5,124.9,127.6,124.8,127.8,124.8z M129.7,126.7c0.1,0,0.2-0.1,0.2-0.2l0.2-1.1
								c0-0.1-0.1-0.2-0.2-0.2l-2.2-0.4c-0.1,0-0.2,0.1-0.2,0.2l-0.2,1.1c0,0.1,0.1,0.2,0.2,0.2L129.7,126.7z"/>
						</g>
					</g>
				</g>
				<g>
					<g>
						<g>
							<path class="st24" d="M124.3,124.5c0-0.1,0.1-0.2,0.3-0.2l2.2,0.4c0.1,0,0.2,0.1,0.2,0.3l-0.2,1.1c0,0.1-0.1,0.2-0.3,0.2
								l-2.2-0.4c-0.1,0-0.2-0.1-0.2-0.3L124.3,124.5z"/>
						</g>
					</g>
					<g>
						<g>
							<path class="st25" d="M124.6,124.3l2.2,0.4c0.1,0,0.2,0.2,0.2,0.3l-0.2,1.1c0,0.1-0.2,0.2-0.3,0.2l-2.2-0.4
								c-0.1,0-0.2-0.2-0.2-0.3l0.2-1.1C124.3,124.4,124.5,124.3,124.6,124.3z M126.5,126.2c0.1,0,0.2-0.1,0.2-0.2l0.2-1.1
								c0-0.1-0.1-0.2-0.2-0.2l-2.2-0.4c-0.1,0-0.2,0.1-0.2,0.2l-0.2,1.1c0,0.1,0.1,0.2,0.2,0.2L126.5,126.2z"/>
						</g>
					</g>
				</g>
				<g>
					<g>
						<g>
							<path class="st24" d="M121.2,124c0-0.1,0.1-0.2,0.3-0.2l2.2,0.4c0.1,0,0.2,0.1,0.2,0.3l-0.2,1.1c0,0.1-0.1,0.2-0.3,0.2
								l-2.2-0.4c-0.1,0-0.2-0.1-0.2-0.3L121.2,124z"/>
						</g>
					</g>
					<g>
						<g>
							<path class="st25" d="M121.5,123.8l2.2,0.4c0.1,0,0.2,0.2,0.2,0.3l-0.2,1.1c0,0.1-0.2,0.2-0.3,0.2l-2.2-0.4
								c-0.1,0-0.2-0.2-0.2-0.3l0.2-1.1C121.2,123.9,121.3,123.8,121.5,123.8z M123.4,125.7c0.1,0,0.2-0.1,0.2-0.2l0.2-1.1
								c0-0.1-0.1-0.2-0.2-0.2l-2.2-0.4c-0.1,0-0.2,0.1-0.2,0.2l-0.2,1.1c0,0.1,0.1,0.2,0.2,0.2L123.4,125.7z"/>
						</g>
					</g>
				</g>
				<g>
					<g>
						<g>
							<path class="st24" d="M118,123.5c0-0.1,0.1-0.2,0.3-0.2l2.2,0.4c0.1,0,0.2,0.1,0.2,0.3l-0.2,1.1c0,0.1-0.1,0.2-0.3,0.2
								l-2.2-0.4c-0.1,0-0.2-0.1-0.2-0.3L118,123.5z"/>
						</g>
					</g>
					<g>
						<g>
							<path class="st25" d="M118.3,123.3l2.2,0.4c0.1,0,0.2,0.2,0.2,0.3l-0.2,1.1c0,0.1-0.2,0.2-0.3,0.2l-2.2-0.4
								c-0.1,0-0.2-0.2-0.2-0.3l0.2-1.1C118,123.3,118.1,123.2,118.3,123.3z M120.2,125.1c0.1,0,0.2-0.1,0.2-0.2l0.2-1.1
								c0-0.1-0.1-0.2-0.2-0.2l-2.2-0.4c-0.1,0-0.2,0.1-0.2,0.2l-0.2,1.1c0,0.1,0.1,0.2,0.2,0.2L120.2,125.1z"/>
						</g>
					</g>
				</g>
			</g>
			<g>
				<g>
					<g>
						<g>
							<path class="st24" d="M126.4,112.7c0-0.1-0.1-0.2-0.2-0.3l-5.9-1c-0.1,0-0.2,0.1-0.3,0.2l-0.3,2.1c0,0.1,0.1,0.2,0.2,0.3
								l5.9,1c0.1,0,0.2-0.1,0.3-0.2L126.4,112.7z"/>
						</g>
					</g>
					<g>
						<g>
							<path class="st25" d="M120.3,111.4l5.9,1c0.1,0,0.2,0.2,0.2,0.3l-0.3,2.1c0,0.1-0.2,0.2-0.3,0.2l-5.9-1
								c-0.1,0-0.2-0.2-0.2-0.3l0.3-2.1C120,111.5,120.1,111.4,120.3,111.4z M125.8,114.9c0.1,0,0.2-0.1,0.2-0.2l0.3-2.1
								c0-0.1-0.1-0.2-0.2-0.2l-5.9-1c-0.1,0-0.2,0.1-0.2,0.2l-0.3,2.1c0,0.1,0.1,0.2,0.2,0.2L125.8,114.9z"/>
						</g>
					</g>
				</g>
				<g>
					<g>
						<g>
							<path class="st24" d="M129.4,113.2c0-0.1-0.1-0.2-0.2-0.3l-2.2-0.4c-0.1,0-0.2,0.1-0.3,0.2l-0.3,2.1c0,0.1,0.1,0.2,0.2,0.3
								l2.2,0.4c0.1,0,0.2-0.1,0.3-0.2L129.4,113.2z"/>
						</g>
					</g>
					<g>
						<g>
							<path class="st25" d="M127.1,112.5l2.2,0.4c0.1,0,0.2,0.2,0.2,0.3l-0.3,2.1c0,0.1-0.2,0.2-0.3,0.2l-2.2-0.4
								c-0.1,0-0.2-0.2-0.2-0.3l0.3-2.1C126.8,112.6,126.9,112.5,127.1,112.5z M128.8,115.4c0.1,0,0.2-0.1,0.2-0.2l0.3-2.1
								c0-0.1-0.1-0.2-0.2-0.2l-2.2-0.4c-0.1,0-0.2,0.1-0.2,0.2l-0.3,2.1c0,0.1,0.1,0.2,0.2,0.2L128.8,115.4z"/>
						</g>
					</g>
				</g>
				<g>
					<g>
						<g>
							<path class="st24" d="M132.5,113.7c0-0.1-0.1-0.2-0.2-0.3l-2.2-0.4c-0.1,0-0.2,0.1-0.3,0.2l-0.3,2.1c0,0.1,0.1,0.2,0.2,0.3
								l2.2,0.4c0.1,0,0.2-0.1,0.3-0.2L132.5,113.7z"/>
						</g>
					</g>
					<g>
						<g>
							<path class="st25" d="M130.1,113l2.2,0.4c0.1,0,0.2,0.2,0.2,0.3l-0.3,2.1c0,0.1-0.2,0.2-0.3,0.2l-2.2-0.4
								c-0.1,0-0.2-0.2-0.2-0.3l0.3-2.1C129.8,113.1,130,113,130.1,113z M131.9,115.9c0.1,0,0.2-0.1,0.2-0.2l0.3-2.1
								c0-0.1-0.1-0.2-0.2-0.2l-2.2-0.4c-0.1,0-0.2,0.1-0.2,0.2l-0.3,2.1c0,0.1,0.1,0.2,0.2,0.2L131.9,115.9z"/>
						</g>
					</g>
				</g>
				<g>
					<g>
						<g>
							<path class="st24" d="M135.6,114.2c0-0.1-0.1-0.2-0.2-0.3l-2.2-0.4c-0.1,0-0.2,0.1-0.3,0.2l-0.3,2.1c0,0.1,0.1,0.2,0.2,0.3
								l2.2,0.4c0.1,0,0.2-0.1,0.3-0.2L135.6,114.2z"/>
						</g>
					</g>
					<g>
						<g>
							<path class="st25" d="M133.2,113.5l2.2,0.4c0.1,0,0.2,0.2,0.2,0.3l-0.3,2.1c0,0.1-0.2,0.2-0.3,0.2l-2.2-0.4
								c-0.1,0-0.2-0.2-0.2-0.3l0.3-2.1C132.9,113.6,133,113.5,133.2,113.5z M134.9,116.4c0.1,0,0.2-0.1,0.2-0.2l0.3-2.1
								c0-0.1-0.1-0.2-0.2-0.2l-2.2-0.4c-0.1,0-0.2,0.1-0.2,0.2l-0.3,2.1c0,0.1,0.1,0.2,0.2,0.2L134.9,116.4z"/>
						</g>
					</g>
				</g>
				<g>
					<g>
						<g>
							<path class="st24" d="M138.6,114.7c0-0.1-0.1-0.2-0.2-0.3l-2.2-0.4c-0.1,0-0.2,0.1-0.3,0.2l-0.3,2.1c0,0.1,0.1,0.2,0.2,0.3
								l2.2,0.4c0.1,0,0.2-0.1,0.3-0.2L138.6,114.7z"/>
						</g>
					</g>
					<g>
						<g>
							<path class="st25" d="M136.2,114l2.2,0.4c0.1,0,0.2,0.2,0.2,0.3l-0.3,2.1c0,0.1-0.2,0.2-0.3,0.2l-2.2-0.4
								c-0.1,0-0.2-0.2-0.2-0.3l0.3-2.1C135.9,114.1,136.1,114,136.2,114z M138,116.9c0.1,0,0.2-0.1,0.2-0.2l0.3-2.1
								c0-0.1-0.1-0.2-0.2-0.2l-2.2-0.4c-0.1,0-0.2,0.1-0.2,0.2l-0.3,2.1c0,0.1,0.1,0.2,0.2,0.2L138,116.9z"/>
						</g>
					</g>
				</g>
				<g>
					<g>
						<g>
							<path class="st24" d="M141.6,115.2c0-0.1-0.1-0.2-0.2-0.3l-2.2-0.4c-0.1,0-0.2,0.1-0.3,0.2l-0.3,2.1c0,0.1,0.1,0.2,0.2,0.3
								l2.2,0.4c0.1,0,0.2-0.1,0.3-0.2L141.6,115.2z"/>
						</g>
					</g>
					<g>
						<g>
							<path class="st25" d="M139.2,114.5l2.2,0.4c0.1,0,0.2,0.2,0.2,0.3l-0.3,2.1c0,0.1-0.2,0.2-0.3,0.2l-2.2-0.4
								c-0.1,0-0.2-0.2-0.2-0.3l0.3-2.1C139,114.6,139.1,114.5,139.2,114.5z M141,117.4c0.1,0,0.2-0.1,0.2-0.2l0.3-2.1
								c0-0.1-0.1-0.2-0.2-0.2l-2.2-0.4c-0.1,0-0.2,0.1-0.2,0.2l-0.3,2.1c0,0.1,0,0.2,0.2,0.2L141,117.4z"/>
						</g>
					</g>
				</g>
				<g>
					<g>
						<g>
							<path class="st24" d="M144.7,115.7c0-0.1-0.1-0.2-0.2-0.3l-2.2-0.4c-0.1,0-0.2,0.1-0.3,0.2l-0.3,2.1c0,0.1,0.1,0.2,0.2,0.3
								l2.2,0.4c0.1,0,0.2-0.1,0.3-0.2L144.7,115.7z"/>
						</g>
					</g>
					<g>
						<g>
							<path class="st25" d="M142.3,115l2.2,0.4c0.1,0,0.2,0.2,0.2,0.3l-0.3,2.1c0,0.1-0.2,0.2-0.3,0.2l-2.2-0.4
								c-0.1,0-0.2-0.2-0.2-0.3l0.3-2.1C142,115.1,142.1,115,142.3,115z M144.1,117.9c0.1,0,0.2-0.1,0.2-0.2l0.3-2.1
								c0-0.1-0.1-0.2-0.2-0.2l-2.2-0.4c-0.1,0-0.2,0.1-0.2,0.2l-0.3,2.1c0,0.1,0.1,0.2,0.2,0.2L144.1,117.9z"/>
						</g>
					</g>
				</g>
				<g>
					<g>
						<g>
							<path class="st24" d="M147.7,116.2c0-0.1-0.1-0.2-0.2-0.3l-2.2-0.4c-0.1,0-0.2,0.1-0.3,0.2l-0.3,2.1c0,0.1,0.1,0.2,0.2,0.3
								l2.2,0.4c0.1,0,0.2-0.1,0.3-0.2L147.7,116.2z"/>
						</g>
					</g>
					<g>
						<g>
							<path class="st25" d="M145.3,115.5l2.2,0.4c0.1,0,0.2,0.2,0.2,0.3l-0.3,2.1c0,0.1-0.2,0.2-0.3,0.2l-2.2-0.4
								c-0.1,0-0.2-0.2-0.2-0.3l0.3-2.1C145,115.6,145.2,115.5,145.3,115.5z M147.1,118.4c0.1,0,0.2-0.1,0.2-0.2l0.3-2.1
								c0-0.1-0.1-0.2-0.2-0.2l-2.2-0.4c-0.1,0-0.2,0.1-0.2,0.2l-0.3,2.1c0,0.1,0.1,0.2,0.2,0.2L147.1,118.4z"/>
						</g>
					</g>
				</g>
				<g>
					<g>
						<g>
							<path class="st24" d="M150.8,116.7c0-0.1-0.1-0.2-0.2-0.3l-2.2-0.4c-0.1,0-0.2,0.1-0.3,0.2l-0.3,2.1c0,0.1,0.1,0.2,0.2,0.3
								l2.2,0.4c0.1,0,0.2-0.1,0.3-0.2L150.8,116.7z"/>
						</g>
					</g>
					<g>
						<g>
							<path class="st25" d="M148.4,116l2.2,0.4c0.1,0,0.2,0.2,0.2,0.3l-0.3,2.1c0,0.1-0.2,0.2-0.3,0.2l-2.2-0.4
								c-0.1,0-0.2-0.2-0.2-0.3l0.3-2.1C148.1,116.1,148.2,116,148.4,116z M150.2,118.9c0.1,0,0.2-0.1,0.2-0.2l0.3-2.1
								c0-0.1-0.1-0.2-0.2-0.2l-2.2-0.4c-0.1,0-0.2,0.1-0.2,0.2l-0.3,2.1c0,0.1,0.1,0.2,0.2,0.2L150.2,118.9z"/>
						</g>
					</g>
				</g>
				<g>
					<g>
						<g>
							<path class="st24" d="M153.8,117.2c0-0.1-0.1-0.2-0.2-0.3l-2.2-0.4c-0.1,0-0.2,0.1-0.3,0.2l-0.3,2.1c0,0.1,0.1,0.2,0.2,0.3
								l2.2,0.4c0.1,0,0.2-0.1,0.3-0.2L153.8,117.2z"/>
						</g>
					</g>
					<g>
						<g>
							<path class="st25" d="M151.4,116.5l2.2,0.4c0.1,0,0.2,0.2,0.2,0.3l-0.3,2.1c0,0.1-0.2,0.2-0.3,0.2l-2.2-0.4
								c-0.1,0-0.2-0.2-0.2-0.3l0.3-2.1C151.1,116.6,151.2,116.5,151.4,116.5z M153.2,119.4c0.1,0,0.2-0.1,0.2-0.2l0.3-2.1
								c0-0.1-0.1-0.2-0.2-0.2l-2.2-0.4c-0.1,0-0.2,0.1-0.2,0.2l-0.3,2.1c0,0.1,0.1,0.2,0.2,0.2L153.2,119.4z"/>
						</g>
					</g>
				</g>
				<g>
					<g>
						<g>
							<path class="st24" d="M156.8,117.7c0-0.1-0.1-0.2-0.2-0.3l-2.2-0.4c-0.1,0-0.2,0.1-0.3,0.2l-0.3,2.1c0,0.1,0.1,0.2,0.2,0.3
								l2.2,0.4c0.1,0,0.2-0.1,0.3-0.2L156.8,117.7z"/>
						</g>
					</g>
					<g>
						<g>
							<path class="st25" d="M154.4,117l2.2,0.4c0.1,0,0.2,0.2,0.2,0.3l-0.3,2.1c0,0.1-0.2,0.2-0.3,0.2l-2.2-0.4
								c-0.1,0-0.2-0.2-0.2-0.3l0.3-2.1C154.1,117.1,154.3,117,154.4,117z M156.2,120c0.1,0,0.2-0.1,0.2-0.2l0.3-2.1
								c0-0.1-0.1-0.2-0.2-0.2l-2.2-0.4c-0.1,0-0.2,0.1-0.2,0.2l-0.3,2.1c0,0.1,0.1,0.2,0.2,0.2L156.2,120z"/>
						</g>
					</g>
				</g>
				<g>
					<g>
						<g>
							<path class="st24" d="M163.6,118.8c0-0.1-0.1-0.2-0.2-0.3l-5.9-1c-0.1,0-0.2,0.1-0.3,0.2l-0.3,2.1c0,0.1,0.1,0.2,0.2,0.3
								l5.9,1c0.1,0,0.2-0.1,0.3-0.2L163.6,118.8z"/>
						</g>
					</g>
					<g>
						<g>
							<path class="st25" d="M157.5,117.5l5.9,1c0.1,0,0.2,0.2,0.2,0.3l-0.3,2.1c0,0.1-0.2,0.2-0.3,0.2l-5.9-1
								c-0.1,0-0.2-0.2-0.2-0.3l0.3-2.1C157.2,117.6,157.3,117.5,157.5,117.5z M163,121.1c0.1,0,0.2-0.1,0.2-0.2l0.3-2.1
								c0-0.1-0.1-0.2-0.2-0.2l-5.9-1c-0.1,0-0.2,0.1-0.2,0.2l-0.3,2.1c0,0.1,0.1,0.2,0.2,0.2L163,121.1z"/>
						</g>
					</g>
				</g>
			</g>
			<g>
				<g>
					<g>
						<g>
							<path class="st26" d="M119.8,108.4c0.1-0.5,0.6-0.8,1-0.8l43.1,7.2c0.5,0.1,0.8,0.6,0.8,1.1l-2.6,15.9
								c-0.1,0.5-0.6,0.8-1.1,0.8l-43.1-7.2c-0.5-0.1-0.8-0.6-0.8-1.1L119.8,108.4z"/>
						</g>
					</g>
				</g>
				<g>
					<g>
						<g>
							<g>
								<g>
									<path class="st7" d="M159,130.3c0-0.1,0.1-0.2,0.3-0.2l2.2,0.4c0.1,0,0.2,0.1,0.2,0.3l-0.2,1.1c0,0.1-0.1,0.2-0.3,0.2
										l-2.2-0.4c-0.1,0-0.2-0.1-0.2-0.3L159,130.3z"/>
								</g>
							</g>
							<g>
								<g>
									<path class="st27" d="M159.2,130l2.2,0.4c0.1,0,0.2,0.2,0.2,0.3l-0.2,1.1c0,0.1-0.2,0.2-0.3,0.2l-2.2-0.4
										c-0.1,0-0.2-0.2-0.2-0.3l0.2-1.1C159,130.1,159.1,130,159.2,130z M161.2,131.9c0.1,0,0.2-0.1,0.2-0.2l0.2-1.1
										c0-0.1-0.1-0.2-0.2-0.2l-2.2-0.4c-0.1,0-0.2,0.1-0.2,0.2l-0.2,1.1c0,0.1,0.1,0.2,0.2,0.2L161.2,131.9z"/>
								</g>
							</g>
						</g>
						<g>
							<g>
								<g>
									<path class="st7" d="M155.8,129.7c0-0.1,0.1-0.2,0.3-0.2l2.2,0.4c0.1,0,0.2,0.1,0.2,0.3l-0.2,1.1c0,0.1-0.1,0.2-0.3,0.2
										l-2.2-0.4c-0.1,0-0.2-0.1-0.2-0.3L155.8,129.7z"/>
								</g>
							</g>
							<g>
								<g>
									<path class="st27" d="M156.1,129.5l2.2,0.4c0.1,0,0.2,0.2,0.2,0.3l-0.2,1.1c0,0.1-0.2,0.2-0.3,0.2l-2.2-0.4
										c-0.1,0-0.2-0.2-0.2-0.3l0.2-1.1C155.8,129.6,155.9,129.5,156.1,129.5z M158,131.4c0.1,0,0.2-0.1,0.2-0.2l0.2-1.1
										c0-0.1-0.1-0.2-0.2-0.2l-2.2-0.4c-0.1,0-0.2,0.1-0.2,0.2l-0.2,1.1c0,0.1,0.1,0.2,0.2,0.2L158,131.4z"/>
								</g>
							</g>
						</g>
						<g>
							<g>
								<g>
									<path class="st7" d="M152.7,129.2c0-0.1,0.1-0.2,0.3-0.2l2.2,0.4c0.1,0,0.2,0.1,0.2,0.3l-0.2,1.1c0,0.1-0.1,0.2-0.3,0.2
										l-2.2-0.4c-0.1,0-0.2-0.1-0.2-0.3L152.7,129.2z"/>
								</g>
							</g>
							<g>
								<g>
									<path class="st27" d="M153,129l2.2,0.4c0.1,0,0.2,0.2,0.2,0.3l-0.2,1.1c0,0.1-0.2,0.2-0.3,0.2l-2.2-0.4
										c-0.1,0-0.2-0.2-0.2-0.3l0.2-1.1C152.7,129.1,152.8,129,153,129z M154.9,130.9c0.1,0,0.2-0.1,0.2-0.2l0.2-1.1
										c0-0.1-0.1-0.2-0.2-0.2l-2.2-0.4c-0.1,0-0.2,0.1-0.2,0.2l-0.2,1.1c0,0.1,0.1,0.2,0.2,0.2L154.9,130.9z"/>
								</g>
							</g>
						</g>
						<g>
							<g>
								<g>
									<path class="st7" d="M149.5,128.7c0-0.1,0.1-0.2,0.3-0.2l2.2,0.4c0.1,0,0.2,0.1,0.2,0.3l-0.2,1.1c0,0.1-0.1,0.2-0.3,0.2
										l-2.2-0.4c-0.1,0-0.2-0.1-0.2-0.3L149.5,128.7z"/>
								</g>
							</g>
							<g>
								<g>
									<path class="st27" d="M149.8,128.5l2.2,0.4c0.1,0,0.2,0.2,0.2,0.3l-0.2,1.1c0,0.1-0.2,0.2-0.3,0.2l-2.2-0.4
										c-0.1,0-0.2-0.2-0.2-0.3l0.2-1.1C149.5,128.5,149.6,128.4,149.8,128.5z M151.7,130.3c0.1,0,0.2-0.1,0.2-0.2l0.2-1.1
										c0-0.1-0.1-0.2-0.2-0.2l-2.2-0.4c-0.1,0-0.2,0.1-0.2,0.2l-0.2,1.1c0,0.1,0,0.2,0.2,0.2L151.7,130.3z"/>
								</g>
							</g>
						</g>
						<g>
							<g>
								<g>
									<path class="st7" d="M146.4,128.2c0-0.1,0.1-0.2,0.3-0.2l2.2,0.4c0.1,0,0.2,0.1,0.2,0.3l-0.2,1.1c0,0.1-0.1,0.2-0.3,0.2
										l-2.2-0.4c-0.1,0-0.2-0.1-0.2-0.3L146.4,128.2z"/>
								</g>
							</g>
							<g>
								<g>
									<path class="st27" d="M146.7,127.9l2.2,0.4c0.1,0,0.2,0.2,0.2,0.3l-0.2,1.1c0,0.1-0.2,0.2-0.3,0.2l-2.2-0.4
										c-0.1,0-0.2-0.2-0.2-0.3l0.2-1.1C146.4,128,146.5,127.9,146.7,127.9z M148.6,129.8c0.1,0,0.2-0.1,0.2-0.2l0.2-1.1
										c0-0.1-0.1-0.2-0.2-0.2l-2.2-0.4c-0.1,0-0.2,0.1-0.2,0.2l-0.2,1.1c0,0.1,0.1,0.2,0.2,0.2L148.6,129.8z"/>
								</g>
							</g>
						</g>
						<g>
							<g>
								<g>
									<path class="st7" d="M143.2,127.6c0-0.1,0.1-0.2,0.3-0.2l2.2,0.4c0.1,0,0.2,0.1,0.2,0.3l-0.2,1.1c0,0.1-0.1,0.2-0.3,0.2
										l-2.2-0.4c-0.1,0-0.2-0.1-0.2-0.3L143.2,127.6z"/>
								</g>
							</g>
							<g>
								<g>
									<path class="st27" d="M143.5,127.4l2.2,0.4c0.1,0,0.2,0.2,0.2,0.3l-0.2,1.1c0,0.1-0.2,0.2-0.3,0.2l-2.2-0.4
										c-0.1,0-0.2-0.2-0.2-0.3l0.2-1.1C143.2,127.5,143.3,127.4,143.5,127.4z M145.4,129.3c0.1,0,0.2-0.1,0.2-0.2l0.2-1.1
										c0-0.1-0.1-0.2-0.2-0.2l-2.2-0.4c-0.1,0-0.2,0.1-0.2,0.2l-0.2,1.1c0,0.1,0.1,0.2,0.2,0.2L145.4,129.3z"/>
								</g>
							</g>
						</g>
						<g>
							<g>
								<g>
									<path class="st7" d="M140.1,127.1c0-0.1,0.1-0.2,0.3-0.2l2.2,0.4c0.1,0,0.2,0.1,0.2,0.3l-0.2,1.1c0,0.1-0.1,0.2-0.3,0.2
										l-2.2-0.4c-0.1,0-0.2-0.1-0.2-0.3L140.1,127.1z"/>
								</g>
							</g>
							<g>
								<g>
									<path class="st27" d="M140.4,126.9l2.2,0.4c0.1,0,0.2,0.2,0.2,0.3l-0.2,1.1c0,0.1-0.2,0.2-0.3,0.2l-2.2-0.4
										c-0.1,0-0.2-0.2-0.2-0.3l0.2-1.1C140.1,127,140.2,126.9,140.4,126.9z M142.3,128.8c0.1,0,0.2-0.1,0.2-0.2l0.2-1.1
										c0-0.1-0.1-0.2-0.2-0.2l-2.2-0.4c-0.1,0-0.2,0.1-0.2,0.2l-0.2,1.1c0,0.1,0.1,0.2,0.2,0.2L142.3,128.8z"/>
								</g>
							</g>
						</g>
						<g>
							<g>
								<g>
									<path class="st7" d="M136.9,126.6c0-0.1,0.1-0.2,0.3-0.2l2.2,0.4c0.1,0,0.2,0.1,0.2,0.3l-0.2,1.1c0,0.1-0.1,0.2-0.3,0.2
										l-2.2-0.4c-0.1,0-0.2-0.1-0.2-0.3L136.9,126.6z"/>
								</g>
							</g>
							<g>
								<g>
									<path class="st27" d="M137.2,126.4l2.2,0.4c0.1,0,0.2,0.2,0.2,0.3l-0.2,1.1c0,0.1-0.2,0.2-0.3,0.2l-2.2-0.4
										c-0.1,0-0.2-0.2-0.2-0.3l0.2-1.1C136.9,126.4,137,126.3,137.2,126.4z M139.1,128.2c0.1,0,0.2-0.1,0.2-0.2l0.2-1.1
										c0-0.1-0.1-0.2-0.2-0.2l-2.2-0.4c-0.1,0-0.2,0.1-0.2,0.2l-0.2,1.1c0,0.1,0.1,0.2,0.2,0.2L139.1,128.2z"/>
								</g>
							</g>
						</g>
						<g>
							<g>
								<g>
									<path class="st7" d="M133.8,126.1c0-0.1,0.1-0.2,0.3-0.2l2.2,0.4c0.1,0,0.2,0.1,0.2,0.3l-0.2,1.1c0,0.1-0.1,0.2-0.3,0.2
										l-2.2-0.4c-0.1,0-0.2-0.1-0.2-0.3L133.8,126.1z"/>
								</g>
							</g>
							<g>
								<g>
									<path class="st27" d="M134.1,125.9l2.2,0.4c0.1,0,0.2,0.2,0.2,0.3l-0.2,1.1c0,0.1-0.2,0.2-0.3,0.2l-2.2-0.4
										c-0.1,0-0.2-0.2-0.2-0.3l0.2-1.1C133.8,125.9,133.9,125.8,134.1,125.9z M136,127.7c0.1,0,0.2-0.1,0.2-0.2l0.2-1.1
										c0-0.1-0.1-0.2-0.2-0.2l-2.2-0.4c-0.1,0-0.2,0.1-0.2,0.2l-0.2,1.1c0,0.1,0.1,0.2,0.2,0.2L136,127.7z"/>
								</g>
							</g>
						</g>
						<g>
							<g>
								<g>
									<path class="st7" d="M130.6,125.6c0-0.1,0.1-0.2,0.3-0.2l2.2,0.4c0.1,0,0.2,0.1,0.2,0.3l-0.2,1.1c0,0.1-0.1,0.2-0.3,0.2
										l-2.2-0.4c-0.1,0-0.2-0.1-0.2-0.3L130.6,125.6z"/>
								</g>
							</g>
							<g>
								<g>
									<path class="st27" d="M130.9,125.3l2.2,0.4c0.1,0,0.2,0.2,0.2,0.3l-0.2,1.1c0,0.1-0.2,0.2-0.3,0.2l-2.2-0.4
										c-0.1,0-0.2-0.2-0.2-0.3l0.2-1.1C130.6,125.4,130.7,125.3,130.9,125.3z M132.8,127.2c0.1,0,0.2-0.1,0.2-0.2l0.2-1.1
										c0-0.1-0.1-0.2-0.2-0.2l-2.2-0.4c-0.1,0-0.2,0-0.2,0.2l-0.2,1.1c0,0.1,0.1,0.2,0.2,0.2L132.8,127.2z"/>
								</g>
							</g>
						</g>
						<g>
							<g>
								<g>
									<path class="st7" d="M127.5,125c0-0.1,0.1-0.2,0.3-0.2l2.2,0.4c0.1,0,0.2,0.1,0.2,0.3l-0.2,1.1c0,0.1-0.1,0.2-0.3,0.2
										l-2.2-0.4c-0.1,0-0.2-0.1-0.2-0.3L127.5,125z"/>
								</g>
							</g>
							<g>
								<g>
									<path class="st27" d="M127.8,124.8l2.2,0.4c0.1,0,0.2,0.2,0.2,0.3l-0.2,1.1c0,0.1-0.2,0.2-0.3,0.2l-2.2-0.4
										c-0.1,0-0.2-0.2-0.2-0.3l0.2-1.1C127.5,124.9,127.6,124.8,127.8,124.8z M129.7,126.7c0.1,0,0.2-0.1,0.2-0.2l0.2-1.1
										c0-0.1-0.1-0.2-0.2-0.2l-2.2-0.4c-0.1,0-0.2,0.1-0.2,0.2l-0.2,1.1c0,0.1,0.1,0.2,0.2,0.2L129.7,126.7z"/>
								</g>
							</g>
						</g>
						<g>
							<g>
								<g>
									<path class="st7" d="M124.3,124.5c0-0.1,0.1-0.2,0.3-0.2l2.2,0.4c0.1,0,0.2,0.1,0.2,0.3l-0.2,1.1c0,0.1-0.1,0.2-0.3,0.2
										l-2.2-0.4c-0.1,0-0.2-0.1-0.2-0.3L124.3,124.5z"/>
								</g>
							</g>
							<g>
								<g>
									<path class="st27" d="M124.6,124.3l2.2,0.4c0.1,0,0.2,0.2,0.2,0.3l-0.2,1.1c0,0.1-0.2,0.2-0.3,0.2l-2.2-0.4
										c-0.1,0-0.2-0.2-0.2-0.3l0.2-1.1C124.3,124.4,124.5,124.3,124.6,124.3z M126.5,126.2c0.1,0,0.2-0.1,0.2-0.2l0.2-1.1
										c0-0.1-0.1-0.2-0.2-0.2l-2.2-0.4c-0.1,0-0.2,0.1-0.2,0.2l-0.2,1.1c0,0.1,0.1,0.2,0.2,0.2L126.5,126.2z"/>
								</g>
							</g>
						</g>
						<g>
							<g>
								<g>
									<path class="st7" d="M121.2,124c0-0.1,0.1-0.2,0.3-0.2l2.2,0.4c0.1,0,0.2,0.1,0.2,0.3l-0.2,1.1c0,0.1-0.1,0.2-0.3,0.2
										l-2.2-0.4c-0.1,0-0.2-0.1-0.2-0.3L121.2,124z"/>
								</g>
							</g>
							<g>
								<g>
									<path class="st27" d="M121.5,123.8l2.2,0.4c0.1,0,0.2,0.2,0.2,0.3l-0.2,1.1c0,0.1-0.2,0.2-0.3,0.2l-2.2-0.4
										c-0.1,0-0.2-0.2-0.2-0.3l0.2-1.1C121.2,123.9,121.3,123.8,121.5,123.8z M123.4,125.7c0.1,0,0.2-0.1,0.2-0.2l0.2-1.1
										c0-0.1-0.1-0.2-0.2-0.2l-2.2-0.4c-0.1,0-0.2,0.1-0.2,0.2l-0.2,1.1c0,0.1,0.1,0.2,0.2,0.2L123.4,125.7z"/>
								</g>
							</g>
						</g>
						<g>
							<g>
								<g>
									<path class="st7" d="M118,123.5c0-0.1,0.1-0.2,0.3-0.2l2.2,0.4c0.1,0,0.2,0.1,0.2,0.3l-0.2,1.1c0,0.1-0.1,0.2-0.3,0.2
										l-2.2-0.4c-0.1,0-0.2-0.1-0.2-0.3L118,123.5z"/>
								</g>
							</g>
							<g>
								<g>
									<path class="st27" d="M118.3,123.3l2.2,0.4c0.1,0,0.2,0.2,0.2,0.3l-0.2,1.1c0,0.1-0.2,0.2-0.3,0.2l-2.2-0.4
										c-0.1,0-0.2-0.2-0.2-0.3l0.2-1.1C118,123.3,118.1,123.2,118.3,123.3z M120.2,125.1c0.1,0,0.2-0.1,0.2-0.2l0.2-1.1
										c0-0.1-0.1-0.2-0.2-0.2l-2.2-0.4c-0.1,0-0.2,0.1-0.2,0.2l-0.2,1.1c0,0.1,0.1,0.2,0.2,0.2L120.2,125.1z"/>
								</g>
							</g>
						</g>
					</g>
					<g>
						<g>
							<g>
								<g>
									<path class="st7" d="M159.5,127.3c0-0.1,0.1-0.2,0.3-0.2l2.2,0.4c0.1,0,0.2,0.1,0.2,0.3l-0.3,2.1c0,0.1-0.1,0.2-0.3,0.2
										l-2.2-0.4c-0.1,0-0.2-0.1-0.2-0.3L159.5,127.3z"/>
								</g>
							</g>
							<g>
								<g>
									<path class="st27" d="M159.8,127l2.2,0.4c0.1,0,0.2,0.2,0.2,0.3l-0.3,2.1c0,0.1-0.2,0.2-0.3,0.2l-2.2-0.4
										c-0.1,0-0.2-0.2-0.2-0.3l0.3-2.1C159.5,127.1,159.6,127,159.8,127z M161.5,129.9c0.1,0,0.2-0.1,0.2-0.2l0.3-2.1
										c0-0.1-0.1-0.2-0.2-0.2l-2.2-0.4c-0.1,0-0.2,0.1-0.2,0.2l-0.3,2.1c0,0.1,0.1,0.2,0.2,0.2L161.5,129.9z"/>
								</g>
							</g>
						</g>
						<g>
							<g>
								<g>
									<path class="st7" d="M156.5,126.7c0-0.1,0.1-0.2,0.3-0.2l2.2,0.4c0.1,0,0.2,0.1,0.2,0.3l-0.3,2.1c0,0.1-0.1,0.2-0.3,0.2
										l-2.2-0.4c-0.1,0-0.2-0.1-0.2-0.3L156.5,126.7z"/>
								</g>
							</g>
							<g>
								<g>
									<path class="st27" d="M156.7,126.5l2.2,0.4c0.1,0,0.2,0.2,0.2,0.3l-0.3,2.1c0,0.1-0.2,0.2-0.3,0.2l-2.2-0.4
										c-0.1,0-0.2-0.2-0.2-0.3l0.3-2.1C156.4,126.6,156.6,126.5,156.7,126.5z M158.5,129.4c0.1,0,0.2-0.1,0.2-0.2l0.3-2.1
										c0-0.1-0.1-0.2-0.2-0.2l-2.2-0.4c-0.1,0-0.2,0.1-0.2,0.2l-0.3,2.1c0,0.1,0.1,0.2,0.2,0.2L158.5,129.4z"/>
								</g>
							</g>
						</g>
						<g>
							<g>
								<g>
									<path class="st7" d="M153.4,126.2c0-0.1,0.1-0.2,0.3-0.2l2.2,0.4c0.1,0,0.2,0.1,0.2,0.3l-0.3,2.1c0,0.1-0.1,0.2-0.3,0.2
										l-2.2-0.4c-0.1,0-0.2-0.1-0.2-0.3L153.4,126.2z"/>
								</g>
							</g>
							<g>
								<g>
									<path class="st27" d="M153.7,126l2.2,0.4c0.1,0,0.2,0.2,0.2,0.3l-0.3,2.1c0,0.1-0.2,0.2-0.3,0.2l-2.2-0.4
										c-0.1,0-0.2-0.2-0.2-0.3l0.3-2.1C153.4,126.1,153.5,126,153.7,126z M155.5,128.9c0.1,0,0.2-0.1,0.2-0.2l0.3-2.1
										c0-0.1-0.1-0.2-0.2-0.2l-2.2-0.4c-0.1,0-0.2,0.1-0.2,0.2l-0.3,2.1c0,0.1,0.1,0.2,0.2,0.2L155.5,128.9z"/>
								</g>
							</g>
						</g>
						<g>
							<g>
								<g>
									<path class="st7" d="M150.4,125.7c0-0.1,0.1-0.2,0.3-0.2l2.2,0.4c0.1,0,0.2,0.1,0.2,0.3l-0.3,2.1c0,0.1-0.1,0.2-0.3,0.2
										l-2.2-0.4c-0.1,0-0.2-0.1-0.2-0.3L150.4,125.7z"/>
								</g>
							</g>
							<g>
								<g>
									<path class="st27" d="M150.7,125.5l2.2,0.4c0.1,0,0.2,0.2,0.2,0.3l-0.3,2.1c0,0.1-0.2,0.2-0.3,0.2l-2.2-0.4
										c-0.1,0-0.2-0.2-0.2-0.3l0.3-2.1C150.4,125.6,150.5,125.5,150.7,125.5z M152.4,128.4c0.1,0,0.2-0.1,0.2-0.2l0.3-2.1
										c0-0.1-0.1-0.2-0.2-0.2l-2.2-0.4c-0.1,0-0.2,0.1-0.2,0.2l-0.3,2.1c0,0.1,0.1,0.2,0.2,0.2L152.4,128.4z"/>
								</g>
							</g>
						</g>
						<g>
							<g>
								<g>
									<path class="st7" d="M147.4,125.2c0-0.1,0.1-0.2,0.3-0.2l2.2,0.4c0.1,0,0.2,0.1,0.2,0.3l-0.3,2.1c0,0.1-0.1,0.2-0.3,0.2
										l-2.2-0.4c-0.1,0-0.2-0.1-0.2-0.3L147.4,125.2z"/>
								</g>
							</g>
							<g>
								<g>
									<path class="st27" d="M147.6,125l2.2,0.4c0.1,0,0.2,0.2,0.2,0.3l-0.3,2.1c0,0.1-0.2,0.2-0.3,0.2l-2.2-0.4
										c-0.1,0-0.2-0.2-0.2-0.3l0.3-2.1C147.3,125.1,147.5,125,147.6,125z M149.4,127.9c0.1,0,0.2-0.1,0.2-0.2l0.3-2.1
										c0-0.1-0.1-0.2-0.2-0.2l-2.2-0.4c-0.1,0-0.2,0.1-0.2,0.2l-0.3,2.1c0,0.1,0.1,0.2,0.2,0.2L149.4,127.9z"/>
								</g>
							</g>
						</g>
						<g>
							<g>
								<g>
									<path class="st7" d="M144.3,124.7c0-0.1,0.1-0.2,0.3-0.2l2.2,0.4c0.1,0,0.2,0.1,0.2,0.3l-0.3,2.1c0,0.1-0.1,0.2-0.3,0.2
										l-2.2-0.4c-0.1,0-0.2-0.1-0.2-0.3L144.3,124.7z"/>
								</g>
							</g>
							<g>
								<g>
									<path class="st27" d="M144.6,124.5l2.2,0.4c0.1,0,0.2,0.2,0.2,0.3l-0.3,2.1c0,0.1-0.2,0.2-0.3,0.2l-2.2-0.4
										c-0.1,0-0.2-0.2-0.2-0.3l0.3-2.1C144.3,124.6,144.4,124.5,144.6,124.5z M146.3,127.4c0.1,0,0.2-0.1,0.2-0.2l0.3-2.1
										c0-0.1-0.1-0.2-0.2-0.2l-2.2-0.4c-0.1,0-0.2,0.1-0.2,0.2l-0.3,2.1c0,0.1,0.1,0.2,0.2,0.2L146.3,127.4z"/>
								</g>
							</g>
						</g>
						<g>
							<g>
								<g>
									<path class="st7" d="M141.3,124.2c0-0.1,0.1-0.2,0.3-0.2l2.2,0.4c0.1,0,0.2,0.1,0.2,0.3l-0.3,2.1c0,0.1-0.1,0.2-0.3,0.2
										l-2.2-0.4c-0.1,0-0.2-0.1-0.2-0.3L141.3,124.2z"/>
								</g>
							</g>
							<g>
								<g>
									<path class="st27" d="M141.5,124l2.2,0.4c0.1,0,0.2,0.2,0.2,0.3l-0.3,2.1c0,0.1-0.2,0.2-0.3,0.2l-2.2-0.4
										c-0.1,0-0.2-0.2-0.2-0.3l0.3-2.1C141.3,124.1,141.4,124,141.5,124z M143.3,126.9c0.1,0,0.2-0.1,0.2-0.2l0.3-2.1
										c0-0.1-0.1-0.2-0.2-0.2l-2.2-0.4c-0.1,0-0.2,0.1-0.2,0.2l-0.3,2.1c0,0.1,0.1,0.2,0.2,0.2L143.3,126.9z"/>
								</g>
							</g>
						</g>
						<g>
							<g>
								<g>
									<path class="st7" d="M138.2,123.7c0-0.1,0.1-0.2,0.3-0.2l2.2,0.4c0.1,0,0.2,0.1,0.2,0.3l-0.3,2.1c0,0.1-0.1,0.2-0.3,0.2
										l-2.2-0.4c-0.1,0-0.2-0.1-0.2-0.3L138.2,123.7z"/>
								</g>
							</g>
							<g>
								<g>
									<path class="st27" d="M138.5,123.5l2.2,0.4c0.1,0,0.2,0.2,0.2,0.3l-0.3,2.1c0,0.1-0.2,0.2-0.3,0.2l-2.2-0.4
										c-0.1,0-0.2-0.2-0.2-0.3l0.3-2.1C138.2,123.6,138.4,123.5,138.5,123.5z M140.3,126.4c0.1,0,0.2-0.1,0.2-0.2l0.3-2.1
										c0-0.1-0.1-0.2-0.2-0.2l-2.2-0.4c-0.1,0-0.2,0.1-0.2,0.2l-0.4,2.1c0,0.1,0.1,0.2,0.2,0.2L140.3,126.4z"/>
								</g>
							</g>
						</g>
						<g>
							<g>
								<g>
									<path class="st7" d="M135.2,123.2c0-0.1,0.1-0.2,0.3-0.2l2.2,0.4c0.1,0,0.2,0.1,0.2,0.3l-0.3,2.1c0,0.1-0.1,0.2-0.3,0.2
										l-2.2-0.4c-0.1,0-0.2-0.1-0.2-0.3L135.2,123.2z"/>
								</g>
							</g>
							<g>
								<g>
									<path class="st27" d="M135.5,123l2.2,0.4c0.1,0,0.2,0.2,0.2,0.3l-0.3,2.1c0,0.1-0.2,0.2-0.3,0.2l-2.2-0.4
										c-0.1,0-0.2-0.2-0.2-0.3l0.3-2.1C135.2,123.1,135.3,123,135.5,123z M137.2,125.9c0.1,0,0.2-0.1,0.2-0.2l0.3-2.1
										c0-0.1-0.1-0.2-0.2-0.2l-2.2-0.4c-0.1,0-0.2,0.1-0.2,0.2l-0.3,2.1c0,0.1,0.1,0.2,0.2,0.2L137.2,125.9z"/>
								</g>
							</g>
						</g>
						<g>
							<g>
								<g>
									<path class="st7" d="M132.2,122.7c0-0.1,0.1-0.2,0.3-0.2l2.2,0.4c0.1,0,0.2,0.1,0.2,0.3l-0.3,2.1c0,0.1-0.1,0.2-0.3,0.2
										l-2.2-0.4c-0.1,0-0.2-0.1-0.2-0.3L132.2,122.7z"/>
								</g>
							</g>
							<g>
								<g>
									<path class="st27" d="M132.4,122.5l2.2,0.4c0.1,0,0.2,0.2,0.2,0.3l-0.3,2.1c0,0.1-0.2,0.2-0.3,0.2l-2.2-0.4
										c-0.1,0-0.2-0.2-0.2-0.3l0.3-2.1C132.2,122.6,132.3,122.5,132.4,122.5z M134.2,125.4c0.1,0,0.2-0.1,0.2-0.2l0.3-2.1
										c0-0.1,0-0.2-0.2-0.2l-2.2-0.4c-0.1,0-0.2,0.1-0.2,0.2l-0.3,2.1c0,0.1,0.1,0.2,0.2,0.2L134.2,125.4z"/>
								</g>
							</g>
						</g>
						<g>
							<g>
								<g>
									<path class="st7" d="M129.1,122.2c0-0.1,0.1-0.2,0.3-0.2l2.2,0.4c0.1,0,0.2,0.1,0.2,0.3l-0.3,2.1c0,0.1-0.1,0.2-0.3,0.2
										l-2.2-0.4c-0.1,0-0.2-0.1-0.2-0.3L129.1,122.2z"/>
								</g>
							</g>
							<g>
								<g>
									<path class="st27" d="M129.4,122l2.2,0.4c0.1,0,0.2,0.2,0.2,0.3l-0.3,2.1c0,0.1-0.2,0.2-0.3,0.2l-2.2-0.4
										c-0.1,0-0.2-0.2-0.2-0.3l0.3-2.1C129.1,122.1,129.2,122,129.4,122z M131.1,124.9c0.1,0,0.2-0.1,0.2-0.2l0.3-2.1
										c0-0.1-0.1-0.2-0.2-0.2l-2.2-0.4c-0.1,0-0.2,0.1-0.2,0.2l-0.3,2.1c0,0.1,0.1,0.2,0.2,0.2L131.1,124.9z"/>
								</g>
							</g>
						</g>
						<g>
							<g>
								<g>
									<path class="st7" d="M126.1,121.7c0-0.1,0.1-0.2,0.3-0.2l2.2,0.4c0.1,0,0.2,0.1,0.2,0.3l-0.3,2.1c0,0.1-0.1,0.2-0.3,0.2
										l-2.2-0.4c-0.1,0-0.2-0.1-0.2-0.3L126.1,121.7z"/>
								</g>
							</g>
							<g>
								<g>
									<path class="st27" d="M126.4,121.5l2.2,0.4c0.1,0,0.2,0.2,0.2,0.3l-0.3,2.1c0,0.1-0.2,0.2-0.3,0.2l-2.2-0.4
										c-0.1,0-0.2-0.2-0.2-0.3l0.3-2.1C126.1,121.6,126.2,121.5,126.4,121.5z M128.1,124.4c0.1,0,0.2-0.1,0.2-0.2l0.3-2.1
										c0-0.1-0.1-0.2-0.2-0.2l-2.2-0.4c-0.1,0-0.2,0.1-0.2,0.2l-0.3,2.1c0,0.1,0.1,0.2,0.2,0.2L128.1,124.4z"/>
								</g>
							</g>
						</g>
						<g>
							<g>
								<g>
									<path class="st7" d="M123.1,121.2c0-0.1,0.1-0.2,0.3-0.2l2.2,0.4c0.1,0,0.2,0.1,0.2,0.3l-0.3,2.1c0,0.1-0.1,0.2-0.3,0.2
										l-2.2-0.4c-0.1,0-0.2-0.1-0.2-0.3L123.1,121.2z"/>
								</g>
							</g>
							<g>
								<g>
									<path class="st27" d="M123.3,121l2.2,0.4c0.1,0,0.2,0.2,0.2,0.3l-0.3,2.1c0,0.1-0.2,0.2-0.3,0.2l-2.2-0.4
										c-0.1,0-0.2-0.2-0.2-0.3l0.3-2.1C123,121.1,123.2,121,123.3,121z M125.1,123.9c0.1,0,0.2-0.1,0.2-0.2l0.3-2.1
										c0-0.1-0.1-0.2-0.2-0.2l-2.2-0.4c-0.1,0-0.2,0.1-0.2,0.2l-0.3,2.1c0,0.1,0.1,0.2,0.2,0.2L125.1,123.9z"/>
								</g>
							</g>
						</g>
						<g>
							<g>
								<g>
									<path class="st7" d="M118.5,120.5c0-0.1,0.1-0.2,0.3-0.2l3.7,0.6c0.1,0,0.2,0.1,0.2,0.3l-0.3,2.1c0,0.1-0.1,0.2-0.3,0.2
										l-3.7-0.6c-0.1,0-0.2-0.1-0.2-0.3L118.5,120.5z"/>
								</g>
							</g>
							<g>
								<g>
									<path class="st27" d="M118.8,120.2l3.7,0.6c0.1,0,0.2,0.2,0.2,0.3l-0.3,2.1c0,0.1-0.2,0.2-0.3,0.2l-3.7-0.6
										c-0.1,0-0.2-0.2-0.2-0.3l0.3-2.1C118.5,120.3,118.6,120.2,118.8,120.2z M122.1,123.4c0.1,0,0.2-0.1,0.2-0.2l0.3-2.1
										c0-0.1-0.1-0.2-0.2-0.2l-3.7-0.6c-0.1,0-0.2,0.1-0.2,0.2l-0.3,2.1c0,0.1,0.1,0.2,0.2,0.2L122.1,123.4z"/>
								</g>
							</g>
						</g>
					</g>
					<g>
						<g>
							<g>
								<g>
									<path class="st7" d="M121.6,117.9c0-0.1-0.1-0.2-0.2-0.3l-2.2-0.4c-0.1,0-0.2,0.1-0.3,0.2l-0.3,2.1c0,0.1,0.1,0.2,0.2,0.3
										l2.2,0.4c0.1,0,0.2-0.1,0.3-0.2L121.6,117.9z"/>
								</g>
							</g>
							<g>
								<g>
									<path class="st27" d="M119.3,117.3l2.2,0.4c0.1,0,0.2,0.2,0.2,0.3l-0.3,2.1c0,0.1-0.2,0.2-0.3,0.2l-2.2-0.4
										c-0.1,0-0.2-0.2-0.2-0.3l0.3-2.1C119,117.4,119.1,117.3,119.3,117.3z M121,120.2c0.1,0,0.2-0.1,0.2-0.2l0.3-2.1
										c0-0.1-0.1-0.2-0.2-0.2l-2.2-0.4c-0.1,0-0.2,0.1-0.2,0.2l-0.3,2.1c0,0.1,0.1,0.2,0.2,0.2L121,120.2z"/>
								</g>
							</g>
						</g>
						<g>
							<g>
								<g>
									<path class="st7" d="M124.7,118.5c0-0.1-0.1-0.2-0.2-0.3l-2.2-0.4c-0.1,0-0.2,0.1-0.3,0.2l-0.3,2.1c0,0.1,0.1,0.2,0.2,0.3
										l2.2,0.4c0.1,0,0.2-0.1,0.3-0.2L124.7,118.5z"/>
								</g>
							</g>
							<g>
								<g>
									<path class="st27" d="M122.3,117.8l2.2,0.4c0.1,0,0.2,0.2,0.2,0.3l-0.3,2.1c0,0.1-0.2,0.2-0.3,0.2l-2.2-0.4
										c-0.1,0-0.2-0.2-0.2-0.3l0.3-2.1C122,117.9,122.2,117.8,122.3,117.8z M124.1,120.7c0.1,0,0.2-0.1,0.2-0.2l0.3-2.1
										c0-0.1-0.1-0.2-0.2-0.2l-2.2-0.4c-0.1,0-0.2,0.1-0.2,0.2l-0.3,2.1c0,0.1,0,0.2,0.2,0.2L124.1,120.7z"/>
								</g>
							</g>
						</g>
						<g>
							<g>
								<g>
									<path class="st7" d="M127.7,119c0-0.1-0.1-0.2-0.2-0.3l-2.2-0.4c-0.1,0-0.2,0.1-0.3,0.2l-0.3,2.1c0,0.1,0.1,0.2,0.2,0.3
										l2.2,0.4c0.1,0,0.2-0.1,0.3-0.2L127.7,119z"/>
								</g>
							</g>
							<g>
								<g>
									<path class="st27" d="M125.3,118.3l2.2,0.4c0.1,0,0.2,0.2,0.2,0.3l-0.3,2.1c0,0.1-0.2,0.2-0.3,0.2l-2.2-0.4
										c-0.1,0-0.2-0.2-0.2-0.3l0.3-2.1C125.1,118.4,125.2,118.3,125.3,118.3z M127.1,121.2c0.1,0,0.2-0.1,0.2-0.2l0.3-2.1
										c0-0.1-0.1-0.2-0.2-0.2l-2.2-0.4c-0.1,0-0.2,0.1-0.2,0.2l-0.3,2.1c0,0.1,0.1,0.2,0.2,0.2L127.1,121.2z"/>
								</g>
							</g>
						</g>
						<g>
							<g>
								<g>
									<path class="st7" d="M130.7,119.5c0-0.1-0.1-0.2-0.2-0.3l-2.2-0.4c-0.1,0-0.2,0.1-0.3,0.2l-0.3,2.1c0,0.1,0.1,0.2,0.2,0.3
										l2.2,0.4c0.1,0,0.2-0.1,0.3-0.2L130.7,119.5z"/>
								</g>
							</g>
							<g>
								<g>
									<path class="st27" d="M128.4,118.8l2.2,0.4c0.1,0,0.2,0.2,0.2,0.3l-0.3,2.1c0,0.1-0.2,0.2-0.3,0.2l-2.2-0.4
										c-0.1,0-0.2-0.2-0.2-0.3l0.3-2.1C128.1,118.9,128.2,118.8,128.4,118.8z M130.1,121.7c0.1,0,0.2-0.1,0.2-0.2l0.3-2.1
										c0-0.1-0.1-0.2-0.2-0.2l-2.2-0.4c-0.1,0-0.2,0.1-0.2,0.2l-0.3,2.1c0,0.1,0.1,0.2,0.2,0.2L130.1,121.7z"/>
								</g>
							</g>
						</g>
						<g>
							<g>
								<g>
									<path class="st7" d="M133.8,120c0-0.1-0.1-0.2-0.2-0.3l-2.2-0.4c-0.1,0-0.2,0.1-0.3,0.2l-0.3,2.1c0,0.1,0.1,0.2,0.2,0.3
										l2.2,0.4c0.1,0,0.2-0.1,0.3-0.2L133.8,120z"/>
								</g>
							</g>
							<g>
								<g>
									<path class="st27" d="M131.4,119.3l2.2,0.4c0.1,0,0.2,0.2,0.2,0.3l-0.3,2.1c0,0.1-0.2,0.2-0.3,0.2l-2.2-0.4
										c-0.1,0-0.2-0.2-0.2-0.3l0.3-2.1C131.1,119.4,131.3,119.3,131.4,119.3z M133.2,122.2c0.1,0,0.2-0.1,0.2-0.2l0.3-2.1
										c0-0.1-0.1-0.2-0.2-0.2l-2.2-0.4c-0.1,0-0.2,0.1-0.2,0.2l-0.3,2.1c0,0.1,0.1,0.2,0.2,0.2L133.2,122.2z"/>
								</g>
							</g>
						</g>
						<g>
							<g>
								<g>
									<path class="st7" d="M136.8,120.5c0-0.1-0.1-0.2-0.2-0.3l-2.2-0.4c-0.1,0-0.2,0.1-0.3,0.2l-0.3,2.1c0,0.1,0.1,0.2,0.2,0.3
										l2.2,0.4c0.1,0,0.2-0.1,0.3-0.2L136.8,120.5z"/>
								</g>
							</g>
							<g>
								<g>
									<path class="st27" d="M134.5,119.8l2.2,0.4c0.1,0,0.2,0.2,0.2,0.3l-0.3,2.1c0,0.1-0.2,0.2-0.3,0.2l-2.2-0.4
										c-0.1,0-0.2-0.2-0.2-0.3l0.3-2.1C134.2,119.9,134.3,119.8,134.5,119.8z M136.2,122.7c0.1,0,0.2-0.1,0.2-0.2l0.3-2.1
										c0-0.1-0.1-0.2-0.2-0.2l-2.2-0.4c-0.1,0-0.2,0-0.2,0.2l-0.3,2.1c0,0.1,0.1,0.2,0.2,0.2L136.2,122.7z"/>
								</g>
							</g>
						</g>
						<g>
							<g>
								<g>
									<path class="st7" d="M139.9,121c0-0.1-0.1-0.2-0.2-0.3l-2.2-0.4c-0.1,0-0.2,0.1-0.3,0.2l-0.3,2.1c0,0.1,0.1,0.2,0.2,0.3
										l2.2,0.4c0.1,0,0.2-0.1,0.3-0.2L139.9,121z"/>
								</g>
							</g>
							<g>
								<g>
									<path class="st27" d="M137.5,120.3l2.2,0.4c0.1,0,0.2,0.2,0.2,0.3l-0.3,2.1c0,0.1-0.2,0.2-0.3,0.2l-2.2-0.4
										c-0.1,0-0.2-0.2-0.2-0.3l0.3-2.1C137.2,120.4,137.3,120.3,137.5,120.3z M139.2,123.2c0.1,0,0.2-0.1,0.2-0.2l0.3-2.1
										c0-0.1-0.1-0.2-0.2-0.2l-2.2-0.4c-0.1,0-0.2,0.1-0.2,0.2l-0.3,2.1c0,0.1,0.1,0.2,0.2,0.2L139.2,123.2z"/>
								</g>
							</g>
						</g>
						<g>
							<g>
								<g>
									<path class="st7" d="M142.9,121.5c0-0.1-0.1-0.2-0.2-0.3l-2.2-0.4c-0.1,0-0.2,0.1-0.3,0.2l-0.3,2.1c0,0.1,0.1,0.2,0.2,0.3
										l2.2,0.4c0.1,0,0.2-0.1,0.3-0.2L142.9,121.5z"/>
								</g>
							</g>
							<g>
								<g>
									<path class="st27" d="M140.5,120.8l2.2,0.4c0.1,0,0.2,0.2,0.2,0.3l-0.3,2.1c0,0.1-0.2,0.2-0.3,0.2l-2.2-0.4
										c-0.1,0-0.2-0.2-0.2-0.3l0.3-2.1C140.2,120.9,140.4,120.8,140.5,120.8z M142.3,123.7c0.1,0,0.2-0.1,0.2-0.2l0.3-2.1
										c0-0.1-0.1-0.2-0.2-0.2l-2.2-0.4c-0.1,0-0.2,0.1-0.2,0.2l-0.3,2.1c0,0.1,0.1,0.2,0.2,0.2L142.3,123.7z"/>
								</g>
							</g>
						</g>
						<g>
							<g>
								<g>
									<path class="st7" d="M145.9,122c0-0.1-0.1-0.2-0.2-0.3l-2.2-0.4c-0.1,0-0.2,0.1-0.3,0.2l-0.3,2.1c0,0.1,0.1,0.2,0.2,0.3
										l2.2,0.4c0.1,0,0.2-0.1,0.3-0.2L145.9,122z"/>
								</g>
							</g>
							<g>
								<g>
									<path class="st27" d="M143.6,121.3l2.2,0.4c0.1,0,0.2,0.2,0.2,0.3l-0.3,2.1c0,0.1-0.2,0.2-0.3,0.2l-2.2-0.4
										c-0.1,0-0.2-0.2-0.2-0.3l0.3-2.1C143.3,121.4,143.4,121.3,143.6,121.3z M145.3,124.2c0.1,0,0.2-0.1,0.2-0.2l0.3-2.1
										c0-0.1-0.1-0.2-0.2-0.2l-2.2-0.4c-0.1,0-0.2,0.1-0.2,0.2l-0.3,2.1c0,0.1,0.1,0.2,0.2,0.2L145.3,124.2z"/>
								</g>
							</g>
						</g>
						<g>
							<g>
								<g>
									<path class="st7" d="M149,122.5c0-0.1-0.1-0.2-0.2-0.3l-2.2-0.4c-0.1,0-0.2,0.1-0.3,0.2l-0.3,2.1c0,0.1,0.1,0.2,0.2,0.3
										l2.2,0.4c0.1,0,0.2-0.1,0.3-0.2L149,122.5z"/>
								</g>
							</g>
							<g>
								<g>
									<path class="st27" d="M146.6,121.8l2.2,0.4c0.1,0,0.2,0.2,0.2,0.3l-0.3,2.1c0,0.1-0.2,0.2-0.3,0.2l-2.2-0.4
										c-0.1,0-0.2-0.2-0.2-0.3l0.3-2.1C146.3,121.9,146.4,121.8,146.6,121.8z M148.4,124.7c0.1,0,0.2-0.1,0.2-0.2l0.3-2.1
										c0-0.1-0.1-0.2-0.2-0.2l-2.2-0.4c-0.1,0-0.2,0.1-0.2,0.2l-0.3,2.1c0,0.1,0.1,0.2,0.2,0.2L148.4,124.7z"/>
								</g>
							</g>
						</g>
						<g>
							<g>
								<g>
									<path class="st7" d="M152,123c0-0.1-0.1-0.2-0.2-0.3l-2.2-0.4c-0.1,0-0.2,0.1-0.3,0.2l-0.3,2.1c0,0.1,0.1,0.2,0.2,0.3
										l2.2,0.4c0.1,0,0.2-0.1,0.3-0.2L152,123z"/>
								</g>
							</g>
							<g>
								<g>
									<path class="st27" d="M149.7,122.3l2.2,0.4c0.1,0,0.2,0.2,0.2,0.3l-0.3,2.1c0,0.1-0.2,0.2-0.3,0.2l-2.2-0.4
										c-0.1,0-0.2-0.2-0.2-0.3l0.3-2.1C149.4,122.4,149.5,122.3,149.7,122.3z M151.4,125.2c0.1,0,0.2-0.1,0.2-0.2l0.3-2.1
										c0-0.1-0.1-0.2-0.2-0.2l-2.2-0.4c-0.1,0-0.2,0.1-0.2,0.2l-0.3,2.1c0,0.1,0,0.2,0.2,0.2L151.4,125.2z"/>
								</g>
							</g>
						</g>
						<g>
							<g>
								<g>
									<path class="st7" d="M155,123.5c0-0.1-0.1-0.2-0.2-0.3l-2.2-0.4c-0.1,0-0.2,0.1-0.3,0.2l-0.3,2.1c0,0.1,0.1,0.2,0.2,0.3
										l2.2,0.4c0.1,0,0.2-0.1,0.3-0.2L155,123.5z"/>
								</g>
							</g>
							<g>
								<g>
									<path class="st27" d="M152.7,122.8l2.2,0.4c0.1,0,0.2,0.2,0.2,0.3l-0.3,2.1c0,0.1-0.2,0.2-0.3,0.2l-2.2-0.4
										c-0.1,0-0.2-0.2-0.2-0.3l0.3-2.1C152.4,122.9,152.5,122.8,152.7,122.8z M154.4,125.7c0.1,0,0.2-0.1,0.2-0.2l0.3-2.1
										c0-0.1-0.1-0.2-0.2-0.2l-2.2-0.4c-0.1,0-0.2,0.1-0.2,0.2l-0.3,2.1c0,0.1,0.1,0.2,0.2,0.2L154.4,125.7z"/>
								</g>
							</g>
						</g>
						<g>
							<g>
								<g>
									<path class="st7" d="M158.1,124c0-0.1-0.1-0.2-0.2-0.3l-2.2-0.4c-0.1,0-0.2,0.1-0.3,0.2l-0.3,2.1c0,0.1,0.1,0.2,0.2,0.3
										l2.2,0.4c0.1,0,0.2-0.1,0.3-0.2L158.1,124z"/>
								</g>
							</g>
							<g>
								<g>
									<path class="st27" d="M155.7,123.3l2.2,0.4c0.1,0,0.2,0.2,0.2,0.3l-0.3,2.1c0,0.1-0.2,0.2-0.3,0.2l-2.2-0.4
										c-0.1,0-0.2-0.2-0.2-0.3l0.3-2.1C155.4,123.4,155.6,123.3,155.7,123.3z M157.5,126.2c0.1,0,0.2-0.1,0.2-0.2l0.3-2.1
										c0-0.1-0.1-0.2-0.2-0.2l-2.2-0.4c-0.1,0-0.2,0.1-0.2,0.2l-0.3,2.1c0,0.1,0.1,0.2,0.2,0.2L157.5,126.2z"/>
								</g>
							</g>
						</g>
						<g>
							<g>
								<g>
									<path class="st7" d="M162.6,124.7c0-0.1-0.1-0.2-0.2-0.3l-3.7-0.6c-0.1,0-0.2,0.1-0.3,0.2l-0.3,2.1c0,0.1,0.1,0.2,0.2,0.3
										l3.7,0.6c0.1,0,0.2-0.1,0.3-0.2L162.6,124.7z"/>
								</g>
							</g>
							<g>
								<g>
									<path class="st27" d="M158.7,123.8l3.7,0.6c0.1,0,0.2,0.2,0.2,0.3l-0.3,2.1c0,0.1-0.2,0.2-0.3,0.2l-3.7-0.6
										c-0.1,0-0.2-0.2-0.2-0.3l0.3-2.1C158.5,123.9,158.6,123.8,158.7,123.8z M162,127c0.1,0,0.2-0.1,0.2-0.2l0.3-2.1
										c0-0.1-0.1-0.2-0.2-0.2l-3.7-0.6c-0.1,0-0.2,0.1-0.2,0.2l-0.3,2.1c0,0.1,0.1,0.2,0.2,0.2L162,127z"/>
								</g>
							</g>
						</g>
					</g>
					<g>
						<g>
							<g>
								<g>
									<path class="st7" d="M124.4,115.4c0-0.1-0.1-0.2-0.2-0.3l-4.5-0.7c-0.1,0-0.2,0.1-0.3,0.2l-0.3,2.1c0,0.1,0.1,0.2,0.2,0.3
										l4.5,0.7c0.1,0,0.2-0.1,0.3-0.2L124.4,115.4z"/>
								</g>
							</g>
							<g>
								<g>
									<path class="st27" d="M119.8,114.3l4.5,0.7c0.1,0,0.2,0.2,0.2,0.3l-0.3,2.1c0,0.1-0.2,0.2-0.3,0.2l-4.5-0.7
										c-0.1,0-0.2-0.2-0.2-0.3l0.3-2.1C119.5,114.4,119.6,114.3,119.8,114.3z M123.8,117.6c0.1,0,0.2-0.1,0.2-0.2l0.3-2.1
										c0-0.1-0.1-0.2-0.2-0.2l-4.5-0.7c-0.1,0-0.2,0.1-0.2,0.2l-0.3,2.1c0,0.1,0.1,0.2,0.2,0.2L123.8,117.6z"/>
								</g>
							</g>
						</g>
						<g>
							<g>
								<g>
									<path class="st7" d="M127.5,115.9c0-0.1-0.1-0.2-0.2-0.3l-2.2-0.4c-0.1,0-0.2,0.1-0.3,0.2l-0.3,2.1c0,0.1,0.1,0.2,0.2,0.3
										l2.2,0.4c0.1,0,0.2-0.1,0.3-0.2L127.5,115.9z"/>
								</g>
							</g>
							<g>
								<g>
									<path class="st27" d="M125.1,115.2l2.2,0.4c0.1,0,0.2,0.2,0.2,0.3l-0.3,2.1c0,0.1-0.2,0.2-0.3,0.2l-2.2-0.4
										c-0.1,0-0.2-0.2-0.2-0.3l0.3-2.1C124.8,115.3,124.9,115.2,125.1,115.2z M126.9,118.1c0.1,0,0.2-0.1,0.2-0.2l0.3-2.1
										c0-0.1-0.1-0.2-0.2-0.2l-2.2-0.4c-0.1,0-0.2,0.1-0.2,0.2l-0.3,2.1c0,0.1,0.1,0.2,0.2,0.2L126.9,118.1z"/>
								</g>
							</g>
						</g>
						<g>
							<g>
								<g>
									<path class="st7" d="M130.5,116.4c0-0.1-0.1-0.2-0.2-0.3l-2.2-0.4c-0.1,0-0.2,0.1-0.3,0.2l-0.3,2.1c0,0.1,0.1,0.2,0.2,0.3
										l2.2,0.4c0.1,0,0.2-0.1,0.3-0.2L130.5,116.4z"/>
								</g>
							</g>
							<g>
								<g>
									<path class="st27" d="M128.1,115.7l2.2,0.4c0.1,0,0.2,0.2,0.2,0.3l-0.3,2.1c0,0.1-0.2,0.2-0.3,0.2l-2.2-0.4
										c-0.1,0-0.2-0.2-0.2-0.3l0.3-2.1C127.8,115.8,127.9,115.7,128.1,115.7z M129.9,118.6c0.1,0,0.2-0.1,0.2-0.2l0.3-2.1
										c0-0.1-0.1-0.2-0.2-0.2l-2.2-0.4c-0.1,0-0.2,0.1-0.2,0.2l-0.3,2.1c0,0.1,0.1,0.2,0.2,0.2L129.9,118.6z"/>
								</g>
							</g>
						</g>
						<g>
							<g>
								<g>
									<path class="st7" d="M133.5,116.9c0-0.1-0.1-0.2-0.2-0.3l-2.2-0.4c-0.1,0-0.2,0.1-0.3,0.2l-0.3,2.1c0,0.1,0.1,0.2,0.2,0.3
										l2.2,0.4c0.1,0,0.2-0.1,0.3-0.2L133.5,116.9z"/>
								</g>
							</g>
							<g>
								<g>
									<path class="st27" d="M131.2,116.2l2.2,0.4c0.1,0,0.2,0.2,0.2,0.3l-0.3,2.1c0,0.1-0.2,0.2-0.3,0.2l-2.2-0.4
										c-0.1,0-0.2-0.2-0.2-0.3l0.3-2.1C130.9,116.3,131,116.2,131.2,116.2z M132.9,119.1c0.1,0,0.2-0.1,0.2-0.2l0.3-2.1
										c0-0.1-0.1-0.2-0.2-0.2l-2.2-0.4c-0.1,0-0.2,0.1-0.2,0.2l-0.3,2.1c0,0.1,0.1,0.2,0.2,0.2L132.9,119.1z"/>
								</g>
							</g>
						</g>
						<g>
							<g>
								<g>
									<path class="st7" d="M136.6,117.4c0-0.1-0.1-0.2-0.2-0.3l-2.2-0.4c-0.1,0-0.2,0.1-0.3,0.2l-0.3,2.1c0,0.1,0.1,0.2,0.2,0.3
										l2.2,0.4c0.1,0,0.2-0.1,0.3-0.2L136.6,117.4z"/>
								</g>
							</g>
							<g>
								<g>
									<path class="st27" d="M134.2,116.7l2.2,0.4c0.1,0,0.2,0.2,0.2,0.3l-0.3,2.1c0,0.1-0.2,0.2-0.3,0.2l-2.2-0.4
										c-0.1,0-0.2-0.2-0.2-0.3l0.3-2.1C133.9,116.8,134.1,116.7,134.2,116.7z M136,119.6c0.1,0,0.2-0.1,0.2-0.2l0.3-2.1
										c0-0.1-0.1-0.2-0.2-0.2l-2.2-0.4c-0.1,0-0.2,0.1-0.2,0.2l-0.3,2.1c0,0.1,0.1,0.2,0.2,0.2L136,119.6z"/>
								</g>
							</g>
						</g>
						<g>
							<g>
								<g>
									<path class="st7" d="M139.6,117.9c0-0.1-0.1-0.2-0.2-0.3l-2.2-0.4c-0.1,0-0.2,0.1-0.3,0.2l-0.3,2.1c0,0.1,0.1,0.2,0.2,0.3
										l2.2,0.4c0.1,0,0.2-0.1,0.3-0.2L139.6,117.9z"/>
								</g>
							</g>
							<g>
								<g>
									<path class="st27" d="M137.2,117.2l2.2,0.4c0.1,0,0.2,0.2,0.2,0.3l-0.3,2.1c0,0.1-0.2,0.2-0.3,0.2l-2.2-0.4
										c-0.1,0-0.2-0.2-0.2-0.3l0.3-2.1C136.9,117.3,137.1,117.2,137.2,117.2z M139,120.1c0.1,0,0.2-0.1,0.2-0.2l0.3-2.1
										c0-0.1-0.1-0.2-0.2-0.2l-2.2-0.4c-0.1,0-0.2,0.1-0.2,0.2l-0.3,2.1c0,0.1,0.1,0.2,0.2,0.2L139,120.1z"/>
								</g>
							</g>
						</g>
						<g>
							<g>
								<g>
									<path class="st7" d="M142.6,118.4c0-0.1-0.1-0.2-0.2-0.3l-2.2-0.4c-0.1,0-0.2,0.1-0.3,0.2l-0.3,2.1c0,0.1,0.1,0.2,0.2,0.3
										l2.2,0.4c0.1,0,0.2-0.1,0.3-0.2L142.6,118.4z"/>
								</g>
							</g>
							<g>
								<g>
									<path class="st27" d="M140.3,117.7l2.2,0.4c0.1,0,0.2,0.2,0.2,0.3l-0.3,2.1c0,0.1-0.2,0.2-0.3,0.2l-2.2-0.4
										c-0.1,0-0.2-0.2-0.2-0.3l0.3-2.1C140,117.8,140.1,117.7,140.3,117.7z M142,120.6c0.1,0,0.2-0.1,0.2-0.2l0.3-2.1
										c0-0.1-0.1-0.2-0.2-0.2l-2.2-0.4c-0.1,0-0.2,0.1-0.2,0.2l-0.3,2.1c0,0.1,0.1,0.2,0.2,0.2L142,120.6z"/>
								</g>
							</g>
						</g>
						<g>
							<g>
								<g>
									<path class="st7" d="M145.7,118.9c0-0.1-0.1-0.2-0.2-0.3l-2.2-0.4c-0.1,0-0.2,0.1-0.3,0.2l-0.3,2.1c0,0.1,0.1,0.2,0.2,0.3
										l2.2,0.4c0.1,0,0.2-0.1,0.3-0.2L145.7,118.9z"/>
								</g>
							</g>
							<g>
								<g>
									<path class="st27" d="M143.3,118.2l2.2,0.4c0.1,0,0.2,0.2,0.2,0.3l-0.3,2.1c0,0.1-0.2,0.2-0.3,0.2l-2.2-0.4
										c-0.1,0-0.2-0.2-0.2-0.3l0.3-2.1C143,118.3,143.2,118.2,143.3,118.2z M145.1,121.1c0.1,0,0.2-0.1,0.2-0.2l0.3-2.1
										c0-0.1-0.1-0.2-0.2-0.2l-2.2-0.4c-0.1,0-0.2,0.1-0.2,0.2l-0.3,2.1c0,0.1,0.1,0.2,0.2,0.2L145.1,121.1z"/>
								</g>
							</g>
						</g>
						<g>
							<g>
								<g>
									<path class="st7" d="M148.7,119.4c0-0.1-0.1-0.2-0.2-0.3l-2.2-0.4c-0.1,0-0.2,0.1-0.3,0.2l-0.3,2.1c0,0.1,0.1,0.2,0.2,0.3
										l2.2,0.4c0.1,0,0.2-0.1,0.3-0.2L148.7,119.4z"/>
								</g>
							</g>
							<g>
								<g>
									<path class="st27" d="M146.3,118.7l2.2,0.4c0.1,0,0.2,0.2,0.2,0.3l-0.3,2.1c0,0.1-0.2,0.2-0.3,0.2l-2.2-0.4
										c-0.1,0-0.2-0.2-0.2-0.3l0.3-2.1C146,118.8,146.2,118.7,146.3,118.7z M148.1,121.6c0.1,0,0.2-0.1,0.2-0.2l0.3-2.1
										c0-0.1-0.1-0.2-0.2-0.2l-2.2-0.4c-0.1,0-0.2,0.1-0.2,0.2l-0.3,2.1c0,0.1,0.1,0.2,0.2,0.2L148.1,121.6z"/>
								</g>
							</g>
						</g>
						<g>
							<g>
								<g>
									<path class="st7" d="M151.8,119.9c0-0.1-0.1-0.2-0.2-0.3l-2.2-0.4c-0.1,0-0.2,0.1-0.3,0.2l-0.3,2.1c0,0.1,0.1,0.2,0.2,0.3
										l2.2,0.4c0.1,0,0.2-0.1,0.3-0.2L151.8,119.9z"/>
								</g>
							</g>
							<g>
								<g>
									<path class="st27" d="M149.4,119.2l2.2,0.4c0.1,0,0.2,0.2,0.2,0.3l-0.3,2.1c0,0.1-0.2,0.2-0.3,0.2l-2.2-0.4
										c-0.1,0-0.2-0.2-0.2-0.3l0.3-2.1C149.1,119.3,149.3,119.2,149.4,119.2z M151.2,122.1c0.1,0,0.2-0.1,0.2-0.2l0.3-2.1
										c0-0.1-0.1-0.2-0.2-0.2l-2.2-0.4c-0.1,0-0.2,0.1-0.2,0.2l-0.3,2.1c0,0.1,0.1,0.2,0.2,0.2L151.2,122.1z"/>
								</g>
							</g>
						</g>
						<g>
							<g>
								<g>
									<path class="st7" d="M154.8,120.4c0-0.1-0.1-0.2-0.2-0.3l-2.2-0.4c-0.1,0-0.2,0.1-0.3,0.2l-0.3,2.1c0,0.1,0.1,0.2,0.2,0.3
										l2.2,0.4c0.1,0,0.2-0.1,0.3-0.2L154.8,120.4z"/>
								</g>
							</g>
							<g>
								<g>
									<path class="st27" d="M152.4,119.7l2.2,0.4c0.1,0,0.2,0.2,0.2,0.3l-0.3,2.1c0,0.1-0.2,0.2-0.3,0.2l-2.2-0.4
										c-0.1,0-0.2-0.2-0.2-0.3l0.3-2.1C152.1,119.8,152.3,119.7,152.4,119.7z M154.2,122.6c0.1,0,0.2-0.1,0.2-0.2l0.3-2.1
										c0-0.1-0.1-0.2-0.2-0.2l-2.2-0.4c-0.1,0-0.2,0.1-0.2,0.2l-0.3,2.1c0,0.1,0.1,0.2,0.2,0.2L154.2,122.6z"/>
								</g>
							</g>
						</g>
						<g>
							<g>
								<g>
									<path class="st7" d="M157.8,120.9c0-0.1-0.1-0.2-0.2-0.3l-2.2-0.4c-0.1,0-0.2,0.1-0.3,0.2l-0.3,2.1c0,0.1,0.1,0.2,0.2,0.3
										l2.2,0.4c0.1,0,0.2-0.1,0.3-0.2L157.8,120.9z"/>
								</g>
							</g>
							<g>
								<g>
									<path class="st27" d="M155.4,120.2l2.2,0.4c0.1,0,0.2,0.2,0.2,0.3l-0.3,2.1c0,0.1-0.2,0.2-0.3,0.2l-2.2-0.4
										c-0.1,0-0.2-0.2-0.2-0.3l0.3-2.1C155.2,120.3,155.3,120.2,155.4,120.2z M157.2,123.1c0.1,0,0.2-0.1,0.2-0.2l0.3-2.1
										c0-0.1-0.1-0.2-0.2-0.2l-2.2-0.4c-0.1,0-0.2,0.1-0.2,0.2l-0.3,2.1c0,0.1,0.1,0.2,0.2,0.2L157.2,123.1z"/>
								</g>
							</g>
						</g>
						<g>
							<g>
								<g>
									<path class="st7" d="M163.1,121.8c0-0.1-0.1-0.2-0.2-0.3l-4.4-0.7c-0.1,0-0.2,0.1-0.3,0.2l-0.3,2.1c0,0.1,0.1,0.2,0.2,0.3
										l4.4,0.7c0.1,0,0.2-0.1,0.3-0.2L163.1,121.8z"/>
								</g>
							</g>
							<g>
								<g>
									<path class="st27" d="M158.5,120.7l4.4,0.7c0.1,0,0.2,0.2,0.2,0.3l-0.3,2.1c0,0.1-0.2,0.2-0.3,0.2l-4.4-0.7
										c-0.1,0-0.2-0.2-0.2-0.3l0.3-2.1C158.2,120.8,158.3,120.7,158.5,120.7z M162.5,124c0.1,0,0.2-0.1,0.2-0.2l0.3-2.1
										c0-0.1-0.1-0.2-0.2-0.2l-4.4-0.7c-0.1,0-0.2,0.1-0.2,0.2l-0.3,2.1c0,0.1,0.1,0.2,0.2,0.2L162.5,124z"/>
								</g>
							</g>
						</g>
					</g>
					<g>
						<g>
							<g>
								<g>
									<path class="st7" d="M126.4,112.7c0-0.1-0.1-0.2-0.2-0.3l-5.9-1c-0.1,0-0.2,0.1-0.3,0.2l-0.3,2.1c0,0.1,0.1,0.2,0.2,0.3
										l5.9,1c0.1,0,0.2-0.1,0.3-0.2L126.4,112.7z"/>
								</g>
							</g>
							<g>
								<g>
									<path class="st27" d="M120.3,111.4l5.9,1c0.1,0,0.2,0.2,0.2,0.3l-0.3,2.1c0,0.1-0.2,0.2-0.3,0.2l-5.9-1
										c-0.1,0-0.2-0.2-0.2-0.3l0.3-2.1C120,111.5,120.1,111.4,120.3,111.4z M125.8,114.9c0.1,0,0.2-0.1,0.2-0.2l0.3-2.1
										c0-0.1-0.1-0.2-0.2-0.2l-5.9-1c-0.1,0-0.2,0.1-0.2,0.2l-0.3,2.1c0,0.1,0.1,0.2,0.2,0.2L125.8,114.9z"/>
								</g>
							</g>
						</g>
						<g>
							<g>
								<g>
									<path class="st7" d="M129.4,113.2c0-0.1-0.1-0.2-0.2-0.3l-2.2-0.4c-0.1,0-0.2,0.1-0.3,0.2l-0.3,2.1c0,0.1,0.1,0.2,0.2,0.3
										l2.2,0.4c0.1,0,0.2-0.1,0.3-0.2L129.4,113.2z"/>
								</g>
							</g>
							<g>
								<g>
									<path class="st27" d="M127.1,112.5l2.2,0.4c0.1,0,0.2,0.2,0.2,0.3l-0.3,2.1c0,0.1-0.2,0.2-0.3,0.2l-2.2-0.4
										c-0.1,0-0.2-0.2-0.2-0.3l0.3-2.1C126.8,112.6,126.9,112.5,127.1,112.5z M128.8,115.4c0.1,0,0.2-0.1,0.2-0.2l0.3-2.1
										c0-0.1-0.1-0.2-0.2-0.2l-2.2-0.4c-0.1,0-0.2,0.1-0.2,0.2l-0.3,2.1c0,0.1,0.1,0.2,0.2,0.2L128.8,115.4z"/>
								</g>
							</g>
						</g>
						<g>
							<g>
								<g>
									<path class="st7" d="M132.5,113.7c0-0.1-0.1-0.2-0.2-0.3l-2.2-0.4c-0.1,0-0.2,0.1-0.3,0.2l-0.3,2.1c0,0.1,0.1,0.2,0.2,0.3
										l2.2,0.4c0.1,0,0.2-0.1,0.3-0.2L132.5,113.7z"/>
								</g>
							</g>
							<g>
								<g>
									<path class="st27" d="M130.1,113l2.2,0.4c0.1,0,0.2,0.2,0.2,0.3l-0.3,2.1c0,0.1-0.2,0.2-0.3,0.2l-2.2-0.4
										c-0.1,0-0.2-0.2-0.2-0.3l0.3-2.1C129.8,113.1,130,113,130.1,113z M131.9,115.9c0.1,0,0.2-0.1,0.2-0.2l0.3-2.1
										c0-0.1-0.1-0.2-0.2-0.2l-2.2-0.4c-0.1,0-0.2,0.1-0.2,0.2l-0.3,2.1c0,0.1,0.1,0.2,0.2,0.2L131.9,115.9z"/>
								</g>
							</g>
						</g>
						<g>
							<g>
								<g>
									<path class="st7" d="M135.6,114.2c0-0.1-0.1-0.2-0.2-0.3l-2.2-0.4c-0.1,0-0.2,0.1-0.3,0.2l-0.3,2.1c0,0.1,0.1,0.2,0.2,0.3
										l2.2,0.4c0.1,0,0.2-0.1,0.3-0.2L135.6,114.2z"/>
								</g>
							</g>
							<g>
								<g>
									<path class="st27" d="M133.2,113.5l2.2,0.4c0.1,0,0.2,0.2,0.2,0.3l-0.3,2.1c0,0.1-0.2,0.2-0.3,0.2l-2.2-0.4
										c-0.1,0-0.2-0.2-0.2-0.3l0.3-2.1C132.9,113.6,133,113.5,133.2,113.5z M134.9,116.4c0.1,0,0.2-0.1,0.2-0.2l0.3-2.1
										c0-0.1-0.1-0.2-0.2-0.2l-2.2-0.4c-0.1,0-0.2,0.1-0.2,0.2l-0.3,2.1c0,0.1,0.1,0.2,0.2,0.2L134.9,116.4z"/>
								</g>
							</g>
						</g>
						<g>
							<g>
								<g>
									<path class="st7" d="M138.6,114.7c0-0.1-0.1-0.2-0.2-0.3l-2.2-0.4c-0.1,0-0.2,0.1-0.3,0.2l-0.3,2.1c0,0.1,0.1,0.2,0.2,0.3
										l2.2,0.4c0.1,0,0.2-0.1,0.3-0.2L138.6,114.7z"/>
								</g>
							</g>
							<g>
								<g>
									<path class="st27" d="M136.2,114l2.2,0.4c0.1,0,0.2,0.2,0.2,0.3l-0.3,2.1c0,0.1-0.2,0.2-0.3,0.2l-2.2-0.4
										c-0.1,0-0.2-0.2-0.2-0.3l0.3-2.1C135.9,114.1,136.1,114,136.2,114z M138,116.9c0.1,0,0.2-0.1,0.2-0.2l0.3-2.1
										c0-0.1-0.1-0.2-0.2-0.2l-2.2-0.4c-0.1,0-0.2,0.1-0.2,0.2l-0.3,2.1c0,0.1,0.1,0.2,0.2,0.2L138,116.9z"/>
								</g>
							</g>
						</g>
						<g>
							<g>
								<g>
									<path class="st7" d="M141.6,115.2c0-0.1-0.1-0.2-0.2-0.3l-2.2-0.4c-0.1,0-0.2,0.1-0.3,0.2l-0.3,2.1c0,0.1,0.1,0.2,0.2,0.3
										l2.2,0.4c0.1,0,0.2-0.1,0.3-0.2L141.6,115.2z"/>
								</g>
							</g>
							<g>
								<g>
									<path class="st27" d="M139.2,114.5l2.2,0.4c0.1,0,0.2,0.2,0.2,0.3l-0.3,2.1c0,0.1-0.2,0.2-0.3,0.2l-2.2-0.4
										c-0.1,0-0.2-0.2-0.2-0.3l0.3-2.1C139,114.6,139.1,114.5,139.2,114.5z M141,117.4c0.1,0,0.2-0.1,0.2-0.2l0.3-2.1
										c0-0.1-0.1-0.2-0.2-0.2l-2.2-0.4c-0.1,0-0.2,0.1-0.2,0.2l-0.3,2.1c0,0.1,0,0.2,0.2,0.2L141,117.4z"/>
								</g>
							</g>
						</g>
						<g>
							<g>
								<g>
									<path class="st7" d="M144.7,115.7c0-0.1-0.1-0.2-0.2-0.3l-2.2-0.4c-0.1,0-0.2,0.1-0.3,0.2l-0.3,2.1c0,0.1,0.1,0.2,0.2,0.3
										l2.2,0.4c0.1,0,0.2-0.1,0.3-0.2L144.7,115.7z"/>
								</g>
							</g>
							<g>
								<g>
									<path class="st27" d="M142.3,115l2.2,0.4c0.1,0,0.2,0.2,0.2,0.3l-0.3,2.1c0,0.1-0.2,0.2-0.3,0.2l-2.2-0.4
										c-0.1,0-0.2-0.2-0.2-0.3l0.3-2.1C142,115.1,142.1,115,142.3,115z M144.1,117.9c0.1,0,0.2-0.1,0.2-0.2l0.3-2.1
										c0-0.1-0.1-0.2-0.2-0.2l-2.2-0.4c-0.1,0-0.2,0.1-0.2,0.2l-0.3,2.1c0,0.1,0.1,0.2,0.2,0.2L144.1,117.9z"/>
								</g>
							</g>
						</g>
						<g>
							<g>
								<g>
									<path class="st7" d="M147.7,116.2c0-0.1-0.1-0.2-0.2-0.3l-2.2-0.4c-0.1,0-0.2,0.1-0.3,0.2l-0.3,2.1c0,0.1,0.1,0.2,0.2,0.3
										l2.2,0.4c0.1,0,0.2-0.1,0.3-0.2L147.7,116.2z"/>
								</g>
							</g>
							<g>
								<g>
									<path class="st27" d="M145.3,115.5l2.2,0.4c0.1,0,0.2,0.2,0.2,0.3l-0.3,2.1c0,0.1-0.2,0.2-0.3,0.2l-2.2-0.4
										c-0.1,0-0.2-0.2-0.2-0.3l0.3-2.1C145,115.6,145.2,115.5,145.3,115.5z M147.1,118.4c0.1,0,0.2-0.1,0.2-0.2l0.3-2.1
										c0-0.1-0.1-0.2-0.2-0.2l-2.2-0.4c-0.1,0-0.2,0.1-0.2,0.2l-0.3,2.1c0,0.1,0.1,0.2,0.2,0.2L147.1,118.4z"/>
								</g>
							</g>
						</g>
						<g>
							<g>
								<g>
									<path class="st7" d="M150.8,116.7c0-0.1-0.1-0.2-0.2-0.3l-2.2-0.4c-0.1,0-0.2,0.1-0.3,0.2l-0.3,2.1c0,0.1,0.1,0.2,0.2,0.3
										l2.2,0.4c0.1,0,0.2-0.1,0.3-0.2L150.8,116.7z"/>
								</g>
							</g>
							<g>
								<g>
									<path class="st27" d="M148.4,116l2.2,0.4c0.1,0,0.2,0.2,0.2,0.3l-0.3,2.1c0,0.1-0.2,0.2-0.3,0.2l-2.2-0.4
										c-0.1,0-0.2-0.2-0.2-0.3l0.3-2.1C148.1,116.1,148.2,116,148.4,116z M150.2,118.9c0.1,0,0.2-0.1,0.2-0.2l0.3-2.1
										c0-0.1-0.1-0.2-0.2-0.2l-2.2-0.4c-0.1,0-0.2,0.1-0.2,0.2l-0.3,2.1c0,0.1,0.1,0.2,0.2,0.2L150.2,118.9z"/>
								</g>
							</g>
						</g>
						<g>
							<g>
								<g>
									<path class="st7" d="M153.8,117.2c0-0.1-0.1-0.2-0.2-0.3l-2.2-0.4c-0.1,0-0.2,0.1-0.3,0.2l-0.3,2.1c0,0.1,0.1,0.2,0.2,0.3
										l2.2,0.4c0.1,0,0.2-0.1,0.3-0.2L153.8,117.2z"/>
								</g>
							</g>
							<g>
								<g>
									<path class="st27" d="M151.4,116.5l2.2,0.4c0.1,0,0.2,0.2,0.2,0.3l-0.3,2.1c0,0.1-0.2,0.2-0.3,0.2l-2.2-0.4
										c-0.1,0-0.2-0.2-0.2-0.3l0.3-2.1C151.1,116.6,151.2,116.5,151.4,116.5z M153.2,119.4c0.1,0,0.2-0.1,0.2-0.2l0.3-2.1
										c0-0.1-0.1-0.2-0.2-0.2l-2.2-0.4c-0.1,0-0.2,0.1-0.2,0.2l-0.3,2.1c0,0.1,0.1,0.2,0.2,0.2L153.2,119.4z"/>
								</g>
							</g>
						</g>
						<g>
							<g>
								<g>
									<path class="st7" d="M156.8,117.7c0-0.1-0.1-0.2-0.2-0.3l-2.2-0.4c-0.1,0-0.2,0.1-0.3,0.2l-0.3,2.1c0,0.1,0.1,0.2,0.2,0.3
										l2.2,0.4c0.1,0,0.2-0.1,0.3-0.2L156.8,117.7z"/>
								</g>
							</g>
							<g>
								<g>
									<path class="st27" d="M154.4,117l2.2,0.4c0.1,0,0.2,0.2,0.2,0.3l-0.3,2.1c0,0.1-0.2,0.2-0.3,0.2l-2.2-0.4
										c-0.1,0-0.2-0.2-0.2-0.3l0.3-2.1C154.1,117.1,154.3,117,154.4,117z M156.2,120c0.1,0,0.2-0.1,0.2-0.2l0.3-2.1
										c0-0.1-0.1-0.2-0.2-0.2l-2.2-0.4c-0.1,0-0.2,0.1-0.2,0.2l-0.3,2.1c0,0.1,0.1,0.2,0.2,0.2L156.2,120z"/>
								</g>
							</g>
						</g>
						<g>
							<g>
								<g>
									<path class="st7" d="M163.6,118.8c0-0.1-0.1-0.2-0.2-0.3l-5.9-1c-0.1,0-0.2,0.1-0.3,0.2l-0.3,2.1c0,0.1,0.1,0.2,0.2,0.3
										l5.9,1c0.1,0,0.2-0.1,0.3-0.2L163.6,118.8z"/>
								</g>
							</g>
							<g>
								<g>
									<path class="st27" d="M157.5,117.5l5.9,1c0.1,0,0.2,0.2,0.2,0.3l-0.3,2.1c0,0.1-0.2,0.2-0.3,0.2l-5.9-1
										c-0.1,0-0.2-0.2-0.2-0.3l0.3-2.1C157.2,117.6,157.3,117.5,157.5,117.5z M163,121.1c0.1,0,0.2-0.1,0.2-0.2l0.3-2.1
										c0-0.1-0.1-0.2-0.2-0.2l-5.9-1c-0.1,0-0.2,0.1-0.2,0.2l-0.3,2.1c0,0.1,0.1,0.2,0.2,0.2L163,121.1z"/>
								</g>
							</g>
						</g>
					</g>
					<g>
						<g>
							<g>
								<g>
									<path class="st7" d="M136,111.1c0-0.1-0.1-0.2-0.2-0.3l-2.9-0.5c-0.1,0-0.2,0.1-0.3,0.2l-0.4,2.2c0,0.1,0.1,0.2,0.2,0.3
										l2.9,0.5c0.1,0,0.2-0.1,0.3-0.2L136,111.1z"/>
								</g>
							</g>
							<g>
								<g>
									<path class="st27" d="M132.9,110.3l2.9,0.5c0.1,0,0.2,0.2,0.2,0.3l-0.4,2.2c0,0.1-0.2,0.2-0.3,0.2l-2.9-0.5
										c-0.1,0-0.2-0.2-0.2-0.3l0.4-2.2C132.6,110.4,132.8,110.3,132.9,110.3z M135.4,113.4c0.1,0,0.2-0.1,0.2-0.2l0.4-2.2
										c0-0.1-0.1-0.2-0.2-0.2l-2.9-0.5c-0.1,0-0.2,0.1-0.2,0.2l-0.4,2.2c0,0.1,0.1,0.2,0.2,0.2L135.4,113.4z"/>
								</g>
							</g>
						</g>
						<g>
							<g>
								<g>
									<path class="st7" d="M132.2,110.5c0-0.1-0.1-0.2-0.2-0.3l-2.1-0.3c-0.1,0-0.2,0.1-0.3,0.2l-0.4,2.1c0,0.1,0.1,0.2,0.2,0.3
										l2.1,0.3c0.1,0,0.2-0.1,0.3-0.2L132.2,110.5z"/>
								</g>
							</g>
							<g>
								<g>
									<path class="st27" d="M129.9,109.9l2.1,0.3c0.1,0,0.2,0.2,0.2,0.3l-0.4,2.1c0,0.1-0.2,0.2-0.3,0.2l-2.1-0.3
										c-0.1,0-0.2-0.2-0.2-0.3l0.4-2.1C129.6,109.9,129.8,109.8,129.9,109.9z M131.6,112.8c0.1,0,0.2-0.1,0.2-0.2l0.4-2.1
										c0-0.1-0.1-0.2-0.2-0.2l-2.1-0.3c-0.1,0-0.2,0.1-0.2,0.2l-0.4,2.1c0,0.1,0.1,0.2,0.2,0.2L131.6,112.8z"/>
								</g>
							</g>
						</g>
						<g>
							<g>
								<g>
									<path class="st7" d="M151.2,113.6c0-0.1-0.1-0.2-0.2-0.3l-14.2-2.4c-0.1,0-0.2,0.1-0.3,0.2l-0.4,2.1c0,0.1,0.1,0.2,0.2,0.3
										l14.2,2.4c0.1,0,0.2-0.1,0.3-0.2L151.2,113.6z"/>
								</g>
							</g>
							<g>
								<g>
									<path class="st27" d="M136.8,111l14.2,2.4c0.1,0,0.2,0.2,0.2,0.3l-0.4,2.2c0,0.1-0.2,0.2-0.3,0.2l-14.2-2.4
										c-0.1,0-0.2-0.2-0.2-0.3l0.4-2.2C136.5,111.1,136.6,111,136.8,111z M150.5,115.9c0.1,0,0.2-0.1,0.2-0.2l0.4-2.1
										c0-0.1-0.1-0.2-0.2-0.2l-14.2-2.4c-0.1,0-0.2,0.1-0.2,0.2l-0.4,2.1c0,0.1,0.1,0.2,0.2,0.2L150.5,115.9z"/>
								</g>
							</g>
						</g>
						<g>
							<g>
								<g>
									<path class="st7" d="M155,114.3c0-0.1-0.1-0.2-0.2-0.3l-2.9-0.5c-0.1,0-0.2,0.1-0.3,0.2l-0.4,2.1c0,0.1,0.1,0.2,0.2,0.3
										l2.9,0.5c0.1,0,0.2-0.1,0.3-0.2L155,114.3z"/>
								</g>
							</g>
							<g>
								<g>
									<path class="st27" d="M151.9,113.5l2.9,0.5c0.1,0,0.2,0.2,0.2,0.3l-0.3,2.1c0,0.1-0.2,0.2-0.3,0.2l-2.9-0.5
										c-0.1,0-0.2-0.2-0.2-0.3l0.4-2.1C151.6,113.6,151.8,113.5,151.9,113.5z M154.4,116.6c0.1,0,0.2-0.1,0.2-0.2l0.3-2.1
										c0-0.1-0.1-0.2-0.2-0.2l-2.9-0.5c-0.1,0-0.2,0.1-0.2,0.2l-0.4,2.1c0,0.1,0.1,0.2,0.2,0.2L154.4,116.6z"/>
								</g>
							</g>
						</g>
						<g>
							<g>
								<g>
									<path class="st7" d="M158.1,114.8c0-0.1-0.1-0.2-0.2-0.3l-2.2-0.4c-0.1,0-0.2,0.1-0.3,0.2l-0.4,2.1c0,0.1,0.1,0.2,0.2,0.3
										l2.2,0.4c0.1,0,0.2-0.1,0.3-0.2L158.1,114.8z"/>
								</g>
							</g>
							<g>
								<g>
									<path class="st27" d="M155.7,114.1l2.2,0.4c0.1,0,0.2,0.2,0.2,0.3l-0.4,2.1c0,0.1-0.2,0.2-0.3,0.2l-2.2-0.4
										c-0.1,0-0.2-0.2-0.2-0.3l0.4-2.1C155.4,114.2,155.5,114.1,155.7,114.1z M157.5,117.1c0.1,0,0.2-0.1,0.2-0.2l0.4-2.1
										c0-0.1-0.1-0.2-0.2-0.2l-2.2-0.4c-0.1,0-0.2,0.1-0.2,0.2l-0.3,2.1c0,0.1,0.1,0.2,0.2,0.2L157.5,117.1z"/>
								</g>
							</g>
						</g>
						<g>
							<g>
								<g>
									<path class="st7" d="M161.1,115.3c0-0.1-0.1-0.2-0.2-0.3l-2.2-0.4c-0.1,0-0.2,0.1-0.3,0.2l-0.4,2.1c0,0.1,0.1,0.2,0.2,0.3
										l2.2,0.4c0.1,0,0.2-0.1,0.3-0.2L161.1,115.3z"/>
								</g>
							</g>
							<g>
								<g>
									<path class="st27" d="M158.7,114.6l2.2,0.4c0.1,0,0.2,0.2,0.2,0.3l-0.4,2.1c0,0.1-0.2,0.2-0.3,0.2l-2.2-0.4
										c-0.1,0-0.2-0.2-0.2-0.3l0.4-2.1C158.4,114.7,158.5,114.6,158.7,114.6z M160.5,117.6c0.1,0,0.2-0.1,0.2-0.2l0.3-2.1
										c0-0.1-0.1-0.2-0.2-0.2l-2.2-0.4c-0.1,0-0.2,0.1-0.2,0.2l-0.4,2.1c0,0.1,0,0.2,0.2,0.2L160.5,117.6z"/>
								</g>
							</g>
						</g>
						<g>
							<g>
								<g>
									<path class="st7" d="M164.1,115.8c0-0.1-0.1-0.2-0.2-0.3l-2.2-0.4c-0.1,0-0.2,0.1-0.3,0.2l-0.4,2.1c0,0.1,0.1,0.2,0.2,0.3
										l2.2,0.4c0.1,0,0.2-0.1,0.3-0.2L164.1,115.8z"/>
								</g>
							</g>
							<g>
								<g>
									<path class="st27" d="M161.7,115.1l2.2,0.4c0.1,0,0.2,0.2,0.2,0.3l-0.4,2.1c0,0.1-0.2,0.2-0.3,0.2l-2.2-0.4
										c-0.1,0-0.2-0.2-0.2-0.3l0.4-2.1C161.4,115.2,161.6,115.1,161.7,115.1z M163.5,118.1c0.1,0,0.2-0.1,0.2-0.2l0.4-2.1
										c0-0.1-0.1-0.2-0.2-0.2l-2.2-0.4c-0.1,0-0.2,0.1-0.2,0.2l-0.3,2.1c0,0.1,0.1,0.2,0.2,0.2L163.5,118.1z"/>
								</g>
							</g>
						</g>
					</g>
					<g>
						<g>
							<g>
								<path class="st7" d="M129.1,110c0-0.1-0.1-0.2-0.2-0.3l-2.1-0.3c-0.1,0-0.2,0.1-0.3,0.2l-0.1,0.7c0,0.1,0.1,0.2,0.2,0.3
									l2.1,0.3c0.1,0,0.2-0.1,0.3-0.2L129.1,110z"/>
							</g>
						</g>
						<g>
							<g>
								<path class="st27" d="M126.9,109.4l2.1,0.3c0.1,0,0.2,0.2,0.2,0.3l-0.1,0.7c0,0.1-0.2,0.2-0.3,0.2l-2.1-0.3
									c-0.1,0-0.2-0.2-0.2-0.3l0.1-0.7C126.6,109.4,126.7,109.3,126.9,109.4z M128.8,110.8c0.1,0,0.2-0.1,0.2-0.2l0.1-0.7
									c0-0.1-0.1-0.2-0.2-0.2l-2.1-0.3c-0.1,0-0.2,0.1-0.2,0.2l-0.1,0.7c0,0.1,0.1,0.2,0.2,0.2L128.8,110.8z"/>
							</g>
						</g>
					</g>
					<g>
						<g>
							<g>
								<path class="st7" d="M123,109c0-0.1-0.1-0.2-0.2-0.3l-2.1-0.3c-0.1,0-0.2,0.1-0.3,0.2l-0.1,0.7c0,0.1,0.1,0.2,0.2,0.3
									l2.1,0.3c0.1,0,0.2-0.1,0.3-0.2L123,109z"/>
							</g>
						</g>
						<g>
							<g>
								<path class="st27" d="M120.8,108.3l2.1,0.3c0.1,0,0.2,0.2,0.2,0.3l-0.1,0.7c0,0.1-0.2,0.2-0.3,0.2l-2.1-0.3
									c-0.1,0-0.2-0.2-0.2-0.3l0.1-0.7C120.5,108.4,120.7,108.3,120.8,108.3z M122.7,109.8c0.1,0,0.2-0.1,0.2-0.2l0.1-0.7
									c0-0.1-0.1-0.2-0.2-0.2l-2.1-0.3c-0.1,0-0.2,0.1-0.2,0.2l-0.1,0.7c0,0.1,0.1,0.2,0.2,0.2L122.7,109.8z"/>
							</g>
						</g>
					</g>
					<g>
						<g>
							<g>
								<g>
									<path class="st7" d="M123.4,110.1l-0.1,0.9c0,0.1,0.1,0.2,0.2,0.3l2.2,0.4c0.1,0,0.2-0.1,0.3-0.2l0.1-0.9L123.4,110.1z"/>
								</g>
							</g>
							<g>
								<g>
									<path class="st27" d="M123.3,110l2.7,0.5l-0.1,0.9c0,0.1-0.2,0.2-0.3,0.2l-2.2-0.4c-0.1,0-0.2-0.2-0.2-0.3L123.3,110z
										 M126,110.6l-2.6-0.4l-0.1,0.8c0,0.1,0.1,0.2,0.2,0.2l2.2,0.4c0.1,0,0.2-0.1,0.2-0.2L126,110.6z"/>
								</g>
							</g>
						</g>
						<g>
							<g>
								<g>
									<path class="st7" d="M126,110.4l0.1-0.9c0-0.1-0.1-0.2-0.2-0.3l-2.2-0.4c-0.1,0-0.2,0.1-0.3,0.2l-0.1,0.9L126,110.4z"/>
								</g>
							</g>
							<g>
								<g>
									<path class="st27" d="M123.8,108.8l2.2,0.4c0.1,0,0.2,0.2,0.2,0.3l-0.2,0.9l-2.7-0.5l0.2-0.9
										C123.5,108.9,123.6,108.8,123.8,108.8z M126,110.3l0.1-0.8c0-0.1-0.1-0.2-0.2-0.2l-2.2-0.4c-0.1,0-0.2,0.1-0.2,0.2
										l-0.1,0.8L126,110.3z"/>
								</g>
							</g>
						</g>
					</g>
				</g>
			</g>
			<g>
				<g>
					<g>
						
							<ellipse transform="matrix(0.1689 -0.9856 0.9856 0.1689 13.1385 262.5728)" class="st25" cx="162.3" cy="123.5" rx="0.2" ry="0.2"/>
					</g>
				</g>
			</g>
			<g>
				<g>
					<path class="st28" d="M135.5,99.7c0.1-0.3,0.4-0.6,0.7-0.5l15.9,2.6c0.3,0.1,0.6,0.4,0.5,0.7l-1.5,9c-0.1,0.3-0.4,0.6-0.7,0.5
						l-15.9-2.6c-0.3-0.1-0.6-0.4-0.5-0.7L135.5,99.7z"/>
				</g>
				<g>
					<path class="st29" d="M136.2,99.2l15.9,2.6c0.4,0.1,0.6,0.4,0.5,0.8l-1.5,9c-0.1,0.4-0.4,0.6-0.8,0.5l-15.9-2.6
						c-0.4-0.1-0.6-0.4-0.5-0.8l1.5-9C135.5,99.4,135.9,99.1,136.2,99.2z M150.4,112c0.3,0,0.6-0.2,0.6-0.5l1.5-9
						c0.1-0.3-0.2-0.6-0.5-0.6l-15.9-2.6c-0.3-0.1-0.6,0.2-0.6,0.5l-1.5,9c-0.1,0.3,0.2,0.6,0.5,0.6L150.4,112z"/>
				</g>
			</g>
			<g>
				<g>
					<g>
						<path class="st27" d="M120.5,126.6l38.1,6.3c0,0,0.2,0.1,0.1,0.6c-0.1,0.5-0.3,0.6-0.3,0.6l-38.1-6.3c0,0-0.1-0.2-0.1-0.7
							C120.3,126.8,120.5,126.6,120.5,126.6z"/>
					</g>
				</g>
				<g class="st30">
					<g>
						<path class="st31" d="M158.7,133.6c0-0.1,0-0.2,0-0.3l-38.4-6.4c0,0.1-0.1,0.2-0.1,0.3c0,0.1,0,0.2,0,0.3l38.4,6.4
							C158.6,133.8,158.6,133.7,158.7,133.6z"/>
					</g>
				</g>
				<g class="st32">
					<g>
						<path class="st31" d="M158.7,133.6c0-0.1,0-0.1,0-0.2l-38.4-6.4c0,0.1,0,0.1,0,0.2c0,0,0,0.1,0,0.1L158.7,133.6
							C158.7,133.7,158.7,133.6,158.7,133.6z"/>
					</g>
				</g>
			</g>
			<g>
				<g>
					<path class="st33" d="M114,128.7c0.6-0.9,1.1-1.7,2.1-1.5l46,7.6c1,0.2,1.3,1.3,1.5,2.1l3.5,10.9c0.4,1.1,0.5,2-2.1,1.5
						l-56.8-9.4c-2.3-0.4-1.6-1.2-1.1-2L114,128.7z"/>
				</g>
				<g>
					<path class="st34" d="M116.1,127.2l46,7.6c1,0.2,1.3,1.2,1.5,2l0,0.2l3.5,10.9c0.2,0.5,0.3,1.1,0,1.4c-0.3,0.3-0.9,0.4-1.9,0.2
						c-0.1,0-0.2,0-0.3-0.1l-56.8-9.4c0,0-0.1,0-0.1,0c-0.9-0.1-1.3-0.4-1.5-0.7c-0.2-0.4,0.1-0.8,0.4-1.2c0-0.1,0.1-0.1,0.1-0.2
						l6.8-9.2C114.5,127.8,115,127,116.1,127.2z M165.4,149.3c0.9,0.2,1.5,0.1,1.8-0.2c0.2-0.3,0.1-0.8-0.1-1.3l-3.5-10.9l0-0.2
						c-0.2-0.8-0.5-1.8-1.4-1.9l-46-7.6c-1-0.2-1.5,0.6-2.1,1.5l-6.8,9.2c0,0-0.1,0.1-0.1,0.2c-0.3,0.4-0.5,0.8-0.4,1.1
						c0.1,0.3,0.6,0.5,1.5,0.7l56.8,9.4C165.1,149.3,165.3,149.3,165.4,149.3z"/>
				</g>
			</g>
			<g>
				<g>
					<polygon class="st35" points="163.1,147.5 160.4,136 117.4,128.8 111,138.9 					"/>
				</g>
			</g>
			<g>
				<g>
					<g>
						<path class="st36" d="M163,147.5c-2.2-9.2-1.6-6.7-2.8-11.5c-1.1-0.2-41.6-6.9-42.7-7.1l-6.4,10
							C129,141.9,163,147.5,163,147.5z"/>
					</g>
				</g>
			</g>
			<g class="st37">
				<g>
					<polygon class="st13" points="137.3,143.2 148.1,134 160.2,136 162.9,147.4 					"/>
				</g>
			</g>
			<g>
				<g>
					
						<ellipse transform="matrix(0.1634 -0.9866 0.9866 0.1634 -27.728 254.7702)" class="st38" cx="136.4" cy="143.7" rx="0.3" ry="0.5"/>
				</g>
			</g>
		</g>
	</g>
	<g>
		<path class="st39" d="M103.3,43.5c1.8,1.5,4.7,1.4,6.5-0.2c4-3.5,15.3-11.6,33.7-11.9c18.4,0,29.9,8,33.9,11.4
			c1.9,1.6,4.8,1.6,6.6,0.1c1-0.9,1.5-2.1,1.6-3.3c0-1.2-0.5-2.2-1.3-3c-4.6-4.1-17.5-13.7-38.8-14.3v-0.1l-1.9,0l-0.7,0l-1.3,0v0
			c-21.3,0.9-34.1,10.7-38.6,14.9c-0.8,0.8-1.3,1.9-1.3,3C101.7,41.5,102.3,42.7,103.3,43.5z"/>
	</g>
	<g>
		<path class="st40" d="M109.6,67.8c0,0,10.1,11.2,26.1,11.1c7.5-0.1,6.1,0,7.5-0.1c0,0,0,0,0.1,0c0.1,0,0.3,0,0.7,0
			c0,0,0.1,0,0.1,0c1.4,0,1.2,0,8.7-0.1c15.3-0.1,24.8-11.5,24.8-11.5s5.8-11.3-1.4-18.6c-10.8-10.9-30.1-9.9-30.1-9.9l-5.1,0
			c0,0-20.9-1.5-31.5,13.8C103.6,61.2,109.6,67.8,109.6,67.8z"/>
	</g>
	<g>
		<path class="st41" d="M125.8,57.8l11.9,21.1c2.9,0,4.6,0,5.5,0c0,0,0,0,0.1,0c0.1,0,0.3,0,0.7,0c0,0,0.1,0,0.1,0c1,0,2.8,0,6.3,0
			l11.8-21.3L125.8,57.8z"/>
	</g>
	<g>
		<path class="st42" d="M139.6,107.8c-0.4,0.5-1.5,0.9-3.6,0.4l-2.8-1c-1.4-0.5-2-0.7-2.6,0.1c-0.3,0.3-0.8,1.8,0.5,3.1l1.8,2.1
			c1.4,1.9,4.4,4,6.2,5.2c1.3,0.8,1,1.2,0.9,1.7c0,0.1-0.2,1-2.1,0.4c-2.3-0.7-6.2-2.1-6.2-2.1c-3.4,3.6-6.4,0.5-6.4,0.5l-4.7-4.6
			c-2.4-2.3-0.9-4.4,0.4-5.9l2.2-2.6c0.7-0.8,1.1-1.1,1.1-1.1c1.1-1,4.7-2.1,9.1-0.5l5.6,2.4C140,106.4,140.2,107.3,139.6,107.8z"/>
	</g>
	<g>
		<path class="st43" d="M115.7,109.4l7-8l2.1,1.7c0.7,0.5,1.1,0.9,0,2.2l-5.2,5.9c-0.5,0.7-1.5,0.3-2-0.2L115.7,109.4z"/>
	</g>
	<g>
		<path class="st40" d="M109.5,52.6L92.7,77.7c-1.5,2.7-5.7,8.3,1,13.8l21.3,19.1c0.9,0.7,1.4,1.4,2.4,0.2l6.5-7.8
			c0.7-0.7,0.9-1-0.1-2.1l-15.4-13.6c-1.3-1.2-1.8-2.6-0.5-3.9l9.7-10.2L109.5,52.6z"/>
	</g>
	<g>
		<path class="st42" d="M159.3,94.6c2.6-1.1,5.4-1.5,7.4,0.6l3.3,4.1c0,0,1.4,2.6-1.8,5.3c-4,3.2-5.4,4.4-5.4,4.4s-4.3,3.8-10.2,0.9
			c-0.2-0.1-2.9-1.7-3.1-1.8c-3-2.8,2.4-2.7,6.6-5.5l3.4-2.1c0.9-0.7,0.4-1.5-0.9-1.2l-4.6,0.9c-1.2,0.4-2,0.3-2.6-0.4
			c-0.8-0.9-0.2-1.9,0.6-2.3L159.3,94.6z"/>
	</g>
	<g>
		<path class="st43" d="M176.9,99l-7.7-9.7l-3.6,2.4c-1.3,1.2-2.6,2.8,0,5.8l3.6,4.2c1.4,1.5,2.3,0.9,2.9,0.6L176.9,99z"/>
	</g>
	<g>
		<path class="st40" d="M176.3,48.6L197.4,74c5.1,7.5,1.1,12.1-0.3,13.2l-22.9,14c-1.4,0.9-2,0.6-3.3-0.9c-1.4-1.6-2.3-2.8-3.6-4.3
			c-2.8-3.3-1.7-6.8,1-8.1l11.8-7.4c1.3-1.3,1.4-2-0.4-3.6l-7.5-6L176.3,48.6z"/>
	</g>
	<g>
		<path class="st44" d="M152.9,78.7c1.3,0,2.5-0.1,3.7-0.3l0.3-2.7l2.9-1.6l-0.4-14.6l-8.7,19.2C151.2,78.8,152,78.7,152.9,78.7z"/>
	</g>
	<g>
		<path class="st44" d="M137.8,78.9l-8.6-18.9l-0.4,14.6l2.9,1.6l0.2,2.5c1.2,0.1,2.5,0.2,3.8,0.2C136.5,78.9,137.2,78.9,137.8,78.9
			z"/>
	</g>
	<g>
		<path class="st42" d="M126.7,58.6c-0.1-10.1,7.5-18.4,16.9-18.5c9.4-0.1,17.1,8.1,17.2,18.2c0.1,10.1-7.3,17.4-16.4,17.4
			C133.2,75.8,126.8,68.7,126.7,58.6z"/>
	</g>
	<g>
		<path class="st42" d="M161.2,51.6c0-1.1,1-2,2.2-2l0,0c1.2,0,2.2,0.9,2.2,2l-1,5.3c0,1.1-1,2-2.2,2c0,0-1.1-0.9-1.1-2L161.2,51.6z
			"/>
	</g>
	<g>
		<path class="st42" d="M126.9,51.9c0-1.1-1-2-2.2-2l0,0c-1.2,0-2.2,0.9-2.2,2l1.1,5.3c0,1.1,1,2,2.2,2c0,0,1.1-0.9,1.1-2
			L126.9,51.9z"/>
	</g>
	<g>
		<path class="st45" d="M157.7,67.3l1.5,1.8c-5.8,3.7-10.2,1.8-12,1.1l-0.3-0.1c-0.8-0.3-1-0.2-1.1,0.7c0,0.4,0,1.4,0,1.9
			c0,0.6-0.3,0.7-0.7,0.6l-10-3.3c-7.1-2.3-10.7-10.3-10.7-16.3l0-3.3c0.1-9.8,8.4-16.1,18-16l3.4,0c8.7,0.1,17.8,5.8,17.7,15.6
			l0,2.8C163.3,60.8,160.3,66.1,157.7,67.3z"/>
	</g>
</g>
</svg>
