<?xml version="1.0" encoding="utf-8"?>
<!-- Generator: Adobe Illustrator 21.0.0, SVG Export Plug-In . SVG Version: 6.00 Build 0)  -->
<svg version="1.1" id="Capa_1" xmlns="http://www.w3.org/2000/svg" xmlns:xlink="http://www.w3.org/1999/xlink" x="0px" y="0px"
	 viewBox="0 0 143.5 143.5" style="enable-background:new 0 0 143.5 143.5;" xml:space="preserve">
<style type="text/css">
	.st0{fill-rule:evenodd;clip-rule:evenodd;fill:#984790;}
	.st1{fill-rule:evenodd;clip-rule:evenodd;fill:#B26928;}
	.st2{fill-rule:evenodd;clip-rule:evenodd;fill:#4370B1;}
</style>
<path class="st0" d="M91.5,95.6c-4,2.2-6.7,2.8-10,2.1V40.4l-3.8-0.3c-21.2-1.9-37-8.8-43.3-21.3C50,30.1,71.6,31.4,91.5,32.2V95.6z
	"/>
<path class="st1" d="M33,81.8V30.6c9.3,8.9,23.6,14.5,39,15.9v51.2l0,0c-5.2-0.9-25.3-3.6-38.6-15.7"/>
<path class="st2" d="M109.4,88.3c-2.7,2.2-6.7,2.8-10,2.1V24.2c-11,2.1-52.5,2.7-64.1-9.6c24,7,61.1,2.3,74.3-1.1L109.4,88.3z"/>
<g>
	<path d="M41.9,105.7c-0.3,0-0.5-0.1-0.7-0.2s-0.2-0.3-0.2-0.6s0.1-0.4,0.2-0.6s0.4-0.2,0.6-0.2h5.4c0.3,0,0.5,0.1,0.7,0.2
		s0.2,0.3,0.2,0.6c0,0.3-0.1,0.4-0.2,0.6s-0.4,0.2-0.7,0.2h-1.8v6.3c0,0.3-0.1,0.6-0.2,0.7s-0.4,0.2-0.7,0.2s-0.5-0.1-0.7-0.2
		s-0.2-0.4-0.2-0.7v-6.3H41.9z"/>
	<path d="M49,110c0,0.5,0.1,0.9,0.4,1.1s0.6,0.4,1,0.4c0.2,0,0.4,0,0.5-0.1s0.3-0.1,0.4-0.2c0,0,0.1-0.1,0.1-0.1
		c0.3-0.3,0.5-0.4,0.8-0.4c0.2,0,0.4,0.1,0.5,0.2s0.2,0.3,0.2,0.5c0,0.1,0,0.3-0.1,0.4s-0.2,0.3-0.3,0.4c-0.3,0.3-0.6,0.5-1,0.6
		s-0.8,0.2-1.3,0.2c-0.9,0-1.7-0.3-2.2-0.9s-0.8-1.5-0.8-2.5c0-1,0.3-1.9,0.8-2.5s1.3-0.9,2.2-0.9c0.9,0,1.7,0.3,2.2,0.8
		s0.8,1.3,0.8,2.3c0,0.3-0.1,0.5-0.2,0.6s-0.4,0.2-0.8,0.2h-0.2H49z M51.5,108.9c0-0.4-0.1-0.8-0.3-1s-0.5-0.3-0.9-0.3
		c-0.4,0-0.7,0.1-0.9,0.3s-0.3,0.6-0.4,1H51.5z"/>
	<path d="M59.7,107.9c0,0.2-0.1,0.4-0.2,0.5s-0.3,0.2-0.5,0.2c-0.1,0-0.3,0-0.4-0.1s-0.3-0.2-0.4-0.4c-0.2-0.2-0.3-0.4-0.5-0.4
		s-0.3-0.1-0.5-0.1c-0.4,0-0.7,0.2-0.9,0.5s-0.3,0.8-0.3,1.5c0,0.6,0.1,1.1,0.3,1.4s0.5,0.5,0.9,0.5c0.2,0,0.3,0,0.5-0.1
		s0.3-0.2,0.4-0.3c0,0,0.1-0.1,0.2-0.2c0.3-0.4,0.5-0.5,0.8-0.5c0.2,0,0.4,0.1,0.5,0.2s0.2,0.3,0.2,0.5c0,0.2-0.1,0.4-0.2,0.6
		s-0.3,0.4-0.5,0.6c-0.3,0.3-0.6,0.4-0.9,0.6S57.4,113,57,113c-0.9,0-1.7-0.3-2.2-0.9s-0.8-1.4-0.8-2.5c0-1.1,0.3-1.9,0.8-2.5
		s1.3-0.9,2.2-0.9c0.7,0,1.3,0.2,1.8,0.5S59.7,107.5,59.7,107.9z"/>
	<path d="M62.7,111.9c0,0.3-0.1,0.5-0.2,0.7s-0.4,0.2-0.6,0.2c-0.3,0-0.5-0.1-0.6-0.2s-0.2-0.4-0.2-0.7v-4.7c0-0.3,0.1-0.6,0.2-0.7
		s0.4-0.2,0.6-0.2c0.3,0,0.4,0.1,0.6,0.2s0.2,0.3,0.2,0.6l0,0.2c0.2-0.4,0.5-0.6,0.8-0.8s0.7-0.3,1.1-0.3c0.7,0,1.2,0.2,1.6,0.6
		s0.5,0.9,0.5,1.7v3.5c0,0.3-0.1,0.5-0.2,0.7s-0.4,0.2-0.6,0.2c-0.3,0-0.5-0.1-0.6-0.2s-0.2-0.4-0.2-0.7v-3c0-0.5-0.1-0.8-0.2-1
		s-0.4-0.3-0.8-0.3c-0.4,0-0.7,0.1-1,0.4s-0.4,0.6-0.4,1V111.9z"/>
	<path d="M71,106.2c1,0,1.8,0.3,2.4,0.9s0.9,1.4,0.9,2.5c0,1.1-0.3,1.9-0.9,2.5S72,113,71,113c-1,0-1.8-0.3-2.4-0.9
		s-0.9-1.4-0.9-2.5c0-1.1,0.3-1.9,0.9-2.5S70,106.2,71,106.2z M71,107.6c-0.5,0-0.9,0.2-1.1,0.5s-0.4,0.8-0.4,1.5
		c0,0.6,0.1,1.1,0.4,1.5s0.6,0.5,1.1,0.5c0.5,0,0.8-0.2,1.1-0.5s0.4-0.8,0.4-1.5c0-0.6-0.1-1.1-0.4-1.5S71.5,107.6,71,107.6z"/>
	<path d="M75.5,104.9c0-0.3,0.1-0.6,0.2-0.7s0.4-0.2,0.6-0.2c0.3,0,0.5,0.1,0.6,0.2s0.2,0.4,0.2,0.7v7c0,0.3-0.1,0.5-0.2,0.7
		s-0.4,0.2-0.6,0.2c-0.3,0-0.5-0.1-0.6-0.2s-0.2-0.4-0.2-0.7V104.9z"/>
	<path d="M81.6,106.2c1,0,1.8,0.3,2.4,0.9s0.9,1.4,0.9,2.5c0,1.1-0.3,1.9-0.9,2.5s-1.4,0.9-2.4,0.9c-1,0-1.8-0.3-2.4-0.9
		s-0.9-1.4-0.9-2.5c0-1.1,0.3-1.9,0.9-2.5S80.6,106.2,81.6,106.2z M81.6,107.6c-0.5,0-0.9,0.2-1.1,0.5s-0.4,0.8-0.4,1.5
		c0,0.6,0.1,1.1,0.4,1.5s0.6,0.5,1.1,0.5c0.5,0,0.8-0.2,1.1-0.5s0.4-0.8,0.4-1.5c0-0.6-0.1-1.1-0.4-1.5S82.1,107.6,81.6,107.6z"/>
	<path d="M90.2,111.8c-0.2,0.3-0.4,0.5-0.7,0.7s-0.6,0.2-1.1,0.2c-0.8,0-1.5-0.3-2-0.9s-0.7-1.4-0.7-2.3c0-1,0.2-1.9,0.7-2.5
		s1.1-0.9,2-0.9c0.4,0,0.8,0.1,1.1,0.2s0.5,0.4,0.7,0.8V107c0-0.2,0.1-0.4,0.2-0.6s0.3-0.2,0.6-0.2c0.3,0,0.5,0.1,0.6,0.2
		s0.2,0.4,0.2,0.7v5.1c0,1.1-0.2,1.9-0.7,2.3s-1.3,0.7-2.4,0.7c-0.8,0-1.4-0.1-1.8-0.4s-0.7-0.6-0.7-1c0-0.2,0.1-0.4,0.2-0.5
		s0.3-0.2,0.6-0.2c0.1,0,0.2,0,0.3,0.1s0.2,0.1,0.4,0.3l0,0c0.4,0.3,0.7,0.5,1.1,0.5c0.5,0,0.9-0.1,1.1-0.3s0.3-0.6,0.3-1.2V111.8z
		 M87.4,109.5c0,0.6,0.1,1.1,0.4,1.4s0.6,0.5,1,0.5c0.4,0,0.8-0.2,1-0.5s0.4-0.8,0.4-1.4c0-0.6-0.1-1-0.4-1.4s-0.6-0.5-1-0.5
		c-0.4,0-0.8,0.2-1,0.5S87.4,108.9,87.4,109.5z"/>
	<path d="M95.1,111.9c0,0.3-0.1,0.5-0.2,0.7s-0.4,0.2-0.6,0.2c-0.3,0-0.5-0.1-0.6-0.2s-0.2-0.4-0.2-0.7v-4.7c0-0.3,0.1-0.6,0.2-0.7
		s0.4-0.2,0.6-0.2c0.3,0,0.5,0.1,0.6,0.2s0.2,0.4,0.2,0.7V111.9z M95.3,104.3l-1,1.1c-0.1,0.1-0.1,0.1-0.2,0.2s-0.1,0-0.2,0
		c-0.1,0-0.3,0-0.3-0.1s-0.1-0.2-0.1-0.3c0,0,0-0.1,0-0.1s0-0.1,0.1-0.2l0.8-1.3c0.1-0.1,0.1-0.2,0.2-0.2s0.2-0.1,0.3-0.1
		c0.2,0,0.4,0.1,0.5,0.2s0.2,0.3,0.2,0.5c0,0.1,0,0.2-0.1,0.3S95.3,104.3,95.3,104.3z"/>
	<path d="M101.8,107.9v3.6c0,0.1,0,0.3,0,0.4s0,0.3,0,0.3c0,0.2-0.1,0.4-0.2,0.5s-0.3,0.2-0.5,0.2c-0.3,0-0.5-0.1-0.7-0.2
		s-0.2-0.4-0.2-0.8c-0.2,0.3-0.5,0.6-0.8,0.8s-0.8,0.3-1.2,0.3c-0.6,0-1.1-0.2-1.4-0.5s-0.5-0.8-0.5-1.5c0-0.6,0.1-1,0.4-1.3
		s0.8-0.5,1.5-0.7c0.3-0.1,0.6-0.1,1-0.2s0.7-0.1,0.8-0.1c0.1,0,0.2-0.1,0.2-0.2s0.1-0.2,0.1-0.3c0-0.3-0.1-0.4-0.2-0.6
		s-0.4-0.2-0.8-0.2c-0.2,0-0.4,0-0.5,0.1s-0.3,0.1-0.4,0.2c0,0-0.1,0.1-0.2,0.2c-0.3,0.3-0.5,0.4-0.8,0.4c-0.2,0-0.4-0.1-0.5-0.2
		s-0.2-0.3-0.2-0.5c0-0.4,0.2-0.8,0.7-1.1s1.1-0.5,1.8-0.5c0.9,0,1.6,0.2,2,0.5S101.8,107.4,101.8,107.9z M100.2,109.6
		c-0.3,0.1-0.6,0.2-1,0.3s-0.5,0.1-0.6,0.1c-0.3,0.1-0.5,0.2-0.6,0.3s-0.2,0.3-0.2,0.5c0,0.2,0.1,0.4,0.2,0.6s0.4,0.2,0.7,0.2
		c0.4,0,0.8-0.1,1-0.4s0.4-0.6,0.4-1.1V109.6z"/>
	<path d="M43.5,124.4c0,0.5,0.1,0.9,0.4,1.1s0.6,0.4,1,0.4c0.2,0,0.4,0,0.5-0.1s0.3-0.1,0.4-0.2c0,0,0.1-0.1,0.1-0.1
		c0.3-0.3,0.5-0.4,0.8-0.4c0.2,0,0.4,0.1,0.5,0.2s0.2,0.3,0.2,0.5c0,0.1,0,0.3-0.1,0.4s-0.2,0.3-0.3,0.4c-0.3,0.3-0.6,0.5-1,0.6
		s-0.8,0.2-1.3,0.2c-0.9,0-1.7-0.3-2.2-0.9s-0.8-1.5-0.8-2.5c0-1,0.3-1.9,0.8-2.5s1.3-0.9,2.2-0.9c0.9,0,1.7,0.3,2.2,0.8
		s0.8,1.3,0.8,2.3c0,0.3-0.1,0.5-0.2,0.6s-0.4,0.2-0.8,0.2h-0.2H43.5z M46,123.3c0-0.4-0.1-0.8-0.3-1s-0.5-0.3-0.9-0.3
		c-0.4,0-0.7,0.1-0.9,0.3s-0.3,0.6-0.4,1H46z"/>
	<path d="M50.9,123.2c0.3,0,0.5,0.1,0.7,0.2s0.2,0.3,0.2,0.6c0,0.3-0.1,0.5-0.2,0.6s-0.4,0.2-0.6,0.2h-1.6c-0.3,0-0.5-0.1-0.7-0.2
		s-0.2-0.3-0.2-0.6c0-0.3,0.1-0.5,0.2-0.6s0.4-0.2,0.6-0.2H50.9z"/>
	<path d="M54.1,127.1c-0.4,0-0.7-0.1-0.8-0.3s-0.2-0.5-0.2-1.1v-6.4c0-0.3,0.1-0.5,0.2-0.7s0.4-0.2,0.7-0.2c0.3,0,0.5,0.1,0.7,0.2
		s0.2,0.4,0.2,0.7v6.2h3.3c0.3,0,0.6,0.1,0.8,0.2s0.3,0.3,0.3,0.6c0,0.3-0.1,0.5-0.3,0.6s-0.4,0.2-0.8,0.2H54.1z"/>
	<path d="M61.3,124.4c0,0.5,0.1,0.9,0.4,1.1s0.6,0.4,1,0.4c0.2,0,0.4,0,0.5-0.1s0.3-0.1,0.4-0.2c0,0,0.1-0.1,0.1-0.1
		c0.3-0.3,0.5-0.4,0.8-0.4c0.2,0,0.4,0.1,0.5,0.2s0.2,0.3,0.2,0.5c0,0.1,0,0.3-0.1,0.4s-0.2,0.3-0.3,0.4c-0.3,0.3-0.6,0.5-1,0.6
		s-0.8,0.2-1.3,0.2c-0.9,0-1.7-0.3-2.2-0.9s-0.8-1.5-0.8-2.5c0-1,0.3-1.9,0.8-2.5s1.3-0.9,2.2-0.9c0.9,0,1.7,0.3,2.2,0.8
		s0.8,1.3,0.8,2.3c0,0.3-0.1,0.5-0.2,0.6s-0.4,0.2-0.8,0.2h-0.2H61.3z M63.8,123.3c0-0.4-0.1-0.8-0.3-1s-0.5-0.3-0.9-0.3
		c-0.4,0-0.7,0.1-0.9,0.3s-0.3,0.6-0.4,1H63.8z"/>
	<path d="M71.9,122.3v3.6c0,0.1,0,0.3,0,0.4s0,0.3,0,0.3c0,0.2-0.1,0.4-0.2,0.5s-0.3,0.2-0.5,0.2c-0.3,0-0.5-0.1-0.7-0.2
		s-0.2-0.4-0.2-0.8c-0.2,0.3-0.5,0.6-0.8,0.8s-0.8,0.3-1.2,0.3c-0.6,0-1.1-0.2-1.4-0.5s-0.5-0.8-0.5-1.5c0-0.6,0.1-1,0.4-1.3
		s0.8-0.5,1.5-0.7c0.3-0.1,0.6-0.1,1-0.2s0.7-0.1,0.8-0.1c0.1,0,0.2-0.1,0.2-0.2s0.1-0.2,0.1-0.3c0-0.3-0.1-0.4-0.2-0.6
		s-0.4-0.2-0.8-0.2c-0.2,0-0.4,0-0.5,0.1s-0.3,0.1-0.4,0.2c0,0-0.1,0.1-0.2,0.2c-0.3,0.3-0.5,0.4-0.8,0.4c-0.2,0-0.4-0.1-0.5-0.2
		s-0.2-0.3-0.2-0.5c0-0.4,0.2-0.8,0.7-1.1s1.1-0.5,1.8-0.5c0.9,0,1.6,0.2,2,0.5S71.9,121.8,71.9,122.3z M70.3,124
		c-0.3,0.1-0.6,0.2-1,0.3s-0.5,0.1-0.6,0.1c-0.3,0.1-0.5,0.2-0.6,0.3s-0.2,0.3-0.2,0.5c0,0.2,0.1,0.4,0.2,0.6s0.4,0.2,0.7,0.2
		c0.4,0,0.8-0.1,1-0.4s0.4-0.6,0.4-1.1V124z"/>
	<path d="M75,122c0.2-0.4,0.4-0.7,0.6-1s0.5-0.3,0.8-0.3c0.3,0,0.5,0.1,0.7,0.2s0.2,0.4,0.2,0.6c0,0.1,0,0.3-0.1,0.4
		s-0.1,0.2-0.2,0.3c-0.1,0.1-0.3,0.1-0.6,0.2c-0.2,0-0.3,0-0.4,0c-0.3,0.1-0.6,0.2-0.8,0.4s-0.3,0.6-0.3,1v2.5
		c0,0.3-0.1,0.5-0.2,0.7s-0.4,0.2-0.6,0.2c-0.3,0-0.5-0.1-0.6-0.2s-0.2-0.4-0.2-0.7v-4.7c0-0.3,0.1-0.6,0.2-0.7s0.3-0.2,0.6-0.2
		c0.2,0,0.4,0.1,0.6,0.2s0.2,0.3,0.2,0.6v0V122z"/>
	<path d="M79.7,126.3c0,0.3-0.1,0.5-0.2,0.7s-0.4,0.2-0.6,0.2c-0.3,0-0.5-0.1-0.6-0.2s-0.2-0.4-0.2-0.7v-4.7c0-0.3,0.1-0.6,0.2-0.7
		s0.4-0.2,0.6-0.2c0.3,0,0.4,0.1,0.6,0.2s0.2,0.3,0.2,0.6l0,0.2c0.2-0.4,0.5-0.6,0.8-0.8s0.7-0.3,1.1-0.3c0.7,0,1.2,0.2,1.6,0.6
		s0.5,0.9,0.5,1.7v3.5c0,0.3-0.1,0.5-0.2,0.7s-0.4,0.2-0.6,0.2c-0.3,0-0.5-0.1-0.6-0.2s-0.2-0.4-0.2-0.7v-3c0-0.5-0.1-0.8-0.2-1
		S81.4,122,81,122c-0.4,0-0.7,0.1-1,0.4s-0.4,0.6-0.4,1V126.3z"/>
	<path d="M85.2,119.3c0-0.2,0.1-0.5,0.3-0.6s0.4-0.3,0.6-0.3c0.3,0,0.5,0.1,0.6,0.3s0.3,0.4,0.3,0.6c0,0.2-0.1,0.5-0.3,0.6
		s-0.4,0.3-0.6,0.3c-0.2,0-0.5-0.1-0.6-0.3S85.2,119.5,85.2,119.3z M86.9,126.3c0,0.3-0.1,0.5-0.2,0.7s-0.4,0.2-0.6,0.2
		c-0.3,0-0.5-0.1-0.6-0.2s-0.2-0.4-0.2-0.7v-4.7c0-0.3,0.1-0.6,0.2-0.7s0.4-0.2,0.6-0.2c0.3,0,0.5,0.1,0.6,0.2s0.2,0.4,0.2,0.7
		V126.3z"/>
	<path d="M90.2,126.3c0,0.3-0.1,0.5-0.2,0.7s-0.4,0.2-0.6,0.2c-0.3,0-0.5-0.1-0.6-0.2s-0.2-0.4-0.2-0.7v-4.7c0-0.3,0.1-0.6,0.2-0.7
		s0.4-0.2,0.6-0.2c0.3,0,0.4,0.1,0.6,0.2s0.2,0.3,0.2,0.6l0,0.2c0.2-0.4,0.5-0.6,0.8-0.8s0.7-0.3,1.1-0.3c0.7,0,1.2,0.2,1.6,0.6
		s0.5,0.9,0.5,1.7v3.5c0,0.3-0.1,0.5-0.2,0.7s-0.4,0.2-0.6,0.2c-0.3,0-0.5-0.1-0.6-0.2s-0.2-0.4-0.2-0.7v-3c0-0.5-0.1-0.8-0.2-1
		s-0.4-0.3-0.8-0.3c-0.4,0-0.7,0.1-1,0.4s-0.4,0.6-0.4,1V126.3z"/>
	<path d="M99.8,126.2c-0.2,0.3-0.4,0.5-0.7,0.7s-0.6,0.2-1.1,0.2c-0.8,0-1.5-0.3-2-0.9s-0.7-1.4-0.7-2.3c0-1,0.2-1.9,0.7-2.5
		s1.1-0.9,2-0.9c0.4,0,0.8,0.1,1.1,0.2s0.5,0.4,0.7,0.8v-0.1c0-0.2,0.1-0.4,0.2-0.6s0.3-0.2,0.6-0.2c0.3,0,0.5,0.1,0.6,0.2
		s0.2,0.4,0.2,0.7v5.1c0,1.1-0.2,1.9-0.7,2.3s-1.3,0.7-2.4,0.7c-0.8,0-1.4-0.1-1.8-0.4s-0.7-0.6-0.7-1c0-0.2,0.1-0.4,0.2-0.5
		s0.3-0.2,0.6-0.2c0.1,0,0.2,0,0.3,0.1s0.2,0.1,0.4,0.3l0,0c0.4,0.3,0.7,0.5,1.1,0.5c0.5,0,0.9-0.1,1.1-0.3s0.3-0.6,0.3-1.2V126.2z
		 M97,123.9c0,0.6,0.1,1.1,0.4,1.4s0.6,0.5,1,0.5c0.4,0,0.8-0.2,1-0.5s0.4-0.8,0.4-1.4c0-0.6-0.1-1-0.4-1.4s-0.6-0.5-1-0.5
		c-0.4,0-0.8,0.2-1,0.5S97,123.3,97,123.9z"/>
</g>
</svg>
