<?xml version="1.0" encoding="utf-8"?>
<!-- Generator: Adobe Illustrator 21.0.0, SVG Export Plug-In . SVG Version: 6.00 Build 0)  -->
<svg version="1.1" xmlns="http://www.w3.org/2000/svg" xmlns:xlink="http://www.w3.org/1999/xlink" x="0px" y="0px"
	 viewBox="0 0 2083.2 2362" style="enable-background:new 0 0 2083.2 2362;" xml:space="preserve">
<style type="text/css">
	.st0{fill:#E7ECF9;}
	.st1{fill:#6A5575;}
	.st2{fill:#452B52;}
	.st3{fill:#FFA280;}
	.st4{fill:#FF7F74;}
	.st5{fill:#614B6C;}
	.st6{fill:#FF685B;}
	.st7{fill:#FF9187;}
	.st8{fill:#B1C3EB;}
	.st9{fill:#C6D3F0;}
	.st10{fill:#FFFFFF;}
	.st11{fill:#FFD5C6;}
</style>
<g id="Layer_1">
</g>
<g id="Layer_2">
	<path class="st0" d="M1927.2,1618.1c-36-133.9-234.3-224.4-234.3-429.7s189.5-445.6,2.1-578.6c-170.3-120.8-394.4,132.9-607.4-39.7
		C919.5,434,500.2,27.7,327.9,388.8c-111.4,233.3,115.9,469.6,115.9,740.7s-180.6,296.5-260.5,432.7
		c-55.9,95.4-101.7,347.5,377.3,347.5c417.3,0,779.6,0,1042.8,0C1966.7,1909.6,1952.8,1713.3,1927.2,1618.1z"/>
	<g>
		<path class="st1" d="M1940.8,1317.3c36.1,18.1,81.5,59.7,57.4,104.3c-22.1,41-72.5,57.6-162.8-0.4c-54.7-35.1-80-60.1-138.8-93.6
			c-37.9-21.6-55.1-48.5-37-82.9c18.2-34.3,41.1-35.2,74.6-16.1C1872.3,1307.4,1878.6,1286.1,1940.8,1317.3z"/>
		<path class="st2" d="M1941.5,1326c34.8,19.1,68.8,56.5,49.7,91.3c-19.1,34.8-56.7,50.8-149,0.2c-54-29.6-85.6-63-143.8-94.9
			c-37.6-20.6-57.6-46.1-41.8-75c15.9-29,41.5-33.4,74.7-15.2C1868,1307.2,1882.4,1293.5,1941.5,1326z"/>
		<g>
			<g>
				<path class="st2" d="M1991.3,1417.3c-14.7,26.8-40.4,42.4-93.5,25.1c10.5-13.7,19.8-29.1,27.5-46c10.4-22.8,16.7-46.1,19.4-68.7
					C1978.3,1347.2,2009.8,1383.5,1991.3,1417.3z"/>
			</g>
		</g>
		<g>
			<g>
				<path class="st1" d="M1767.3,1335.8c-0.2-0.1-0.4-0.2-0.6-0.3c-3-1.7-4.1-5.4-2.4-8.4l18.3-33.2c1.7-3,5.5-4.1,8.4-2.4
					c3,1.7,4.1,5.4,2.4,8.4l-18.3,33.2C1773.6,1335.9,1770.2,1337,1767.3,1335.8z"/>
			</g>
			<g>
				<g>
					<path class="st1" d="M1791.3,1349.4c-0.2-0.1-0.4-0.2-0.6-0.3c-3-1.7-4.1-5.4-2.5-8.4l18.9-34.3c1.7-3,5.4-4.1,8.4-2.5
						c3,1.7,4.1,5.4,2.5,8.4l-18.9,34.3C1797.6,1349.5,1794.2,1350.6,1791.3,1349.4z"/>
				</g>
			</g>
			<g>
				<g>
					<path class="st1" d="M1815.3,1363c-0.2-0.1-0.4-0.2-0.6-0.3c-3-1.7-4.1-5.4-2.5-8.4l19.4-35.4c1.7-3,5.5-4.1,8.4-2.5
						c3,1.7,4.1,5.4,2.5,8.4l-19.4,35.4C1821.6,1363.1,1818.2,1364.2,1815.3,1363z"/>
				</g>
			</g>
			<g>
				<g>
					<path class="st1" d="M1839.3,1376.6c-0.2-0.1-0.4-0.2-0.6-0.3c-3-1.7-4.1-5.4-2.5-8.4l20-36.4c1.7-3,5.4-4.1,8.4-2.5
						c3,1.7,4.1,5.4,2.5,8.4l-20,36.4C1845.6,1376.7,1842.2,1377.8,1839.3,1376.6z"/>
				</g>
			</g>
			<g>
				<path class="st1" d="M1863.3,1390.2c-0.2-0.1-0.4-0.2-0.6-0.3c-3-1.7-4.1-5.4-2.5-8.4l20.6-37.5c1.7-3,5.5-4.1,8.4-2.5
					c3,1.7,4.1,5.4,2.5,8.4l-20.6,37.5C1869.6,1390.3,1866.2,1391.4,1863.3,1390.2z"/>
			</g>
		</g>
		<path class="st3" d="M1766.5,1305.8c18.3-33.4-13.9-56.9-38.4-70.3c-24.5-13.4-125.6-57.4-140.2-30.9
			c-12.5,22.8,74.3,92.9,98.8,106.4C1711.3,1324.3,1748.9,1338,1766.5,1305.8z"/>
	</g>
	<g>
		<g>
			<path class="st4" d="M1376.5,2228.6c-134.9-373.1-316.4-874.8-316.4-874.8l81.7-48.4c0,0,153.1,534.6,264.5,923.2H1376.5z"/>
		</g>
	</g>
	<g>
		<g>
			<g>
				<path class="st4" d="M408.2,2228.6c109.6-382.9,260-908.1,260-908.1l80.2,36.2c0,0-179.2,500.7-312.1,871.9H408.2z"/>
			</g>
		</g>
	</g>
	<g>
		<g>
			<g>
				<path class="st4" d="M720.3,2228.6c40.4-379.9,95.6-897.7,95.6-897.7l84.9,9.4c0,0-88.7,511.5-154.1,888.4H720.3z"/>
			</g>
		</g>
	</g>
	<g>
		<g>
			<g>
				<g>
					<polygon class="st3" points="1533.1,1793.6 1478.5,2095 1544.7,2144.1 1373.4,2151.2 1386.9,2085 1400.1,1769.1 					"/>
				</g>
			</g>
			<path class="st2" d="M1364.3,2205.4l14.7-99.3c0,0,5.4,26.7,51.3,26.7c47.3-0.1,55.3-30.7,59.6-29.3
				c4.2,1.4,197.8,56.1,197.8,56.1l14.2,45.3l-291,19.5L1364.3,2205.4z"/>
			<polygon class="st1" points="1364.4,2228.6 1762.7,2228 1762.7,2204.8 1364.3,2205.4 			"/>
			<path class="st2" d="M1762.7,2204.8c-0.1-52.3-74.9-45.3-74.9-45.3l-16.9,45.4L1762.7,2204.8z"/>
		</g>
		<g>
			<g>
				<g>
					<g>
						<path class="st1" d="M1530.6,2151.4c-0.6,0-1.2-0.1-1.8-0.3c-3.3-1-5.1-4.5-4.1-7.8l9.3-30c1-3.3,4.5-5.1,7.8-4.1
							c3.3,1,5.1,4.5,4.1,7.8l-9.3,30C1535.7,2149.7,1533.2,2151.4,1530.6,2151.4z"/>
					</g>
				</g>
				<g>
					<g>
						<path class="st1" d="M1559.8,2155.9c-0.6,0-1.2-0.1-1.8-0.3c-3.3-1-5.1-4.5-4.1-7.8l8.1-26.2c1-3.3,4.5-5.1,7.8-4.1
							c3.3,1,5.1,4.5,4.1,7.8l-8.1,26.2C1564.9,2154.2,1562.4,2155.9,1559.8,2155.9z"/>
					</g>
				</g>
				<g>
					<g>
						<path class="st1" d="M1588.9,2160.5c-0.6,0-1.2-0.1-1.8-0.3c-3.3-1-5.1-4.5-4.1-7.8l7-22.5c1-3.3,4.5-5.1,7.8-4.1
							c3.3,1,5.1,4.5,4.1,7.8l-7,22.5C1594.1,2158.8,1591.6,2160.5,1588.9,2160.5z"/>
					</g>
				</g>
				<g>
					<g>
						<path class="st1" d="M1618.1,2165.1c-0.6,0-1.2-0.1-1.8-0.3c-3.3-1-5.1-4.5-4.1-7.8l5.8-18.7c1-3.3,4.5-5.1,7.8-4.1
							c3.3,1,5.1,4.5,4.1,7.8l-5.8,18.7C1623.2,2163.4,1620.8,2165.1,1618.1,2165.1z"/>
					</g>
				</g>
				<g>
					<g>
						<path class="st1" d="M1647.3,2169.7c-0.6,0-1.2-0.1-1.8-0.3c-3.3-1-5.1-4.5-4.1-7.8l4.7-15c1-3.3,4.5-5.1,7.8-4.1
							c3.3,1,5.1,4.5,4.1,7.8l-4.7,15C1652.4,2168,1650,2169.7,1647.3,2169.7z"/>
					</g>
				</g>
			</g>
		</g>
	</g>
	<g>
		<path class="st5" d="M1444.2,2010.6c-61.8-5-92.2-74-92.2-74s49.7-23.2,100.9-11.8c51.2,11.3,76.7,43.2,76.7,43.2
			S1484.2,2013.9,1444.2,2010.6z"/>
		<path class="st2" d="M1364.3,2011.9l43.7-644c17.8-150.9,254.7-119.7,232.4,30.9c0,0-133.1,611.7-133.1,611.7
			C1504.8,2063.7,1359.4,2050.3,1364.3,2011.9z"/>
		<path class="st5" d="M1511,2051.7c-60.5,11.9-111.4,2.3-158.9-27v-88.1c47.7,32.5,114.3,38.7,177.6,31.4L1511,2051.7z"/>
	</g>
	<g>
		<path class="st6" d="M527.6,477.7h184.9c151.2,0,286,121.6,301.1,271.5l72.8,726.1c2.7,27.2-17.3,49.2-44.7,49.2h0
			c-377.2,0-713.3-303.2-750.8-677.2l-9.8-98.1C266,599.2,376.4,477.7,527.6,477.7z"/>
	</g>
	<g>
		<path class="st6" d="M1114.3,1524.6H894.6c-151,0-239-122.8-239-273.8v-170.9c0-27.4,22.2-49.6,49.6-49.6c27.4,0,605.8,0,633.3,0
			c27.4,0,49.6,22.2,49.6,49.6v170.9C1388.2,1401.7,1265.3,1524.6,1114.3,1524.6z"/>
	</g>
	<path class="st7" d="M1351.4,1030.3c-26.7,1.3-47.2,24.3-47.2,51v169.5c0,96.4-78.1,174.5-174.5,174.5H944.7
		c-96.4,0-174.5-78.1-174.5-174.5v-90.6c0-71.8-58.2-129.9-129.9-129.9H342.9c-26.7,0-49.7,20.5-51,47.2c-1.3,28.5,21.4,52,49.6,52
		h299.7c16.4,0,29.6,13.3,29.6,29.6v91.6c0,151.2,122.6,273.8,273.8,273.8h184.9c151.2,0,273.8-122.6,273.8-273.8v-170.9
		C1403.4,1051.6,1379.9,1028.9,1351.4,1030.3z"/>
	<path class="st2" d="M1515,1470l-644.5-89.1c-150.7-19.4-117.1-255.9,33.3-232.1c0,0,644.5,89.1,644.5,89.1
		C1699,1257.2,1665.4,1493.8,1515,1470z"/>
	<g>
		<path class="st8" d="M866.9,548.8c69-64,170.1-10.7,180.9,71.8c10.8,82.5,55.9,195.6,75.3,237.9c23.8,51.7,71.2,164.7,33.8,202.9
			c-37.4,38.2-131.8-8.5-148.6-43.9c-16.8-35.4-86.8-252.8-109.9-272.3C875.3,725.6,791.1,619.1,866.9,548.8z"/>
		<path class="st8" d="M532.6,1219.6c0,0-64.6-643.4-42.6-666.9c22-23.6,191-130.6,285.3-116.5c94.3,14.1,241.2,109.3,252.2,143.9
			c11,34.6-64.4,485.5-97.4,551.5C897.1,1197.6,532.6,1219.6,532.6,1219.6z"/>
	</g>
	<path class="st3" d="M490,969.4c-38.7,68,10,93.1,134.4,84.5c124.4-8.6,309.9-10.5,332.9-46.4c23-35.8,24.3-57.2-21.5-52.6
		c-45.8,4.6-229.4-13.3-306-16.8C553.1,934.6,519.9,917,490,969.4z"/>
	<path class="st9" d="M532.5,526c90.8-24.7,155.7,69.3,127,147.4c-28.7,78.1-7.8,152.5-21.8,196.9c-14,44.5-40.3,168.5-91.2,185
		c-50.8,16.5-90.4-44.3-88.2-83.4c1.8-30.8-6.3-165.8-0.1-241.8C465.8,637.8,432.7,553.2,532.5,526z"/>
	<g>
		<path class="st3" d="M870.4,980.8c0,0,97.9-95.8,116.4-111.3c18.5-15.5,37.5,12.7,35,56c-2.5,43.3,17.8,54.2-12.5,66.9
			s-58.8,48.7-116.7,48.6C866,1040.9,842.7,1007.8,870.4,980.8z"/>
		<path class="st3" d="M1055.2,883.3c-5.2,0.8-40.1,6.5-45.3,7.3c-21.3,3.4-16.5,33.3,4.8,29.9c5.2-0.8,40.1-6.5,45.3-7.3
			C1080.6,909.9,1075.7,880,1055.2,883.3z"/>
		<path class="st3" d="M1046.1,910.4c-4.8,2-37.5,15.6-42.4,17.7c-19.9,8.3-8.2,36.2,11.6,27.9c4.8-2,37.5-15.6,42.4-17.7
			C1077,930.3,1065.4,902.3,1046.1,910.4z"/>
		<path class="st3" d="M1044,944c-4.8,2-37.5,15.6-42.4,17.7c-19.9,8.3-8.2,36.2,11.6,27.9c4.8-2,37.5-15.6,42.4-17.7
			C1074.9,963.9,1063.3,936,1044,944z"/>
		<path class="st3" d="M1100.8,909.4c-3.9-3.5-27.6-19.5-31.8-22.5c-17.5-12.6-35.1,12-17.6,24.6c4.3,3.1,29.7,16.4,34,19.3
			C1098,939.2,1113.3,920.5,1100.8,909.4z"/>
		<path class="st3" d="M1095.5,914.3c-5.1-1.2-34-4.8-39.2-5.4c-21.4-2.7-25.1,27.3-3.8,30c5.2,0.7,34.4,1.1,39.6,1.6
			C1107.3,941.8,1111.8,918.1,1095.5,914.3z"/>
		<path class="st3" d="M1087.5,930.2c-5.1,1.4-41.9,13-46.7,14.9c-20.1,7.8-9.1,36,11,28.2c4.9-1.9,40.4-16.5,45.2-18.6
			C1110.9,948.7,1103.7,925.9,1087.5,930.2z"/>
		<g>
			<g>
				<path class="st5" d="M1091.7,936.3l-117.2-138c-6.9-8.2,5.6-19,12.6-10.7c0,0,117.2,138,117.2,138c2.6,2.9,14.6,25,10.4,27.3
					C1111.6,954.7,1092.4,937.1,1091.7,936.3z"/>
			</g>
		</g>
		<path class="st3" d="M1041.9,845.5c-4.8,2-37.5,15.6-42.4,17.7c-19.9,8.3-8.2,36.2,11.6,27.9c4.8-2,37.5-15.6,42.4-17.7
			C1072.8,865.4,1061.1,837.5,1041.9,845.5z"/>
		<path class="st3" d="M1100.1,866.6c-4.6-2.5-39.3-19.4-44.2-21.3c-19.9-8.1-31.4,19.9-11.4,28c4.8,2,40.6,15.9,45.6,17.7
			C1104.3,896.2,1114.8,874.6,1100.1,866.6z"/>
	</g>
	<g>
		<rect x="1054.3" y="991.3" class="st10" width="263.5" height="13"/>
		<polygon class="st11" points="1054.3,1004.3 855.5,1148.3 855.5,1135.3 1054.3,991.3 		"/>
		<polygon class="st2" points="1119,1148.3 1317.9,1004.3 1054.3,1004.3 855.5,1148.3 		"/>
	</g>
	<path class="st5" d="M1130.1,1275.1l-417.2,155.3c-142.5,52.7-222.4-172.5-78.1-221.1c0,0,417.2-155.3,417.2-155.3
		C1194.5,1001.3,1274.4,1226.5,1130.1,1275.1z"/>
	<g>
		<path class="st6" d="M901.3,1421.5c-79-16.7-138.4-86.8-138.4-170.8v-60.5c0-88.4-71.7-160-160-160H443.3
			c-27.4,0-49.6,22.2-49.6,49.6v0c0,245.6,199.1,444.7,444.7,444.7c0,0,31.4,0,62.9,0L901.3,1421.5z"/>
		<path class="st7" d="M932.9,1424.9c-90.9-6.1-162.8-81.7-162.8-174.1v-90.6c0-71.8-58.2-129.9-129.9-129.9H342.9
			c-26.7,0-49.7,20.5-51,47.2c-1.3,28.5,21.4,52,49.6,52h299.7c16.4,0,29.6,13.3,29.6,29.6v91.6c0,147.3,116.3,267.4,262,273.6
			V1424.9z"/>
	</g>
	<g>
		<g>
			<path class="st2" d="M1638.8,1239.5c-4.8,61.8-73.8,92.4-73.8,92.4s-23.3-49.6-12.1-100.9c11.2-51.2,43-76.8,43-76.8
				S1641.9,1199.5,1638.8,1239.5z"/>
			<path class="st5" d="M1599.9,1317.3l-507.1-32.3c-147.6-36.2-87.6-267.5,59.1-226.9c0,0,471.4,119.2,471.4,119.2
				C1683.1,1187.3,1674.5,1317.9,1599.9,1317.3z"/>
			<path class="st2" d="M1679.7,1172.6c12.1,60.5,1.4,118.9-27.8,166.5l-86.8-7.2c32.4-47.8,38.3-114.4,30.8-177.7L1679.7,1172.6z"
				/>
		</g>
	</g>
	<path class="st9" d="M882.4,951.3l11.2,98.2c0,0-286.1,8.2-364.4,11.5s-115.4-170.7,15.7-154.2S882.4,951.3,882.4,951.3z"/>
	<g>
		<path class="st3" d="M717.8,427c-58.6,24.5-45.9,42.6-2.5,56.3c39.6,12.5,74.1,61.4,95.8,86.5c23.1,26.7,41.1-87.4,3-110
			C776.1,437.2,717.8,427,717.8,427z"/>
		<path class="st3" d="M932.3,235.5l-158.4-52.3L696,449.4c0,0,8.4,38.2,64.3,51.4c55.8,13.2,69.9-13.9,69.9-13.9L932.3,235.5z"/>
	</g>
	<g>
		<path class="st3" d="M812.6,99.5c44.7-21.3,85.1-22,116.6-17.3c40.5,6.1,72.6,24.9,79.7,72.5c15.3,102.9-6.3,252.9-60.7,268.8
			c-54.4,15.9-153.4-11.3-169.9-96.3C761.8,242.3,755,127,812.6,99.5z"/>
		<path class="st5" d="M992.8,30.3c52.3,58.3,39.9,114.9-12.6,119.2c-52.6,4.3-115-3.4-115-3.4s-42.8,167.8-5.4,186.3
			c37.3,18.6,47.6-32.2,118.4-14c48.9,12.5,26.6,150.8-23.1,155.2c-49.7,4.4-133.9-35.4-142.5-81.1c-8.6-45.7,27.5-151,5.3-182.2
			c-22.2-31.2-43.2-10-42.4,13.3c0.3,7.9-0.1,25.3-0.7,44.7c-1.1,37.7-41.2,52.7-41.2,52.7s-18-75.7-13.1-143.8
			c4.9-68.2,52-119.9,121.1-120.7C968.4,55.1,992.8,30.3,992.8,30.3z"/>
		<g>
			<g>
				<g>
					<g>
						<g>
							<path class="st5" d="M967.9,244.9c0-12.9,6.5-28.2,37.4-28.2c30.9,0,37.4,15.3,37.4,28.2c0,20.6-16.8,37.4-37.4,37.4
								C984.7,282.3,967.9,265.5,967.9,244.9z M975.7,244.9c0,16.3,13.3,29.6,29.6,29.6c16.3,0,29.6-13.3,29.6-29.6
								c0-5.1,0-20.4-29.6-20.4C975.7,224.5,975.7,239.9,975.7,244.9z"/>
						</g>
					</g>
					<g>
						<g>
							<path class="st5" d="M871.4,244.9c0-12.9,6.5-28.2,37.4-28.2c30.9,0,37.4,15.3,37.4,28.2c0,20.6-16.8,37.4-37.4,37.4
								C888.1,282.3,871.4,265.5,871.4,244.9z M879.2,244.9c0,16.3,13.3,29.6,29.6,29.6c16.3,0,29.6-13.3,29.6-29.6
								c0-5.1,0-20.4-29.6-20.4C879.2,224.5,879.2,239.9,879.2,244.9z"/>
						</g>
					</g>
					<g>
						<g>
							<g>
								<path class="st5" d="M941.9,245c2.1,0,3.9-1.7,3.9-3.9c0-5.9,4.8-10.7,10.7-10.7c5.9,0,10.7,4.8,10.7,10.7
									c0,2.1,1.7,3.9,3.9,3.9c2.1,0,3.9-1.7,3.9-3.9c0-10.2-8.3-18.5-18.5-18.5c-10.2,0-18.5,8.3-18.5,18.5
									C938,243.3,939.7,245,941.9,245z"/>
							</g>
						</g>
					</g>
					<g>
						<g>
							<path class="st5" d="M877.7,237.7c1.5,0,2.9-0.9,3.6-2.3c0.9-2,0-4.3-2-5.2l-50.3-21.3c-2-0.9-4.5,0.1-5.4,2.1
								c-0.9,2,0.3,4.2,2.2,5.1l50.3,21.3C876.6,237.6,877.1,237.7,877.7,237.7z"/>
						</g>
					</g>
				</g>
			</g>
		</g>
	</g>
</g>
</svg>
