
<svg xmlns="http://www.w3.org/2000/svg" version="1.1" xmlns:xlink="http://www.w3.org/1999/xlink" preserveAspectRatio="none" x="0px" y="0px" width="400px" height="400px" viewBox="0 0 400 400">
<defs>
<linearGradient id="Gradient_1" gradientUnits="userSpaceOnUse" x1="-544.9" y1="313.55" x2="-461.9" y2="313.55" spreadMethod="pad">
<stop  offset="0%" stop-color="#E41F19"/>

<stop  offset="100%" stop-color="#ED6965"/>
</linearGradient>

<linearGradient id="Gradient_2" gradientUnits="userSpaceOnUse" x1="-544.9" y1="313.55" x2="-461.9" y2="313.55" spreadMethod="pad">
<stop  offset="0%" stop-color="#FF6A07"/>

<stop  offset="100%" stop-color="#FF9C5B"/>
</linearGradient>

<linearGradient id="Gradient_3" gradientUnits="userSpaceOnUse" x1="-544.9" y1="313.55" x2="-461.9" y2="313.55" spreadMethod="pad">
<stop  offset="0%" stop-color="#7DCC06"/>

<stop  offset="0%" stop-color="#7DCC06"/>

<stop  offset="100%" stop-color="#A4E53F"/>
</linearGradient>

<linearGradient id="Gradient_4" gradientUnits="userSpaceOnUse" x1="-544.9" y1="313.55" x2="-461.9" y2="313.55" spreadMethod="pad">
<stop  offset="0%" stop-color="#07C2D7"/>

<stop  offset="100%" stop-color="#69DCE9"/>
</linearGradient>

<linearGradient id="Gradient_5" gradientUnits="userSpaceOnUse" x1="-544.9" y1="313.55" x2="-461.9" y2="313.55" spreadMethod="pad">
<stop  offset="0%" stop-color="#FF079A"/>

<stop  offset="100%" stop-color="#FF6DC4"/>
</linearGradient>

<g id="Layer0_0_FILL">
<path fill="#E0C9CB" stroke="none" d="
M 340.5 340.55
Q 398.5 282.6 398.5 200.5 398.5 118.45 340.5 60.5 282.55 2.5 200.5 2.5 118.4 2.5 60.45 60.5 2.5 118.45 2.5 200.5 2.5 282.6 60.45 340.55 118.4 398.5 200.5 398.5 282.55 398.5 340.5 340.55 Z"/>
</g>

<g id="Layer0_1_FILL">
<path fill="#DBD2B1" stroke="none" d="
M -503.4 272.05
Q -520.6 272.05 -532.75 284.2 -544.9 296.35 -544.9 313.55 -544.9 330.75 -532.75 342.9 -520.6 355.05 -503.4 355.05 -486.2 355.05 -474.05 342.9 -461.9 330.75 -461.9 313.55 -461.9 296.35 -474.05 284.2 -486.2 272.05 -503.4 272.05 Z"/>
</g>

<g id="Layer0_2_FILL">
<path fill="#CBDBBD" stroke="none" d="
M -503.4 272.05
Q -520.6 272.05 -532.75 284.2 -544.9 296.35 -544.9 313.55 -544.9 330.75 -532.75 342.9 -520.6 355.05 -503.4 355.05 -486.2 355.05 -474.05 342.9 -461.9 330.75 -461.9 313.55 -461.9 296.35 -474.05 284.2 -486.2 272.05 -503.4 272.05 Z"/>
</g>

<g id="Layer0_3_FILL">
<path fill="#C3D4DB" stroke="none" d="
M -503.4 272.05
Q -520.6 272.05 -532.75 284.2 -544.9 296.35 -544.9 313.55 -544.9 330.75 -532.75 342.9 -520.6 355.05 -503.4 355.05 -486.2 355.05 -474.05 342.9 -461.9 330.75 -461.9 313.55 -461.9 296.35 -474.05 284.2 -486.2 272.05 -503.4 272.05 Z"/>
</g>

<g id="Layer0_4_FILL">
<path fill="#E0D2E7" stroke="none" d="
M -503.4 272.05
Q -520.6 272.05 -532.75 284.2 -544.9 296.35 -544.9 313.55 -544.9 330.75 -532.75 342.9 -520.6 355.05 -503.4 355.05 -486.2 355.05 -474.05 342.9 -461.9 330.75 -461.9 313.55 -461.9 296.35 -474.05 284.2 -486.2 272.05 -503.4 272.05 Z"/>
</g>

<g id="Layer0_5_FILL">
<path fill="url(#Gradient_1)" stroke="none" d="
M -503.4 272.05
Q -520.6 272.05 -532.75 284.2 -544.9 296.35 -544.9 313.55 -544.9 330.75 -532.75 342.9 -520.6 355.05 -503.4 355.05 -486.2 355.05 -474.05 342.9 -461.9 330.75 -461.9 313.55 -461.9 296.35 -474.05 284.2 -486.2 272.05 -503.4 272.05 Z"/>
</g>

<g id="Layer0_6_FILL">
<path fill="url(#Gradient_2)" stroke="none" d="
M -503.4 272.05
Q -520.6 272.05 -532.75 284.2 -544.9 296.35 -544.9 313.55 -544.9 330.75 -532.75 342.9 -520.6 355.05 -503.4 355.05 -486.2 355.05 -474.05 342.9 -461.9 330.75 -461.9 313.55 -461.9 296.35 -474.05 284.2 -486.2 272.05 -503.4 272.05 Z"/>
</g>

<g id="Layer0_7_FILL">
<path fill="url(#Gradient_3)" stroke="none" d="
M -503.4 272.05
Q -520.6 272.05 -532.75 284.2 -544.9 296.35 -544.9 313.55 -544.9 330.75 -532.75 342.9 -520.6 355.05 -503.4 355.05 -486.2 355.05 -474.05 342.9 -461.9 330.75 -461.9 313.55 -461.9 296.35 -474.05 284.2 -486.2 272.05 -503.4 272.05 Z"/>
</g>

<g id="Layer0_8_FILL">
<path fill="url(#Gradient_4)" stroke="none" d="
M -503.4 272.05
Q -520.6 272.05 -532.75 284.2 -544.9 296.35 -544.9 313.55 -544.9 330.75 -532.75 342.9 -520.6 355.05 -503.4 355.05 -486.2 355.05 -474.05 342.9 -461.9 330.75 -461.9 313.55 -461.9 296.35 -474.05 284.2 -486.2 272.05 -503.4 272.05 Z"/>
</g>

<g id="Layer0_9_FILL">
<path fill="url(#Gradient_5)" stroke="none" d="
M -503.4 272.05
Q -520.6 272.05 -532.75 284.2 -544.9 296.35 -544.9 313.55 -544.9 330.75 -532.75 342.9 -520.6 355.05 -503.4 355.05 -486.2 355.05 -474.05 342.9 -461.9 330.75 -461.9 313.55 -461.9 296.35 -474.05 284.2 -486.2 272.05 -503.4 272.05 Z"/>
</g>

<g id="Layer0_10_FILL">
<path fill="#FFFFFF" stroke="none" d="
M 891.15 441.15
Q 891.45 440.85 891.3 440.35
L 888.4 429.8
Q 890.2 426.35 890.2 422.5 890.2 414.9 883.75 409.45 877.3 404.05 868.2 404.05 859.1 404.05 852.65 409.45 846.2 414.9 846.2 422.5 846.2 423.65 846.45 425.15 841.9 427.15 839.2 430.85 836.4 434.65 836.4 439.1 836.4 442.35 837.9 445.35
L 835.4 454.25
Q 835.3 454.75 835.6 455.05 835.85 455.35 836.25 455.35
L 836.4 455.3 846.65 453.2
Q 850.75 454.9 855.2 454.9 862.6 454.9 868.05 450.65 873.4 446.4 873.95 440.25 876.15 439.75 878.2 438.9
L 890.35 441.45 890.5 441.45
Q 890.85 441.45 891.15 441.15
M 853.85 410.65
Q 859.8 405.75 868.2 405.75 876.6 405.75 882.55 410.65 888.5 415.55 888.5 422.5 888.5 426.1 886.7 429.3 886.55 429.55 886.65 429.95
L 889.3 439.5 878.1 437.15 877.75 437.25
Q 875.85 438.05 874 438.5 873.75 432.15 868.3 427.75 862.8 423.3 855.2 423.3 851.55 423.3 848.05 424.5 847.9 423.55 847.9 422.5 847.9 415.55 853.85 410.65
M 855.2 425
Q 862.3 425 867.3 429.15 872.35 433.3 872.35 439.1 872.35 444.9 867.3 449.05 862.3 453.2 855.2 453.2 850.8 453.2 847.1 451.5 846.8 451.4 846.6 451.45
L 837.4 453.4 839.6 445.45
Q 839.75 445.2 839.55 444.8 838.1 442.2 838.1 439.1 838.1 433.3 843.1 429.15 848.1 425 855.2 425 Z"/>
</g>

<g id="Layer0_11_FILL">
<path fill="#FFFFFF" stroke="none" d="
M 881.2 417.3
Q 881.2 416.45 880.35 416.45
L 856.8 416.45
Q 856.45 416.45 856.2 416.7 855.95 416.95 855.95 417.3 855.95 417.65 856.2 417.9 856.45 418.15 856.8 418.15
L 880.35 418.15
Q 881.2 418.15 881.2 417.3 Z"/>
</g>

<g id="Layer0_12_FILL">
<path fill="#FFFFFF" stroke="none" d="
M 881.2 423.6
Q 881.2 422.75 880.35 422.75
L 868.7 422.75
Q 867.85 422.75 867.85 423.6 867.85 424.45 868.7 424.45
L 880.35 424.45
Q 881.2 424.45 881.2 423.6 Z"/>
</g>

<g id="Layer0_13_FILL">
<path fill="#FFFFFF" stroke="none" d="
M 881.2 429.85
Q 881.2 429 880.35 429
L 874.6 429
Q 874.25 429 874 429.25 873.75 429.5 873.75 429.85 873.75 430.2 874 430.45 874.25 430.7 874.6 430.7
L 880.35 430.7
Q 881.2 430.7 881.2 429.85 Z"/>
</g>

<g id="Layer0_14_FILL">
<path fill="#FFFFFF" stroke="none" d="
M 864.25 433.75
Q 864.25 432.9 863.4 432.9
L 846.6 432.9
Q 846.25 432.9 846 433.15 845.75 433.4 845.75 433.75 845.75 434.6 846.6 434.6
L 863.4 434.6
Q 864.25 434.6 864.25 433.75 Z"/>
</g>

<g id="Layer0_15_FILL">
<path fill="#FFFFFF" stroke="none" d="
M 864.25 439.7
Q 864.25 438.85 863.4 438.85
L 846.6 438.85
Q 846.25 438.85 846 439.1 845.75 439.35 845.75 439.7 845.75 440.05 846 440.3 846.25 440.55 846.6 440.55
L 863.4 440.55
Q 863.75 440.55 864 440.3 864.25 440.05 864.25 439.7 Z"/>
</g>

<g id="Layer0_16_FILL">
<path fill="#FFFFFF" stroke="none" d="
M 859.8 445.05
Q 859.55 444.8 859.2 444.8
L 846.6 444.8
Q 846.25 444.8 846 445.05 845.75 445.3 845.75 445.65 845.75 446 846 446.25 846.25 446.5 846.6 446.5
L 859.2 446.5
Q 859.55 446.5 859.8 446.25 860.05 446 860.05 445.65 860.05 445.3 859.8 445.05 Z"/>
</g>

<g id="Layer0_17_FILL">
<path fill="#FFFFFF" stroke="none" d="
M 1438.75 674.1
Q 1443.65 679.45 1450.8 680.15
L 1458.5 697.65
Q 1458.65 698.05 1459.1 698.15
L 1459.3 698.15
Q 1459.55 698.15 1459.9 697.9
L 1469.05 688.65 1480.15 688.45 1480.5 688.35 1480.55 688.3
Q 1480.7 688.2 1480.75 688.15
L 1480.8 688.15 1480.8 688.1 1480.85 688 1480.95 687.85 1480.95 687.65 1481 687.55 1480.3 677.3 1489.5 667.95
Q 1489.85 667.7 1489.75 667.1 1489.6 666.65 1489.05 666.55
L 1471.4 663.2 1471.5 661.4
Q 1471.5 653.6 1466 648.1 1460.45 642.55 1452.65 642.55 1444.85 642.55 1439.35 648.1 1433.8 653.6 1433.8 661.4 1433.8 668.7 1438.75 674.1
M 1441.6 658.05
Q 1441.25 658.5 1441.5 658.9
L 1450 678.3
Q 1443.8 677.3 1439.7 672.55 1435.5 667.75 1435.5 661.4 1435.5 654.3 1440.55 649.3 1445.55 644.25 1452.65 644.25 1459.75 644.25 1464.75 649.3 1469.8 654.3 1469.8 661.4
L 1469.75 662.9 1442.45 657.75
Q 1441.95 657.6 1441.6 658.05
M 1447.1 664.85
Q 1447.1 665.2 1447.35 665.45
L 1467.5 687.8 1459.55 695.85 1443.7 659.7 1487.2 667.9 1479.25 675.95 1451.3 662.1
Q 1451 661.95 1450.65 662.1 1450.3 662.2 1450.15 662.5 1450 662.8 1450.15 663.15 1450.25 663.45 1450.55 663.6
L 1478.6 677.55 1479.15 685.75 1455.15 667.35
Q 1454.85 667.15 1454.5 667.2 1454.15 667.25 1453.95 667.5 1453.7 667.75 1453.75 668.1 1453.8 668.5 1454.1 668.7
L 1477.7 686.8 1469.05 686.95 1448.6 664.3
Q 1448 663.7 1447.4 664.25 1447.15 664.5 1447.1 664.85 Z"/>
</g>

<g id="Layer0_18_FILL">
<path fill="#FF781F" stroke="none" d="
M 320.55 433.85
Q 319.4 435.85 319.4 437.95 319.4 444 327.5 448.2 335.6 452.35 347.35 452.4 359.1 452.35 367.15 448.2 375.25 444 375.25 437.95 375.25 433.9 371.15 430.4 370.9 430.2 370.55 430.2 370.2 430.25 369.95 430.5 369.75 430.75 369.75 431.1 369.8 431.5 370.05 431.7 373.55 434.6 373.55 437.95 373.55 443.25 365.85 446.95 358.2 450.65 347.35 450.65 336.45 450.65 328.8 446.95 321.1 443.25 321.1 437.95 321.1 436.55 321.9 434.95
L 323.1 436 324.05 431.05 319.3 432.7 320.55 433.85 Z"/>
</g>

<g id="Layer0_19_FILL">
<path fill="#E73934" stroke="none" d="
M 366.5 418.55
L 366.5 418.5 353.45 412.7 348.05 400.7 347.75 400.4 347.6 400.35 347.5 400.3 347.15 400.3 347.05 400.35 346.9 400.4 346.7 400.6 346.65 400.7 346.55 400.8 341.25 412.7 328.2 418.5 328.15 418.55 328.05 418.6 327.8 418.85 327.75 419 327.7 419.05 327.7 439.35
Q 327.7 439.95 328.2 440.15
L 347 448.55 347.05 448.55 347.35 448.6 347.65 448.55 366.5 440.15
Q 367 439.9 367 439.35
L 367 419.3 366.95 419.05 366.85 418.85 366.85 418.8 366.7 418.65 366.65 418.65 366.6 418.6 366.5 418.55
M 365.3 420.6
L 365.3 438.8 348.15 446.45 348.15 428.2 365.3 420.6
M 354.45 415
L 364.05 419.3 347.35 426.75 330.6 419.3 340.2 415 338.45 418.95
Q 338.3 419.25 338.4 419.6 338.55 419.9 338.85 420.05
L 347 423.7 347.05 423.7 347.35 423.75 347.65 423.7 355.8 420.05
Q 356.1 419.9 356.25 419.6 356.4 419.3 356.25 418.95
L 354.45 415
M 348.15 405.1
L 354.35 418.85 348.15 421.6 348.15 405.1
M 346.5 405.1
L 346.5 421.6 340.3 418.85 346.5 405.1
M 329.35 438.8
L 329.35 420.6 346.5 428.2 346.5 446.45 329.35 438.8 Z"/>
</g>

<g id="Layer0_20_FILL">
<path fill="#FFFFFF" stroke="none" d="
M 226.5 405.95
Q 226.3 405.05 225.5 404.6
L 222 402.55
Q 221.2 402.1 220.3 402.35 219.4 402.6 218.95 403.4
L 217.5 405.9
Q 215.85 405.3 214 405
L 214 402.05
Q 214 401.15 213.35 400.5 212.7 399.85 211.8 399.85
L 207.7 399.85
Q 206.8 399.85 206.15 400.5 205.5 401.15 205.5 402.05
L 205.5 405
Q 203.75 405.3 202 405.9
L 200.55 403.4
Q 200.1 402.6 199.2 402.35 198.3 402.1 197.5 402.55
L 194 404.6
Q 193.2 405.05 193 405.95 192.75 406.8 193.2 407.6
L 194.65 410.15
Q 193 411.65 192.1 412.75
L 189.55 411.3
Q 188.75 410.85 187.85 411.05 187 411.3 186.55 412.1
L 184.5 415.6
Q 184.05 416.4 184.3 417.25 184.5 418.15 185.3 418.6
L 187.85 420.1
Q 187.15 421.95 186.9 423.6
L 183.95 423.6
Q 183.05 423.6 182.4 424.25 181.75 424.85 181.75 425.8
L 181.75 429.85
Q 181.75 430.8 182.4 431.4 183.05 432.05 183.95 432.05
L 186.9 432.05
Q 187.15 433.7 187.85 435.55
L 185.3 437.05
Q 184.5 437.5 184.3 438.4 184 439.2 184.5 440.05
L 186.55 443.55
Q 187 444.35 187.85 444.6 188.8 444.85 189.55 444.4
L 192.1 442.9
Q 193 444 194.65 445.5
L 193.2 448.05
Q 192.75 448.85 193 449.7 193.2 450.6 194 451.05
L 197.5 453.1
Q 198.3 453.5 199.2 453.3 200.05 453.05 200.55 452.25
L 202 449.75
Q 203.75 450.35 205.5 450.65
L 205.5 453.6
Q 205.5 454.55 206.15 455.15 206.8 455.8 207.7 455.8
L 211.8 455.8
Q 212.7 455.8 213.35 455.15 214 454.55 214 453.6
L 214 450.65
Q 215.85 450.35 217.5 449.75
L 218.95 452.25
Q 219.4 453.05 220.3 453.3 221.1 453.5 222 453.1
L 225.5 451.05
Q 226.3 450.6 226.5 449.7 226.75 448.85 226.3 448.05
L 224.85 445.5
Q 226.3 444.25 227.4 442.9
L 229.95 444.4
Q 230.75 444.85 231.6 444.6 232.5 444.35 232.95 443.55
L 235 440.05
Q 235.45 439.3 235.2 438.4 235 437.5 234.2 437.05
L 231.65 435.55
Q 232.35 433.7 232.6 432.05
L 235.5 432.05
Q 236.45 432.05 237.1 431.4 237.75 430.8 237.75 429.85
L 237.75 425.8
Q 237.75 424.85 237.1 424.25 236.45 423.6 235.5 423.6
L 232.6 423.6
Q 232.35 421.95 231.65 420.1
L 234.2 418.6
Q 235 418.15 235.2 417.25 235.45 416.4 235 415.6
L 232.95 412.1
Q 232.5 411.3 231.6 411.05 230.75 410.8 229.95 411.3
L 227.4 412.75
Q 226.3 411.45 224.85 410.15
L 226.3 407.6
Q 226.75 406.8 226.5 405.95
M 224.65 406.05
Q 225.1 406.35 224.85 406.75
L 223 409.95
Q 222.65 410.5 223.2 411.05 225 412.45 226.55 414.35 227 414.95 227.65 414.55
L 230.8 412.75
Q 231.25 412.5 231.5 412.9
L 233.55 416.45
Q 233.75 416.9 233.35 417.15
L 230.2 418.95
Q 229.55 419.35 229.8 420 230.65 422.15 231.05 424.55 231.15 425.3 231.85 425.3
L 235.5 425.3
Q 236.05 425.3 236.05 425.8
L 236.05 429.85
Q 236.05 430.35 235.5 430.35
L 231.85 430.35
Q 231.15 430.35 231.05 431.1 230.65 433.55 229.8 435.65 229.7 435.9 229.8 436.25 229.9 436.55 230.2 436.7
L 233.35 438.5 233.6 438.8 233.55 439.2 231.5 442.75
Q 231.2 443.15 230.8 442.9
L 227.65 441.1
Q 227 440.75 226.55 441.3 224.9 443.3 223.2 444.65 222.65 445.1 223 445.7
L 224.85 448.9
Q 224.95 449.05 224.9 449.25 224.85 449.5 224.65 449.55
L 221.1 451.6
Q 220.95 451.75 220.75 451.65 220.55 451.65 220.45 451.45
L 218.6 448.25
Q 218.25 447.65 217.55 447.9 215.4 448.8 213 449.1 212.3 449.3 212.3 449.95
L 212.3 453.6
Q 212.3 454.1 211.8 454.1
L 207.7 454.1
Q 207.2 454.1 207.2 453.6
L 207.2 449.95
Q 207.2 449.3 206.5 449.1 204.1 448.8 201.95 447.9
L 201.6 447.85
Q 201.15 447.85 200.9 448.25
L 199.05 451.45
Q 198.75 451.85 198.35 451.6
L 194.85 449.55
Q 194.65 449.5 194.6 449.25 194.55 449.05 194.65 448.9
L 196.5 445.7
Q 196.85 445.1 196.3 444.65 194.65 443.3 192.95 441.3 192.5 440.75 191.85 441.1
L 188.7 442.9
Q 188.5 443 188.3 442.95 188.1 442.95 188 442.75
L 185.95 439.2 185.9 438.8 186.15 438.5 189.3 436.7
Q 189.55 436.55 189.7 436.25 189.8 435.9 189.65 435.65 188.85 433.45 188.45 431.1 188.35 430.35 187.6 430.35
L 183.95 430.35
Q 183.45 430.35 183.45 429.85
L 183.45 425.8
Q 183.45 425.3 183.95 425.3
L 187.6 425.3
Q 188.35 425.3 188.45 424.55 188.8 422.25 189.65 420 189.95 419.4 189.3 418.95
L 186.15 417.15
Q 185.7 416.9 185.95 416.45
L 188 412.9
Q 188.1 412.7 188.3 412.7 188.55 412.6 188.7 412.75
L 191.85 414.55
Q 192.55 414.9 192.95 414.35 194.5 412.45 196.3 411.05 196.85 410.5 196.5 409.95
L 194.65 406.75
Q 194.4 406.35 194.85 406.05
L 198.35 404.05
Q 198.65 403.95 198.75 404 199 404.1 199.05 404.25
L 200.9 407.4
Q 201.25 408 201.95 407.75 204.3 406.85 206.5 406.5 207.2 406.4 207.2 405.7
L 207.2 402.05
Q 207.2 401.55 207.7 401.55
L 211.8 401.55
Q 212.3 401.55 212.3 402.05
L 212.3 405.7
Q 212.3 406.4 213 406.5 215.2 406.85 217.55 407.75 218.25 408 218.6 407.4
L 220.45 404.25
Q 220.5 404.1 220.75 404 220.9 403.95 221.1 404.05
L 224.65 406.05 Z"/>
</g>

<g id="Layer0_21_FILL">
<path fill="#FFFFFF" stroke="none" d="
M 218.9 417.25
Q 214.2 413.15 207.9 413.95 203.2 414.55 199.8 418 196.4 421.5 195.85 426.2 195.25 431.5 198.25 435.75 198.6 436.25 198.5 436.9
L 198 441.9
Q 198 442.35 198.35 442.65 198.65 442.85 198.9 442.85
L 199.15 442.8 204.35 441.15
Q 204.85 440.95 205.35 441.1 208.15 442.05 211.15 441.75 216.55 441.2 220.2 437.1 223.85 433 223.75 427.6 223.7 424.6 222.4 421.9 221.15 419.2 218.9 417.25
M 208.1 415.65
Q 213.65 414.95 217.8 418.55 219.8 420.25 220.9 422.6 222 425 222.05 427.6 222.15 432.35 218.95 435.95 215.75 439.55 211 440.05 208.45 440.35 205.9 439.5 205.05 439.15 203.8 439.5
L 199.85 440.8 200.2 437.1
Q 200.35 435.8 199.65 434.8 197 431 197.55 426.4 198 422.25 201 419.2 203.95 416.2 208.1 415.65 Z"/>
</g>

<g id="Layer0_22_FILL">
<path fill="#FFFFFF" stroke="none" d="
M 217.35 423.05
Q 217.35 422.2 216.55 422.2
L 202.95 422.2
Q 202.1 422.2 202.1 423.05 202.1 423.4 202.35 423.6 202.6 423.85 202.95 423.85
L 216.55 423.85
Q 217.35 423.85 217.35 423.05 Z"/>
</g>

<g id="Layer0_23_FILL">
<path fill="#FFFFFF" stroke="none" d="
M 217.35 428.2
Q 217.35 427.4 216.55 427.4
L 210.6 427.4
Q 210.25 427.4 210 427.65 209.75 427.85 209.75 428.2 209.75 428.55 210 428.85 210.25 429.1 210.6 429.1
L 216.55 429.1
Q 217.35 429.1 217.35 428.2 Z"/>
</g>

<g id="Layer0_24_FILL">
<path fill="#FFFFFF" stroke="none" d="
M 206.35 427.4
L 202.95 427.4
Q 202.6 427.4 202.35 427.65 202.1 427.85 202.1 428.2 202.1 428.55 202.35 428.85 202.6 429.1 202.95 429.1
L 206.35 429.1
Q 207.2 429.1 207.2 428.2 207.2 427.4 206.35 427.4 Z"/>
</g>

<g id="Layer0_25_FILL">
<path fill="#FFFFFF" stroke="none" d="
M 213.15 433.45
Q 213.15 432.6 212.3 432.6
L 202.95 432.6
Q 202.1 432.6 202.1 433.45 202.1 433.8 202.35 434 202.6 434.25 202.95 434.25
L 212.3 434.25
Q 212.65 434.25 212.9 434 213.15 433.8 213.15 433.45 Z"/>
</g>

<g id="Layer0_26_FILL">
<path fill="#FFFFFF" stroke="none" d="
M 458.35 681.6
Q 458.1 681.85 458.1 682.2
L 458.1 703.65
Q 458.1 704 458.35 704.3 458.6 704.55 458.95 704.55
L 499.45 704.55
Q 500.3 704.55 500.3 703.65 500.3 702.85 499.45 702.85
L 459.8 702.85 459.8 682.2
Q 459.8 681.35 458.95 681.35 458.6 681.35 458.35 681.6 Z"/>
</g>

<g id="Layer0_27_FILL">
<path fill="#FFFFFF" stroke="none" d="
M 458.35 648.8
Q 458.1 649.05 458.1 649.4
L 458.1 656.2
Q 458.1 656.55 458.35 656.8 458.6 657.05 458.95 657.05 459.3 657.05 459.55 656.8 459.8 656.55 459.8 656.2
L 459.8 650.25 464.85 650.25
Q 465.7 650.25 465.7 649.4 465.7 648.55 464.85 648.55
L 458.95 648.55
Q 458.6 648.55 458.35 648.8 Z"/>
</g>

<g id="Layer0_28_FILL">
<path fill="#FFFFFF" stroke="none" d="
M 514.05 649.4
Q 514.05 648.55 513.25 648.55
L 491.8 648.55
Q 490.95 648.55 490.95 649.4 490.95 650.25 491.8 650.25
L 512.4 650.25 512.4 657.05 499.45 657.05
Q 498.6 657.05 498.6 657.9 498.6 658.25 498.85 658.5 499.1 658.75 499.45 658.75
L 512.4 658.75 512.4 689.9
Q 512.4 690.75 513.25 690.75 514.05 690.75 514.05 689.9
L 514.05 649.4 Z"/>
</g>

<g id="Layer0_29_FILL">
<path fill="#FFFFFF" stroke="none" d="
M 508.8 654.5
Q 509.05 654.5 509.4 654.25 509.65 654 509.65 653.65 509.65 653.3 509.4 653.05 508.8 652.5 508.15 653.05 507.95 653.35 507.95 653.65 507.95 653.95 508.15 654.25 508.5 654.5 508.8 654.5 Z"/>
</g>

<g id="Layer0_30_FILL">
<path fill="#FFFFFF" stroke="none" d="
M 504.1 654.5
Q 504.95 654.5 504.95 653.65 504.95 652.8 504.1 652.8 503.75 652.8 503.5 653.05 503.25 653.3 503.25 653.65 503.25 654 503.5 654.25 503.75 654.5 504.1 654.5 Z"/>
</g>

<g id="Layer0_31_FILL">
<path fill="#FFFFFF" stroke="none" d="
M 498.85 654.25
Q 499.1 654.5 499.45 654.5 499.8 654.5 500.05 654.25 500.3 654 500.3 653.65 500.3 653.3 500.05 653.05 499.8 652.85 499.45 652.85 499.1 652.85 498.85 653.05 498.6 653.3 498.6 653.65 498.6 654 498.85 654.25 Z"/>
</g>

<g id="Layer0_32_FILL">
<path fill="#FFFFFF" stroke="none" d="
M 458.15 668.75
Q 458.15 677.15 464.05 683.05 466.95 685.95 470.7 687.45 474.35 688.95 478.3 688.95 484.5 688.95 489.65 685.45
L 492.95 688.75 492.1 689.7
Q 491.85 689.95 491.85 690.3 491.85 690.65 492.1 690.85
L 504 702.8
Q 505.75 704.55 508.2 704.55 510.6 704.55 512.35 702.8 514.05 701.1 514.05 698.65 514.05 696.15 512.35 694.45
L 500.4 682.55
Q 500.2 682.35 499.8 682.35 499.45 682.35 499.2 682.55
L 498.35 683.4 495 680.1
Q 499.05 674.15 498.4 666.95 497.75 659.65 492.6 654.5 486.7 648.6 478.3 648.6 469.95 648.6 464.05 654.5 458.15 660.4 458.15 668.75
M 478.3 650.25
Q 481.95 650.25 485.3 651.6 488.75 653 491.4 655.65 496.8 661.1 496.8 668.75 496.8 676.4 491.4 681.8 485.95 687.25 478.3 687.25 470.65 687.25 465.25 681.8 459.8 676.4 459.8 668.75 459.8 661.1 465.25 655.65 470.65 650.25 478.3 650.25
M 494.15 687.55
L 491.05 684.45 494 681.45 497.15 684.6 494.15 687.55
M 499.8 684.3
L 502.8 687.3 496.85 693.25 493.9 690.3 499.8 684.3
M 511.15 701.6
Q 509.9 702.85 508.2 702.85 506.45 702.85 505.2 701.6
L 498.05 694.45 504 688.5 511.15 695.65
Q 512.4 696.9 512.4 698.65 512.4 700.35 511.15 701.6 Z"/>
</g>

<g id="Layer0_33_FILL">
<path fill="#FFFFFF" stroke="none" d="
M 480.7 661.3
Q 479.2 656.05 479.15 655.85 479 655.25 478.35 655.25 477.75 655.25 477.5 655.85 477.45 656.05 475.95 661.3 474.45 666.85 474.45 668.8 474.45 670.4 475.6 671.55 476.75 672.7 478.35 672.7 479.95 672.7 481.1 671.55 482.2 670.4 482.2 668.8 482.2 666.85 480.7 661.3
M 476.8 670.35
Q 476.15 669.7 476.15 668.8 476.15 666.5 478.35 659.05 480.5 666.75 480.5 668.8 480.5 669.7 479.9 670.35 479.25 670.95 478.35 670.95 477.45 670.95 476.8 670.35 Z"/>
</g>

<g id="Layer0_34_FILL">
<path fill="#FFFFFF" stroke="none" d="
M 473.15 657.9
Q 473.25 657.55 473.05 657.25 472.9 656.9 472.55 656.8 472.2 656.7 471.9 656.9 470.3 657.75 468.8 659.2 464.85 663.15 464.85 668.7
L 464.85 668.75 464.9 668.8
Q 464.9 674.35 468.8 678.25 472.65 682.1 478.25 682.2
L 478.35 682.2
Q 483.9 682.2 487.85 678.25 491.7 674.4 491.8 668.8
L 491.8 668.7
Q 491.8 663.1 487.85 659.2 486.4 657.75 484.75 656.9 484.45 656.7 484.1 656.8 483.8 656.9 483.6 657.25 483.25 658 483.95 658.35 485.4 659.15 486.65 660.4 489.75 663.5 490.05 667.9
L 487.6 667.9
Q 487.25 667.9 487 668.15 486.75 668.4 486.75 668.75 486.75 669.1 487 669.35 487.25 669.6 487.6 669.6
L 490.05 669.6
Q 489.75 674 486.65 677.05 483.55 680.15 479.15 680.45
L 479.15 677.95
Q 479.15 677.6 478.9 677.35 478.65 677.1 478.3 677.1 477.95 677.1 477.7 677.35 477.45 677.6 477.45 677.95
L 477.45 680.45
Q 473.15 680.15 470 677.05 467 674.05 466.6 669.6
L 469.1 669.6
Q 469.45 669.6 469.7 669.35 469.95 669.1 469.95 668.75 469.95 668.4 469.7 668.15 469.45 667.9 469.1 667.9
L 466.6 667.9
Q 466.9 663.55 470 660.4 471.15 659.25 472.7 658.35 473.05 658.2 473.15 657.9 Z"/>
</g>

<path id="Layer0_1_1_STROKES" stroke="#FFFFFF" stroke-opacity="0.00784313725490196" stroke-width="1" stroke-linejoin="round" stroke-linecap="round" fill="none" d="
M -461.9 313.55
Q -461.9 330.75 -474.05 342.9 -486.2 355.05 -503.4 355.05 -520.6 355.05 -532.75 342.9 -544.9 330.75 -544.9 313.55 -544.9 296.35 -532.75 284.2 -520.6 272.05 -503.4 272.05 -486.2 272.05 -474.05 284.2 -461.9 296.35 -461.9 313.55 Z"/>

<path id="Layer0_2_1_STROKES" stroke="#FFFFFF" stroke-opacity="0.00784313725490196" stroke-width="1" stroke-linejoin="round" stroke-linecap="round" fill="none" d="
M -461.9 313.55
Q -461.9 330.75 -474.05 342.9 -486.2 355.05 -503.4 355.05 -520.6 355.05 -532.75 342.9 -544.9 330.75 -544.9 313.55 -544.9 296.35 -532.75 284.2 -520.6 272.05 -503.4 272.05 -486.2 272.05 -474.05 284.2 -461.9 296.35 -461.9 313.55 Z"/>

<path id="Layer0_3_1_STROKES" stroke="#FFFFFF" stroke-opacity="0.00784313725490196" stroke-width="1" stroke-linejoin="round" stroke-linecap="round" fill="none" d="
M -461.9 313.55
Q -461.9 330.75 -474.05 342.9 -486.2 355.05 -503.4 355.05 -520.6 355.05 -532.75 342.9 -544.9 330.75 -544.9 313.55 -544.9 296.35 -532.75 284.2 -520.6 272.05 -503.4 272.05 -486.2 272.05 -474.05 284.2 -461.9 296.35 -461.9 313.55 Z"/>

<path id="Layer0_4_1_STROKES" stroke="#FFFFFF" stroke-opacity="0.00784313725490196" stroke-width="1" stroke-linejoin="round" stroke-linecap="round" fill="none" d="
M -461.9 313.55
Q -461.9 330.75 -474.05 342.9 -486.2 355.05 -503.4 355.05 -520.6 355.05 -532.75 342.9 -544.9 330.75 -544.9 313.55 -544.9 296.35 -532.75 284.2 -520.6 272.05 -503.4 272.05 -486.2 272.05 -474.05 284.2 -461.9 296.35 -461.9 313.55 Z"/>

<path id="Layer0_5_1_STROKES" stroke="#FFFFFF" stroke-opacity="0.00784313725490196" stroke-width="1" stroke-linejoin="round" stroke-linecap="round" fill="none" d="
M -461.9 313.55
Q -461.9 330.75 -474.05 342.9 -486.2 355.05 -503.4 355.05 -520.6 355.05 -532.75 342.9 -544.9 330.75 -544.9 313.55 -544.9 296.35 -532.75 284.2 -520.6 272.05 -503.4 272.05 -486.2 272.05 -474.05 284.2 -461.9 296.35 -461.9 313.55 Z"/>

<path id="Layer0_6_1_STROKES" stroke="#FFFFFF" stroke-opacity="0.00784313725490196" stroke-width="1" stroke-linejoin="round" stroke-linecap="round" fill="none" d="
M -461.9 313.55
Q -461.9 330.75 -474.05 342.9 -486.2 355.05 -503.4 355.05 -520.6 355.05 -532.75 342.9 -544.9 330.75 -544.9 313.55 -544.9 296.35 -532.75 284.2 -520.6 272.05 -503.4 272.05 -486.2 272.05 -474.05 284.2 -461.9 296.35 -461.9 313.55 Z"/>

<path id="Layer0_7_1_STROKES" stroke="#FFFFFF" stroke-opacity="0.00784313725490196" stroke-width="1" stroke-linejoin="round" stroke-linecap="round" fill="none" d="
M -461.9 313.55
Q -461.9 330.75 -474.05 342.9 -486.2 355.05 -503.4 355.05 -520.6 355.05 -532.75 342.9 -544.9 330.75 -544.9 313.55 -544.9 296.35 -532.75 284.2 -520.6 272.05 -503.4 272.05 -486.2 272.05 -474.05 284.2 -461.9 296.35 -461.9 313.55 Z"/>

<path id="Layer0_8_1_STROKES" stroke="#FFFFFF" stroke-opacity="0.00784313725490196" stroke-width="1" stroke-linejoin="round" stroke-linecap="round" fill="none" d="
M -461.9 313.55
Q -461.9 330.75 -474.05 342.9 -486.2 355.05 -503.4 355.05 -520.6 355.05 -532.75 342.9 -544.9 330.75 -544.9 313.55 -544.9 296.35 -532.75 284.2 -520.6 272.05 -503.4 272.05 -486.2 272.05 -474.05 284.2 -461.9 296.35 -461.9 313.55 Z"/>

<path id="Layer0_9_1_STROKES" stroke="#FFFFFF" stroke-opacity="0.00784313725490196" stroke-width="1" stroke-linejoin="round" stroke-linecap="round" fill="none" d="
M -461.9 313.55
Q -461.9 330.75 -474.05 342.9 -486.2 355.05 -503.4 355.05 -520.6 355.05 -532.75 342.9 -544.9 330.75 -544.9 313.55 -544.9 296.35 -532.75 284.2 -520.6 272.05 -503.4 272.05 -486.2 272.05 -474.05 284.2 -461.9 296.35 -461.9 313.55 Z"/>
</defs>

<g transform="matrix( 1, 0, 0, 1, 0,0) ">
<use xlink:href="#Layer0_0_FILL"/>
</g>

<g transform="matrix( 1, 0, 0, 1, 1181.6,-181.55) ">
<use xlink:href="#Layer0_1_FILL"/>

<use xlink:href="#Layer0_1_1_STROKES"/>
</g>

<g transform="matrix( 1, 0, 0, 1, 1283.6,-181.55) ">
<use xlink:href="#Layer0_2_FILL"/>

<use xlink:href="#Layer0_2_1_STROKES"/>
</g>

<g transform="matrix( 1, 0, 0, 1, 1378.6,-181.55) ">
<use xlink:href="#Layer0_3_FILL"/>

<use xlink:href="#Layer0_3_1_STROKES"/>
</g>

<g transform="matrix( 1, 0, 0, 1, 1470.6,-181.55) ">
<use xlink:href="#Layer0_4_FILL"/>

<use xlink:href="#Layer0_4_1_STROKES"/>
</g>

<g transform="matrix( 1, 0, 0, 1, 1073.65,-91.55) ">
<use xlink:href="#Layer0_5_FILL"/>

<use xlink:href="#Layer0_5_1_STROKES"/>
</g>

<g transform="matrix( 1, 0, 0, 1, 1181.6,-91.55) ">
<use xlink:href="#Layer0_6_FILL"/>

<use xlink:href="#Layer0_6_1_STROKES"/>
</g>

<g transform="matrix( 1, 0, 0, 1, 1283.6,-91.55) ">
<use xlink:href="#Layer0_7_FILL"/>

<use xlink:href="#Layer0_7_1_STROKES"/>
</g>

<g transform="matrix( 1, 0, 0, 1, 1378.6,-91.55) ">
<use xlink:href="#Layer0_8_FILL"/>

<use xlink:href="#Layer0_8_1_STROKES"/>
</g>

<g transform="matrix( 1, 0, 0, 1, 1470.6,-91.55) ">
<use xlink:href="#Layer0_9_FILL"/>

<use xlink:href="#Layer0_9_1_STROKES"/>
</g>

<g transform="matrix( 3.925750732421875, 0, 0, 3.925750732421875, -4020.35,-1666.45) ">
<use xlink:href="#Layer0_10_FILL"/>
</g>

<g transform="matrix( 3.925750732421875, 0, 0, 3.925750732421875, -4020.35,-1666.45) ">
<use xlink:href="#Layer0_11_FILL"/>
</g>

<g transform="matrix( 3.925750732421875, 0, 0, 3.925750732421875, -4020.35,-1666.45) ">
<use xlink:href="#Layer0_12_FILL"/>
</g>

<g transform="matrix( 3.925750732421875, 0, 0, 3.925750732421875, -4020.35,-1666.45) ">
<use xlink:href="#Layer0_13_FILL"/>
</g>

<g transform="matrix( 3.925750732421875, 0, 0, 3.925750732421875, -4020.35,-1666.45) ">
<use xlink:href="#Layer0_14_FILL"/>
</g>

<g transform="matrix( 3.925750732421875, 0, 0, 3.925750732421875, -4020.35,-1666.45) ">
<use xlink:href="#Layer0_15_FILL"/>
</g>

<g transform="matrix( 3.925750732421875, 0, 0, 3.925750732421875, -4020.35,-1666.45) ">
<use xlink:href="#Layer0_16_FILL"/>
</g>

<g transform="matrix( 3.925750732421875, 0, 0, 3.925750732421875, -6369.5,-2249.45) ">
<use xlink:href="#Layer0_17_FILL"/>
</g>

<g transform="matrix( 3.925750732421875, 0, 0, 3.925750732421875, -1165.2,-1490.6) ">
<use xlink:href="#Layer0_18_FILL"/>
</g>

<g transform="matrix( 3.925750732421875, 0, 0, 3.925750732421875, -1165.2,-1490.6) ">
<use xlink:href="#Layer0_19_FILL"/>
</g>

<g transform="matrix( 3.925750732421875, 0, 0, 3.925750732421875, -1144.25,-1576.55) ">
<use xlink:href="#Layer0_20_FILL"/>
</g>

<g transform="matrix( 3.925750732421875, 0, 0, 3.925750732421875, -1144.25,-1576.55) ">
<use xlink:href="#Layer0_21_FILL"/>
</g>

<g transform="matrix( 3.925750732421875, 0, 0, 3.925750732421875, -1144.25,-1576.55) ">
<use xlink:href="#Layer0_22_FILL"/>
</g>

<g transform="matrix( 3.925750732421875, 0, 0, 3.925750732421875, -1144.25,-1576.55) ">
<use xlink:href="#Layer0_23_FILL"/>
</g>

<g transform="matrix( 3.925750732421875, 0, 0, 3.925750732421875, -1144.25,-1576.55) ">
<use xlink:href="#Layer0_24_FILL"/>
</g>

<g transform="matrix( 3.925750732421875, 0, 0, 3.925750732421875, -1144.25,-1576.55) ">
<use xlink:href="#Layer0_25_FILL"/>
</g>

<g transform="matrix( 3.925750732421875, 0, 0, 3.925750732421875, -2103.85,-2213.3) ">
<use xlink:href="#Layer0_26_FILL"/>
</g>

<g transform="matrix( 3.925750732421875, 0, 0, 3.925750732421875, -2103.85,-2213.3) ">
<use xlink:href="#Layer0_27_FILL"/>
</g>

<g transform="matrix( 3.925750732421875, 0, 0, 3.925750732421875, -2103.85,-2213.3) ">
<use xlink:href="#Layer0_28_FILL"/>
</g>

<g transform="matrix( 3.925750732421875, 0, 0, 3.925750732421875, -2103.85,-2213.3) ">
<use xlink:href="#Layer0_29_FILL"/>
</g>

<g transform="matrix( 3.925750732421875, 0, 0, 3.925750732421875, -2103.85,-2213.3) ">
<use xlink:href="#Layer0_30_FILL"/>
</g>

<g transform="matrix( 3.925750732421875, 0, 0, 3.925750732421875, -2103.85,-2213.3) ">
<use xlink:href="#Layer0_31_FILL"/>
</g>

<g transform="matrix( 3.925750732421875, 0, 0, 3.925750732421875, -2103.85,-2213.3) ">
<use xlink:href="#Layer0_32_FILL"/>
</g>

<g transform="matrix( 3.925750732421875, 0, 0, 3.925750732421875, -2103.85,-2213.3) ">
<use xlink:href="#Layer0_33_FILL"/>
</g>

<g transform="matrix( 3.925750732421875, 0, 0, 3.925750732421875, -2103.85,-2213.3) ">
<use xlink:href="#Layer0_34_FILL"/>
</g>
</svg>
